<svg width="63" height="21" viewBox="0 0 63 21" fill="none" xmlns="http://www.w3.org/2000/svg">
<path d="M6.54552 19.7238L6.57825 19.8294H6.6888H9.92442H10.0328L10.0668 19.7266L14.4382 6.52903L18.7843 19.7263L18.8182 19.8294H18.9267H22.1884H22.2991L22.3318 19.7236L27.9941 1.36498L28.054 1.17078H27.8508H24.2759H24.1634L24.1319 1.27877L20.4332 13.9567L16.3558 1.27486L16.3223 1.17078H16.213H12.6643H12.5551L12.5215 1.27461L8.41839 13.9582L4.71922 1.27877L4.68771 1.17078H4.57522H1.00039H0.796875L0.857108 1.36517L6.54552 19.7238ZM39.9406 10.2311C41.6898 9.54813 42.9812 8.11646 42.9812 5.99729C42.9812 4.49361 42.3263 3.20177 41.183 2.28916C40.042 1.37839 38.4215 0.850098 36.4904 0.850098C33.3836 0.850098 31.255 2.26751 29.7964 4.14144L29.7171 4.24335L29.8061 4.33693L31.737 6.36787L31.8498 6.48654L31.9582 6.36377C33.1688 4.99206 34.4881 4.14307 36.2034 4.14307C38.0935 4.14307 39.3934 5.15464 39.3934 6.53175C39.3934 7.2837 39.0722 7.8588 38.5029 8.24851C37.9272 8.64267 37.0871 8.8534 36.0487 8.84026H36.0468H34.0376H33.8876V8.99026V11.8763V12.0283L34.0396 12.0263L36.0468 11.9996H36.0478C37.3002 11.9997 38.2318 12.2121 38.8457 12.6071C39.4498 12.9956 39.7587 13.5682 39.7587 14.3348C39.7587 15.0911 39.4467 15.7223 38.8828 16.1679C38.3158 16.6161 37.4839 16.8839 36.4382 16.8839C34.5556 16.8839 32.8732 16.0247 31.6459 14.6106L31.535 14.4828L31.4214 14.6083L29.4383 16.7996L29.3518 16.8952L29.4333 16.9951C30.9236 18.8212 33.3672 20.1501 36.5426 20.1501C38.5917 20.1501 40.2976 19.5814 41.4944 18.5995C42.6934 17.6159 43.3726 16.2239 43.3726 14.6021C43.3726 12.2288 41.7187 10.805 39.9406 10.2311ZM62.11 17.1095L62.2113 17.0011L62.104 16.8986L59.8077 14.7073L59.6932 14.5981L59.5903 14.7183C58.4931 15.9986 56.9414 16.8037 55.2421 16.8037C52.0188 16.8037 49.2862 13.9393 49.2862 10.4867C49.2862 7.06133 52.0185 4.19651 55.2421 4.19651C56.9159 4.19651 58.4929 5.00203 59.563 6.28062L59.6658 6.40345L59.7817 6.29282L62.104 4.07482L62.2121 3.97162L62.1093 3.86316C60.3612 2.01872 57.9222 0.850098 55.2421 0.850098C50.044 0.850098 45.6723 5.2473 45.6723 10.4867C45.6723 15.7256 50.0435 20.1501 55.2421 20.1501C57.9224 20.1501 60.3617 18.9813 62.11 17.1095Z" fill="#FCFCFC"/>
</svg>
