<svg width="46" height="46" viewBox="0 0 46 46" fill="none" xmlns="http://www.w3.org/2000/svg">
<g clip-path="url(#clip0_174_7911)">
<path d="M4.11833 5.41248C4.11833 4.65965 4.73926 4.04906 5.50507 4.04906H24.1471C24.9129 4.04906 25.5338 4.65962 25.5338 5.41248V28.401C25.5338 28.4347 25.5325 28.468 25.5302 28.5011L28.3983 30.303L29.6521 29.0575V1.01241C29.6521 0.453373 29.1913 0 28.6226 0H1.02958C0.461147 0 0 0.453381 0 1.01241V32.8017C0 33.3611 0.461164 33.8141 1.02958 33.8141H17.9393L15.4387 29.7647H5.5054C4.73961 29.7647 4.11866 29.1542 4.11866 28.401L4.11833 5.41248Z" fill="#FBFBFB"/>
<path d="M20.3811 25.2654L18.3611 23.9963C16.6481 22.92 14.7353 23.8249 14.0817 25.3095H9.82977C9.06397 25.3095 8.44336 24.6992 8.44336 23.9461V22.6235C8.44336 21.8704 9.06397 21.2598 9.82977 21.2598H20.0294C20.7952 21.2598 21.4161 21.8703 21.4161 22.6235V23.9461C21.4161 24.5796 20.9767 25.1125 20.3811 25.2654Z" fill="#FBFBFB"/>
<path d="M9.82977 14.7808C9.06397 14.7808 8.44336 15.3913 8.44336 16.1442V17.4671C8.44336 18.2199 9.06397 18.8305 9.82977 18.8305H20.0294C20.7952 18.8305 21.4161 18.2199 21.4161 17.4671V16.1442C21.4161 15.3914 20.7952 14.7808 20.0294 14.7808H9.82977Z" fill="#FBFBFB"/>
<path d="M9.82977 8.50342C9.06397 8.50342 8.44336 9.11366 8.44336 9.86685V11.1894C8.44336 11.9425 9.06397 12.5528 9.82977 12.5528H20.0294C20.7952 12.5528 21.4161 11.9426 21.4161 11.1894V9.86685C21.4161 9.11369 20.7952 8.50342 20.0294 8.50342H9.82977Z" fill="#FBFBFB"/>
<path fill-rule="evenodd" clip-rule="evenodd" d="M45.7456 16.9518C45.8674 16.8306 46.0648 16.9793 45.9776 17.1265L28.9169 45.9282C28.8605 46.0232 28.7215 46.0242 28.6635 45.9305L16.6611 26.4929C16.5801 26.3616 16.735 26.2129 16.8666 26.2955L28.6914 33.7247C28.7501 33.7613 28.8269 33.7529 28.8755 33.7043L45.7456 16.9518Z" fill="#FBFBFB"/>
</g>
<defs>
<clipPath id="clip0_174_7911">
<rect width="46" height="46" fill="white"/>
</clipPath>
</defs>
</svg>
