<svg width="586" height="710" viewBox="0 0 586 710" fill="none" xmlns="http://www.w3.org/2000/svg">
<path d="M364.277 548.288V701.794L221.956 660.898L221.95 537.096C244.103 559.262 259.946 573.341 262.302 575.336L298.691 606.476L335.203 575.336C337.052 573.783 348.195 564.143 364.276 548.294L364.277 548.288ZM17.7429 393.901C7.05327 397.01 -0.117586 406 0.0447008 416.068V678.068C-0.45547 685.526 3.26677 692.704 9.95492 697.172C16.6374 701.64 25.3841 702.791 33.2125 700.239L169.356 661.338V478.338C141.272 444.707 116.425 409.005 95.0929 371.598L17.7429 393.901ZM560.584 398.995H486.321C465.697 431.333 442.492 462.297 416.897 491.651L416.891 709.317H560.579C574.397 709.015 585.407 698.864 585.331 686.489V421.809C585.407 409.434 574.403 399.273 560.579 398.971L560.584 398.995ZM504.147 183.981C504.147 365.528 298.698 541.208 298.698 541.208C298.698 541.203 93.2494 365.755 93.2494 183.981C93.2494 118.241 132.408 57.508 195.975 24.648C259.543 -8.216 337.86 -8.216 401.424 24.648C464.986 57.508 504.144 118.247 504.144 183.981H504.147ZM387.562 193.846V193.841C387.538 172.742 378.146 152.518 361.466 137.622C344.786 122.715 322.185 114.357 298.625 114.382C275.06 114.398 252.471 122.793 235.831 137.721C219.179 152.658 209.834 172.893 209.846 193.997C209.852 215.095 219.221 235.33 235.883 250.242C252.551 265.154 275.146 273.539 298.706 273.539C322.301 273.539 344.919 265.143 361.587 250.19C378.249 235.247 387.602 214.977 387.566 193.846L387.562 193.846Z" fill="#dc3545"/>
</svg>
