<svg width="47" height="46" viewBox="0 0 47 46" fill="none" xmlns="http://www.w3.org/2000/svg">
<path d="M22.9619 0.0837828C22.127 0.0837828 21.3759 0.834863 21.4598 1.66983V1.75308V7.51254C21.3766 8.34746 21.9605 9.09858 22.7954 9.26567C23.6304 9.34892 24.3815 8.76495 24.5486 7.93004V7.51258V1.75313C24.6318 0.91821 23.964 0.0839153 23.1297 0C23.0453 0.0838408 22.9619 0.0837828 22.9619 0.0837828ZM22.9619 12.1033C16.9522 12.1033 12.0278 16.9445 12.0278 23.0375C12.0278 29.1306 16.9522 33.9717 22.9619 33.9717C28.9716 33.9717 33.8961 29.0472 33.8961 23.0375C33.8129 17.0278 28.9716 12.1865 22.9619 12.1033ZM22.9619 15.609C27.052 15.609 30.3906 18.9474 30.3906 23.0377C30.3906 27.1279 27.0522 30.4663 22.9619 30.4663V15.609ZM1.76102 21.5355C0.926104 21.4523 0.174981 22.0363 0.00789593 22.8712C-0.0753621 23.7061 0.508614 24.4572 1.34352 24.6243H1.76098H7.52043C8.35535 24.7076 9.10648 24.1236 9.27356 23.2887C9.35682 22.4538 8.77284 21.7026 7.93794 21.5355H7.52048H1.76102ZM38.487 21.5355C37.6521 21.4523 36.901 22.0363 36.7339 22.8712C36.6506 23.7061 37.2346 24.4572 38.0695 24.6243H38.487H44.2464C45.0813 24.7076 45.8325 24.1236 45.9996 23.2887C46.0828 22.4538 45.4988 21.7026 44.6639 21.5355H44.2465H38.487ZM22.9619 36.8102C22.127 36.8102 21.3759 37.5613 21.4598 38.3963V38.4795V44.239C21.3766 45.0739 21.9605 45.825 22.7954 45.9921C23.6304 46.0754 24.3815 45.4914 24.5486 44.6565V44.239V38.4796C24.6318 37.6446 23.964 36.8104 23.1297 36.7264C23.0453 36.8103 22.9619 36.8102 22.9619 36.8102ZM39.1548 6.76168C38.4869 6.09386 37.4016 6.09386 36.7345 6.76168L32.6444 10.8518C31.9766 11.5196 31.9766 12.6049 32.6444 13.272C33.3122 13.9399 34.3975 13.9399 35.0647 13.272L39.1548 9.18196C39.9058 8.59798 39.9058 7.51275 39.1548 6.76168C39.238 6.84494 39.238 6.84494 39.1548 6.76168ZM9.10623 6.76168C8.43841 6.09386 7.35309 6.09386 6.68595 6.76168C6.01813 7.4295 6.01813 8.51481 6.68595 9.18196L10.776 13.272C11.4439 13.9399 12.5292 13.9399 13.1963 13.272C13.8641 12.6042 13.8641 11.5189 13.1963 10.8518L9.10623 6.76168ZM35.1483 32.8038C34.4805 32.1359 33.3952 32.1359 32.728 32.8038C32.0602 33.4716 32.0602 34.5569 32.728 35.224L36.8181 39.3141C37.4859 39.9819 38.5712 39.9819 39.2384 39.3141C39.9062 38.6463 39.9062 37.561 39.2384 36.8938L35.1483 32.8038ZM13.1962 32.8038C12.5283 32.1359 11.443 32.1359 10.7759 32.8038L6.6858 36.8938C6.01798 37.5617 6.01798 38.647 6.6858 39.3141C7.35362 39.9819 8.43893 39.9819 9.10608 39.3141L13.1962 35.224C13.864 34.5568 13.864 33.4715 13.1962 32.8038Z" fill="#dc3545"/>
</svg>
