<svg width="52" height="52" viewBox="0 0 52 52" fill="none" xmlns="http://www.w3.org/2000/svg">
<g clip-path="url(#clip0_57_1232)">
<path fill-rule="evenodd" clip-rule="evenodd" d="M51.9575 24.5C51.2277 11.6701 41.1953 1.3298 28.5 0.118641V24.5H51.9575ZM52 26H28.5H27V24.5V0.0188768C26.6682 0.00632997 26.3349 0 26 0C11.6406 0 0 11.6406 0 26C0 40.3594 11.6406 52 26 52C40.3594 52 52 40.3594 52 26Z" fill="white"/>
<path d="M13.4944 41C15.3654 41 16.6333 39.9353 16.6333 38.2884C16.6333 36.4917 15.1798 35.9926 13.8346 35.5933C12.6131 35.2107 12.1956 35.0444 12.1956 34.4954C12.1956 34.0129 12.7059 33.7301 13.3707 33.7301C14.0665 33.7301 14.886 33.9963 15.6437 34.512L16.4322 33.0314C15.5664 32.4159 14.4686 32 13.3707 32C11.5926 32 10.3556 33.098 10.3556 34.7116C10.3711 36.2421 11.4689 36.7745 13.2007 37.2569C14.1129 37.5231 14.8087 37.7394 14.8087 38.4048C14.8087 38.9372 14.283 39.2865 13.5254 39.2865C12.5203 39.2865 11.6235 38.8872 10.8504 38.2884L10 39.7024C10.9587 40.5342 12.2729 41 13.4944 41Z" fill="#FB8019"/>
<path d="M22.2768 41C23.5447 41 24.6116 40.4344 25.3847 39.5527L24.1168 38.3715C23.6684 38.9205 22.9881 39.2699 22.2923 39.2699C20.978 39.2699 19.8802 38.0055 19.8802 36.4917C19.8802 34.9945 20.978 33.7301 22.2923 33.7301C22.9726 33.7301 23.6375 34.0795 24.0704 34.5952L25.3383 33.3974C24.5807 32.549 23.5138 32 22.3078 32C19.973 32 18.0093 34.0462 18.0093 36.4917C18.0093 38.9372 19.973 41 22.2768 41Z" fill="#FB8019"/>
<path d="M29.9756 41C31.8465 41 33.1144 39.9353 33.1144 38.2884C33.1144 36.4917 31.661 35.9926 30.3158 35.5933C29.0943 35.2107 28.6768 35.0444 28.6768 34.4954C28.6768 34.0129 29.187 33.7301 29.8519 33.7301C30.5477 33.7301 31.3672 33.9963 32.1248 34.512L32.9134 33.0314C32.0475 32.4159 30.9497 32 29.8519 32C28.0738 32 26.8368 33.098 26.8368 34.7116C26.8523 36.2421 27.9501 36.7745 29.6818 37.2569C30.5941 37.5231 31.2899 37.7394 31.2899 38.4048C31.2899 38.9372 30.7642 39.2865 30.0065 39.2865C29.0015 39.2865 28.1047 38.8872 27.3316 38.2884L26.4812 39.7024C27.4398 40.5342 28.7541 41 29.9756 41Z" fill="#FB8019"/>
<path d="M37.8612 41C39.7321 41 41 39.9353 41 38.2884C41 36.4917 39.5466 35.9926 38.2014 35.5933C36.9798 35.2107 36.5624 35.0444 36.5624 34.4954C36.5624 34.0129 37.0726 33.7301 37.7375 33.7301C38.4333 33.7301 39.2528 33.9963 40.0104 34.512L40.799 33.0314C39.9331 32.4159 38.8353 32 37.7375 32C35.9593 32 34.7224 33.098 34.7224 34.7116C34.7378 36.2421 35.8356 36.7745 37.5674 37.2569C38.4797 37.5231 39.1755 37.7394 39.1755 38.4048C39.1755 38.9372 38.6498 39.2865 37.8921 39.2865C36.8871 39.2865 35.9903 38.8872 35.2172 38.2884L34.3667 39.7024C35.3254 40.5342 36.6397 41 37.8612 41Z" fill="#FB8019"/>
</g>
<defs>
<clipPath id="clip0_57_1232">
<rect width="52" height="52" fill="white"/>
</clipPath>
</defs>
</svg>
