<svg width="47" height="39" viewBox="0 0 47 39" fill="none" xmlns="http://www.w3.org/2000/svg">
<g clip-path="url(#clip0_173_7880)">
<mask id="mask0_173_7880" style="mask-type:luminance" maskUnits="userSpaceOnUse" x="0" y="0" width="47" height="39">
<path d="M47 0H0V39H47V0Z" fill="white"/>
</mask>
<g mask="url(#mask0_173_7880)">
<path d="M5.18478 5.09676C5.0961 2.44515 7.08011 0 9.76186 0H37.2415C39.9233 0 41.9073 2.44515 41.8186 5.09676C41.7334 7.6439 41.844 10.9434 42.6415 13.6338C43.4415 16.3324 44.7905 18.0382 47 18.2574V20.7426C44.7905 20.9618 43.4415 22.6676 42.6415 25.3662C41.844 28.0566 41.7334 31.3561 41.8186 33.9033C41.9073 36.5549 39.9233 39 37.2415 39H9.76186C7.08011 39 5.0961 36.5549 5.18487 33.9033C5.26997 31.3561 5.15935 28.0566 4.36182 25.3662C3.5619 22.6676 2.20955 20.9618 0 20.7426V18.2574C2.20946 18.0382 3.5619 16.3324 4.36182 13.6338C5.15935 10.9434 5.26997 7.6439 5.18478 5.09676Z" fill="white"/>
<g filter="url(#filter0_d_173_7880)">
<path d="M24.5185 29.8672C28.8602 29.8672 31.4765 27.6535 31.4765 24.0023C31.4765 21.2424 29.6098 19.2443 26.8379 18.928V18.813C28.8744 18.4681 30.4725 16.4988 30.4725 14.2995C30.4725 11.1658 28.0966 9.12451 24.4761 9.12451H16.3301V29.8672H24.5185ZM19.498 11.7551H23.7125C26.0035 11.7551 27.3046 12.8188 27.3046 14.745C27.3046 16.8006 25.7914 17.9506 23.0478 17.9506H19.498V11.7551ZM19.498 27.2367V20.4087H23.6841C26.6823 20.4087 28.238 21.5586 28.238 23.8011C28.238 26.0435 26.7248 27.2367 23.868 27.2367H19.498Z" fill="#FB8B2E"/>
<path d="M24.5185 29.8672C28.8602 29.8672 31.4765 27.6535 31.4765 24.0023C31.4765 21.2424 29.6098 19.2443 26.8379 18.928V18.813C28.8744 18.4681 30.4725 16.4988 30.4725 14.2995C30.4725 11.1658 28.0966 9.12451 24.4761 9.12451H16.3301V29.8672H24.5185ZM19.498 11.7551H23.7125C26.0035 11.7551 27.3046 12.8188 27.3046 14.745C27.3046 16.8006 25.7914 17.9506 23.0478 17.9506H19.498V11.7551ZM19.498 27.2367V20.4087H23.6841C26.6823 20.4087 28.238 21.5586 28.238 23.8011C28.238 26.0435 26.7248 27.2367 23.868 27.2367H19.498Z" fill="#FB8B2E"/>
</g>
</g>
</g>
<defs>
<filter id="filter0_d_173_7880" x="0.330078" y="-2.87549" width="47.1465" height="52.7427" filterUnits="userSpaceOnUse" color-interpolation-filters="sRGB">
<feFlood flood-opacity="0" result="BackgroundImageFix"/>
<feColorMatrix in="SourceAlpha" type="matrix" values="0 0 0 0 0 0 0 0 0 0 0 0 0 0 0 0 0 0 127 0" result="hardAlpha"/>
<feOffset dy="4"/>
<feGaussianBlur stdDeviation="8"/>
<feColorMatrix type="matrix" values="0 0 0 0 0 0 0 0 0 0 0 0 0 0 0 0 0 0 0.15 0"/>
<feBlend mode="normal" in2="BackgroundImageFix" result="effect1_dropShadow_173_7880"/>
<feBlend mode="normal" in="SourceGraphic" in2="effect1_dropShadow_173_7880" result="shape"/>
</filter>
<clipPath id="clip0_173_7880">
<rect width="47" height="39" fill="white"/>
</clipPath>
</defs>
</svg>
