<svg width="290" height="306" viewBox="0 0 290 306" fill="none" xmlns="http://www.w3.org/2000/svg">
<path d="M143.74 305.397C165.856 305.396 187.475 298.836 205.863 286.549C224.251 274.261 238.582 256.796 247.045 236.363C255.508 215.931 257.721 193.447 253.406 171.756C249.09 150.065 238.44 130.141 222.801 114.504C207.162 98.8656 187.238 88.2163 165.547 83.9021C143.856 79.588 121.372 81.8028 100.94 90.2665C80.5076 98.7301 63.0438 113.063 50.757 131.451C38.4702 149.84 31.9121 171.459 31.9121 193.575C31.9121 208.261 34.8047 222.802 40.4246 236.369C46.0446 249.936 54.2818 262.264 64.6661 272.647C75.0503 283.031 87.3782 291.268 100.946 296.887C114.513 302.506 129.055 305.398 143.74 305.397V305.397Z" fill="url(#paint0_linear_2052_4976)"/>
<path d="M175.384 140H98.0966C95.7891 140.003 93.577 140.921 91.9453 142.553C90.3137 144.184 89.3957 146.397 89.3926 148.704H184.127C184.115 146.392 183.189 144.179 181.551 142.548C179.913 140.917 177.695 140.001 175.384 140V140Z" fill="url(#paint1_linear_2052_4976)"/>
<path d="M89.3926 148.471H184.127V220.629C184.128 222.216 183.817 223.788 183.21 225.255C182.603 226.722 181.713 228.055 180.59 229.177C179.468 230.3 178.135 231.19 176.668 231.796C175.201 232.403 173.629 232.715 172.042 232.713H101.477C99.8898 232.715 98.3177 232.403 96.8508 231.796C95.3839 231.19 94.0511 230.3 92.9287 229.177C91.8062 228.055 90.9161 226.722 90.3093 225.255C89.7026 223.788 89.3911 222.216 89.3926 220.629V148.471Z" fill="url(#paint2_linear_2052_4976)"/>
<path d="M167.807 157.602H105.674C105.056 157.602 104.463 157.848 104.026 158.285C103.588 158.722 103.343 159.315 103.343 159.933C103.343 160.552 103.588 161.145 104.026 161.582C104.463 162.019 105.056 162.265 105.674 162.265H167.807C168.425 162.265 169.018 162.019 169.456 161.582C169.893 161.145 170.138 160.552 170.138 159.933C170.144 159.626 170.088 159.32 169.973 159.034C169.858 158.749 169.686 158.49 169.468 158.272C169.251 158.054 168.991 157.883 168.706 157.768C168.42 157.653 168.115 157.596 167.807 157.602V157.602Z" fill="url(#paint3_linear_2052_4976)"/>
<path d="M167.807 177.458H105.674C105.056 177.458 104.463 177.704 104.026 178.141C103.588 178.579 103.343 179.172 103.343 179.79C103.343 180.408 103.588 181.001 104.026 181.438C104.463 181.876 105.056 182.121 105.674 182.121H167.807C168.425 182.121 169.018 181.876 169.456 181.438C169.893 181.001 170.138 180.408 170.138 179.79C170.144 179.482 170.088 179.176 169.973 178.891C169.858 178.605 169.686 178.346 169.468 178.128C169.251 177.911 168.991 177.739 168.706 177.624C168.42 177.509 168.115 177.453 167.807 177.458V177.458Z" fill="url(#paint4_linear_2052_4976)"/>
<path d="M167.807 197.354H105.674C105.056 197.354 104.463 197.6 104.026 198.037C103.588 198.474 103.343 199.067 103.343 199.685C103.343 200.304 103.588 200.897 104.026 201.334C104.463 201.771 105.056 202.017 105.674 202.017H167.807C168.425 202.017 169.018 201.771 169.456 201.334C169.893 200.897 170.138 200.304 170.138 199.685C170.144 199.378 170.088 199.072 169.973 198.786C169.858 198.501 169.686 198.242 169.468 198.024C169.251 197.806 168.991 197.635 168.706 197.52C168.42 197.404 168.115 197.348 167.807 197.354V197.354Z" fill="url(#paint5_linear_2052_4976)"/>
<path d="M167.807 217.249H105.674C105.056 217.249 104.463 217.495 104.026 217.932C103.588 218.369 103.343 218.962 103.343 219.58C103.343 220.199 103.588 220.792 104.026 221.229C104.463 221.666 105.056 221.912 105.674 221.912H167.807C168.425 221.912 169.018 221.666 169.456 221.229C169.893 220.792 170.138 220.199 170.138 219.58C170.138 218.962 169.893 218.369 169.456 217.932C169.018 217.495 168.425 217.249 167.807 217.249V217.249Z" fill="url(#paint6_linear_2052_4976)"/>
<path d="M184.554 218.997L175.578 228.906L200.874 251.87L209.85 241.962L184.554 218.997Z" fill="url(#paint7_linear_2052_4976)"/>
<path fill-rule="evenodd" clip-rule="evenodd" d="M194.036 202.6C194.036 210.016 191.836 217.266 187.716 223.432C183.596 229.599 177.74 234.405 170.888 237.243C164.036 240.081 156.497 240.823 149.223 239.377C141.949 237.93 135.268 234.358 130.024 229.114C124.78 223.87 121.208 217.189 119.762 209.915C118.315 202.641 119.057 195.102 121.895 188.25C124.733 181.398 129.54 175.542 135.706 171.422C141.872 167.302 149.122 165.103 156.538 165.103C161.463 165.102 166.339 166.072 170.888 167.956C175.438 169.84 179.572 172.602 183.054 176.084C186.536 179.566 189.298 183.7 191.182 188.25C193.066 192.799 194.036 197.675 194.036 202.6V202.6ZM188.285 202.6C188.285 208.879 186.423 215.016 182.934 220.237C179.446 225.458 174.488 229.527 168.687 231.93C162.886 234.332 156.503 234.961 150.345 233.736C144.187 232.511 138.53 229.488 134.09 225.048C129.65 220.608 126.627 214.951 125.402 208.793C124.177 202.635 124.806 196.252 127.208 190.451C129.611 184.65 133.68 179.692 138.901 176.204C144.122 172.715 150.259 170.853 156.538 170.853C164.957 170.856 173.03 174.202 178.983 180.155C184.936 186.108 188.282 194.181 188.285 202.6V202.6Z" fill="url(#paint8_linear_2052_4976)"/>
<path d="M156.576 234.345C162.855 234.345 168.993 232.483 174.214 228.995C179.434 225.507 183.503 220.549 185.906 214.748C188.309 208.947 188.938 202.564 187.713 196.406C186.488 190.247 183.464 184.591 179.025 180.151C174.585 175.711 168.928 172.687 162.77 171.463C156.612 170.238 150.229 170.866 144.428 173.269C138.627 175.672 133.669 179.741 130.18 184.962C126.692 190.182 124.83 196.32 124.83 202.599C124.833 211.018 128.179 219.091 134.132 225.044C140.085 230.997 148.158 234.342 156.576 234.345V234.345Z" fill="url(#paint9_linear_2052_4976)" fill-opacity="0.2"/>
<path d="M164.193 202.6L173.286 193.508C174.13 192.601 174.59 191.401 174.568 190.162C174.546 188.923 174.045 187.74 173.169 186.863C172.289 185.989 171.106 185.488 169.866 185.464C168.632 185.463 167.441 185.92 166.524 186.747L157.432 195.839L148.339 186.747C147.897 186.286 147.369 185.916 146.785 185.659C146.2 185.393 145.563 185.26 144.92 185.27C144.282 185.27 143.649 185.388 143.055 185.62C142.458 185.858 141.916 186.215 141.461 186.669C140.999 187.117 140.641 187.66 140.412 188.262C140.177 188.856 140.058 189.489 140.063 190.127C140.075 190.768 140.207 191.4 140.451 191.992C140.718 192.571 141.087 193.098 141.539 193.547L150.632 202.639L141.656 211.693C141.195 212.135 140.825 212.663 140.568 213.247C140.302 213.833 140.169 214.47 140.179 215.112C140.179 215.751 140.297 216.383 140.529 216.978C140.767 217.574 141.124 218.116 141.578 218.571C142.026 219.033 142.57 219.391 143.171 219.62C143.765 219.855 144.398 219.974 145.036 219.97C145.677 219.957 146.309 219.825 146.901 219.581C147.486 219.324 148.014 218.954 148.456 218.493L157.548 209.4L166.641 218.493C167.086 218.898 167.607 219.21 168.174 219.41C168.742 219.611 169.343 219.695 169.944 219.659C170.851 219.633 171.731 219.35 172.482 218.841C173.233 218.332 173.823 217.619 174.182 216.786C174.541 215.953 174.655 215.035 174.51 214.139C174.365 213.244 173.967 212.409 173.363 211.732L164.193 202.6Z" fill="url(#paint10_linear_2052_4976)"/>
<path d="M157.626 223.426C169.945 223.426 179.93 221.947 179.93 220.123C179.93 218.299 169.945 216.82 157.626 216.82C145.308 216.82 135.322 218.299 135.322 220.123C135.322 221.947 145.308 223.426 157.626 223.426Z" fill="#EE2626" fill-opacity="0.18"/>
<path d="M200.874 251.831L209.85 241.923L211.21 243.166C211.862 243.754 212.39 244.465 212.763 245.259C213.137 246.053 213.349 246.914 213.386 247.79C213.463 249.557 212.85 251.285 211.676 252.609V252.609C211.089 253.26 210.377 253.788 209.583 254.162C208.789 254.535 207.929 254.747 207.052 254.785C205.285 254.862 203.557 254.249 202.234 253.075L200.874 251.831V251.831Z" fill="url(#paint11_linear_2052_4976)"/>
<path d="M170.444 60.0162C170.373 59.7415 170.376 59.4531 170.452 59.1798C170.528 58.9066 170.675 58.6583 170.878 58.46C171.08 58.2616 171.332 58.1203 171.607 58.0501C171.882 57.98 172.17 57.9835 172.443 58.0604L180.54 60.3276C180.813 60.4039 181.061 60.5508 181.26 60.7536C181.458 60.9563 181.599 61.2077 181.669 61.4824C181.739 61.7572 181.736 62.0455 181.659 62.3184C181.582 62.5914 181.435 62.8392 181.232 63.037L175.24 68.8981C175.037 69.0961 174.785 69.2371 174.511 69.3069C174.236 69.3768 173.948 69.373 173.675 69.2959C173.402 69.2189 173.154 69.0713 172.957 68.8681C172.759 68.6648 172.618 68.4131 172.549 68.1382L170.444 60.0162Z" fill="#FFBE88"/>
<path d="M260.237 0.912362C260.299 0.652493 260.447 0.421114 260.658 0.255575C260.868 0.0900364 261.128 0 261.396 0C261.664 0 261.924 0.0900364 262.135 0.255575C262.345 0.421114 262.493 0.652493 262.555 0.912362L263.544 4.99301C263.595 5.20534 263.704 5.39942 263.859 5.55383C264.014 5.70824 264.209 5.81696 264.422 5.86798L268.515 6.85375C268.767 6.92244 268.989 7.07184 269.148 7.27896C269.307 7.48608 269.393 7.73943 269.393 8C269.393 8.26057 269.307 8.51392 269.148 8.72103C268.989 8.92815 268.767 9.07756 268.515 9.14625L264.422 10.132C264.209 10.183 264.014 10.2918 263.859 10.4462C263.704 10.6006 263.595 10.7947 263.544 11.007L262.555 15.0876C262.493 15.3475 262.345 15.5789 262.135 15.7444C261.924 15.91 261.664 16 261.396 16C261.128 16 260.868 15.91 260.658 15.7444C260.447 15.5789 260.299 15.3475 260.237 15.0876L259.252 11.007C259.2 10.7946 259.09 10.6006 258.934 10.4462C258.779 10.2919 258.584 10.1832 258.37 10.132L254.281 9.14625C254.027 9.08019 253.801 8.93182 253.641 8.72439C253.48 8.51695 253.393 8.26218 253.393 8C253.393 7.73782 253.48 7.48305 253.641 7.27561C253.801 7.06818 254.027 6.91981 254.281 6.85375L258.37 5.86798C258.584 5.81679 258.779 5.70808 258.934 5.55376C259.09 5.39943 259.2 5.20544 259.252 4.99301L260.237 0.912362Z" fill="#FFBE88"/>
<path d="M30.8035 9.25329C30.889 8.89631 31.0929 8.57847 31.3821 8.35107C31.6713 8.12367 32.029 8 32.3975 8C32.766 8 33.1237 8.12367 33.413 8.35107C33.7022 8.57847 33.906 8.89631 33.9916 9.25329L35.3511 14.8588C35.4209 15.1508 35.5707 15.4177 35.7837 15.6299C35.9968 15.8421 36.2648 15.9912 36.5579 16.0608L42.1857 17.4149C42.5324 17.5093 42.8383 17.7145 43.0564 17.999C43.2744 18.2835 43.3926 18.6316 43.3926 18.9895C43.3926 19.3475 43.2744 19.6955 43.0564 19.98C42.8383 20.2645 42.5324 20.4697 42.1857 20.5641L36.5579 21.9183C36.2648 21.9878 35.9968 22.1369 35.7837 22.3491C35.5707 22.5613 35.4209 22.8282 35.3511 23.1202L34.0179 28.7467C33.9324 29.1037 33.7285 29.4215 33.4393 29.6489C33.1501 29.8763 32.7924 30 32.4239 30C32.0554 30 31.6977 29.8763 31.4085 29.6489C31.1192 29.4215 30.9154 29.1037 30.8298 28.7467L29.4492 23.1517C29.3773 22.8599 29.2262 22.5934 29.0125 22.3814C28.7987 22.1694 28.5305 22.0201 28.2372 21.9497L22.6146 20.5956C22.2646 20.5048 21.9548 20.301 21.7337 20.0161C21.5126 19.7311 21.3926 19.3812 21.3926 19.021C21.3926 18.6608 21.5126 18.3109 21.7337 18.0259C21.9548 17.741 22.2646 17.5371 22.6146 17.4464L28.2214 16.0608C28.5147 15.9904 28.7829 15.8411 28.9967 15.6291C29.2104 15.4171 29.3615 15.1507 29.4334 14.8588L30.8035 9.25329Z" fill="#FFBE88"/>
<path d="M40.2745 112.441C40.2745 113.319 40.0141 114.178 39.5261 114.908C39.0381 115.639 38.3445 116.208 37.533 116.544C36.7215 116.88 35.8286 116.968 34.9672 116.797C34.1057 116.625 33.3144 116.202 32.6933 115.581C32.0722 114.96 31.6493 114.169 31.4779 113.307C31.3066 112.446 31.3945 111.553 31.7306 110.741C32.0668 109.93 32.636 109.236 33.3663 108.748C34.0966 108.26 34.9552 108 35.8336 108C37.0114 108 38.1409 108.468 38.9738 109.301C39.8066 110.134 40.2745 111.263 40.2745 112.441V112.441Z" stroke="#FFA358" stroke-width="2"/>
<path d="M133.985 12.3061C134.658 8.16174 131.843 4.2567 127.699 3.58397C123.555 2.91124 119.65 5.72557 118.977 9.86996C118.304 14.0143 121.118 17.9194 125.263 18.5921C129.407 19.2648 133.312 16.4505 133.985 12.3061Z" stroke="#FFA358"/>
<path d="M283.827 77.8695C286.277 77.8695 288.262 75.884 288.262 73.4347C288.262 70.9855 286.277 69 283.827 69C281.378 69 279.393 70.9855 279.393 73.4347C279.393 75.884 281.378 77.8695 283.827 77.8695Z" stroke="#FFA358" stroke-width="2"/>
<defs>
<linearGradient id="paint0_linear_2052_4976" x1="142.874" y1="45.3417" x2="145.166" y2="438.04" gradientUnits="userSpaceOnUse">
<stop stop-color="#FFEAD9" stop-opacity="0"/>
<stop offset="1" stop-color="#FFC28F"/>
</linearGradient>
<linearGradient id="paint1_linear_2052_4976" x1="188.285" y1="159.983" x2="93.4918" y2="117.967" gradientUnits="userSpaceOnUse">
<stop offset="0.00777689" stop-color="#FF8D2F"/>
<stop offset="1" stop-color="#FFD3B0"/>
</linearGradient>
<linearGradient id="paint2_linear_2052_4976" x1="239.525" y1="262.463" x2="96.0537" y2="151.273" gradientUnits="userSpaceOnUse">
<stop stop-color="#FF8D2F"/>
<stop offset="1" stop-color="#FFD3B0"/>
</linearGradient>
<linearGradient id="paint3_linear_2052_4976" x1="191.626" y1="154.266" x2="187.677" y2="132.662" gradientUnits="userSpaceOnUse">
<stop stop-color="#FF8D2F"/>
<stop offset="1" stop-color="#FFD3B0"/>
</linearGradient>
<linearGradient id="paint4_linear_2052_4976" x1="191.626" y1="174.122" x2="187.677" y2="152.518" gradientUnits="userSpaceOnUse">
<stop stop-color="#FF8D2F"/>
<stop offset="1" stop-color="#FFD3B0"/>
</linearGradient>
<linearGradient id="paint5_linear_2052_4976" x1="193.41" y1="205.074" x2="191.678" y2="182.6" gradientUnits="userSpaceOnUse">
<stop stop-color="#FF8D2F"/>
<stop offset="1" stop-color="#FFD3B0"/>
</linearGradient>
<linearGradient id="paint6_linear_2052_4976" x1="191.625" y1="213.913" x2="187.677" y2="192.311" gradientUnits="userSpaceOnUse">
<stop stop-color="#FF8D2F"/>
<stop offset="1" stop-color="#FFD3B0"/>
</linearGradient>
<linearGradient id="paint7_linear_2052_4976" x1="206.219" y1="231.719" x2="187.261" y2="249.653" gradientUnits="userSpaceOnUse">
<stop offset="0.00777689" stop-color="#FF8D2F"/>
<stop offset="1" stop-color="#FFD3B0"/>
</linearGradient>
<linearGradient id="paint8_linear_2052_4976" x1="247.211" y1="141.025" x2="103.079" y2="65.4087" gradientUnits="userSpaceOnUse">
<stop stop-color="#FF8D2F"/>
<stop offset="1" stop-color="#FFD3B0"/>
</linearGradient>
<linearGradient id="paint9_linear_2052_4976" x1="145.922" y1="174.964" x2="177.905" y2="257.951" gradientUnits="userSpaceOnUse">
<stop stop-color="white"/>
<stop offset="1" stop-color="#D2F7FF"/>
</linearGradient>
<linearGradient id="paint10_linear_2052_4976" x1="140.735" y1="187.174" x2="179.575" y2="226.596" gradientUnits="userSpaceOnUse">
<stop stop-color="#FF7171"/>
<stop offset="1" stop-color="#E70606"/>
</linearGradient>
<linearGradient id="paint11_linear_2052_4976" x1="205.194" y1="243.504" x2="207.244" y2="257.339" gradientUnits="userSpaceOnUse">
<stop offset="0.00777689" stop-color="#FF8D2F"/>
<stop offset="1" stop-color="#FFD3B0"/>
</linearGradient>
</defs>
</svg>
