<svg width="20" height="20" viewBox="0 0 20 20" fill="none" xmlns="http://www.w3.org/2000/svg">
<mask id="mask0_91_588" style="mask-type:luminance" maskUnits="userSpaceOnUse" x="0" y="0" width="20" height="20">
<path d="M0 3.8147e-06H20V20H0V3.8147e-06Z" fill="white"/>
</mask>
<g mask="url(#mask0_91_588)">
<path d="M18.633 11.5663C19.3153 12.145 19.706 12.8156 19.7071 13.5301C19.7102 15.7058 16.0973 16.2843 11.6379 16.2781C8.75823 16.2742 6.22971 16.0277 4.79842 15.2675M10.8391 9.59682C11.0981 9.58471 11.3609 9.57885 11.6266 9.57928C13.9151 9.58248 15.9818 10.0498 17.4522 10.798M8.51954 12.1066C8.56642 12.5144 8.57033 12.9293 8.53048 13.3445C8.49298 13.7367 8.16603 14.0293 7.78322 14.0288C7.75861 14.0288 7.734 14.0277 7.709 14.0249C7.39572 13.9933 7.14611 13.773 7.06056 13.4863M11.6066 9.57927C11.9809 10.1527 12.3063 10.8523 12.4664 11.6793C12.5719 12.2246 12.5984 12.7867 12.5441 13.3499C12.5066 13.7421 12.1797 14.0351 11.7973 14.0343C11.7727 14.0343 11.7477 14.0332 11.7227 14.0308C11.309 13.989 11.0063 13.6171 11.0461 13.1996C11.0859 12.7828 11.0668 12.3679 10.9891 11.9667C10.859 11.2945 10.577 10.7301 10.2586 10.2761M13.9282 9.74498C14.3662 10.2765 14.8158 11.0295 14.9564 11.9818C15.016 12.3859 15.0166 12.8011 14.9579 13.2158C14.8992 13.6309 15.1853 14.0163 15.5967 14.0767C15.6216 14.0803 15.6463 14.0827 15.6708 14.0838C16.053 14.1019 16.3929 13.8244 16.448 13.4344C16.5272 12.8742 16.5262 12.3116 16.4451 11.7621C16.36 11.186 16.1932 10.6674 15.9835 10.207M0.829229 11.6378C1.29622 11.7486 1.78985 11.9401 2.26216 12.259C2.60063 12.4877 2.90751 12.7674 3.17407 13.0905C3.44095 13.414 3.91825 13.4628 4.24013 13.1996C4.25958 13.1837 4.27798 13.1671 4.2954 13.1497C4.56626 12.8796 4.59052 12.4413 4.33978 12.1374C3.97966 11.701 3.56368 11.3221 3.10333 11.0112C2.57981 10.6576 2.0413 10.4208 1.52212 10.2648M5.31388 7.80703C4.81853 7.55809 4.32205 7.39844 3.85263 7.29981M2.62711 8.66958C3.33473 8.68837 4.25422 8.85071 5.10426 9.42477C5.44278 9.65341 5.74961 9.93313 6.01618 10.2562C6.28305 10.5797 6.76036 10.6285 7.08223 10.3653C7.10168 10.3494 7.12008 10.3328 7.13751 10.3154C7.40836 10.0453 7.43262 9.60704 7.18188 9.30317C6.95915 9.03321 6.71497 8.78524 6.45219 8.56177M5.61133 5.7754C6.29688 5.84158 7.14719 6.05615 7.92001 6.63009C8.24794 6.87365 8.54188 7.16685 8.79364 7.5015C9.04567 7.83654 9.52047 7.90681 9.85411 7.65857C9.87426 7.64357 9.8934 7.62779 9.91157 7.61123C10.1946 7.35369 10.2386 6.91716 10.0019 6.60244C9.6618 6.1504 9.26329 5.75326 8.81731 5.42197C8.34985 5.07478 7.86512 4.82607 7.39129 4.64884M12.3739 4.36553C13.9145 5.9019 11.7692 8.86561 8.6114 12.0147C5.45362 15.1638 2.47921 17.3057 0.938585 15.7693C-0.602001 14.233 0.708937 10.4346 3.86671 7.28557C7.02448 4.13651 10.8333 2.82916 12.3739 4.36553Z" stroke="white" stroke-width="0.6" stroke-miterlimit="10" stroke-linecap="round" stroke-linejoin="round"/>
</g>
</svg>
