<svg width="20" height="20" viewBox="0 0 20 20" fill="none" xmlns="http://www.w3.org/2000/svg">
<path d="M11.4577 13.1082C9.47788 14.767 7.49564 12.9095 6.752 11.7735C4.50009 8.97967 0.625129 13.6249 7.17444 17.2362C20.1251 22.1249 19.5026 5.26758 14.6864 4.73721C9.87033 4.20684 9.96922 7.67583 11.0733 8.97967C12.1773 10.2835 12.8816 11.5987 11.4577 13.1082Z" fill="white"/>
<path d="M8.68449 13.4042C8.82138 13.3478 8.88665 13.1911 8.83026 13.0542C8.77387 12.9173 8.61719 12.8521 8.48029 12.9085C8.3434 12.9648 8.27813 13.1215 8.33452 13.2584C8.3909 13.3953 8.54759 13.4606 8.68449 13.4042Z" fill="#8D8F91"/>
<path d="M9.53507 13.8927C9.67197 13.8363 9.73723 13.6796 9.68085 13.5427C9.62446 13.4058 9.46777 13.3405 9.33088 13.3969C9.19398 13.4533 9.12872 13.61 9.1851 13.7469C9.24149 13.8838 9.39818 13.9491 9.53507 13.8927Z" fill="#8D8F91"/>
<path d="M10.7372 12.9433C10.8741 12.8869 10.9394 12.7303 10.883 12.5934C10.8266 12.4565 10.6699 12.3912 10.533 12.4476C10.3961 12.504 10.3309 12.6607 10.3873 12.7976C10.4436 12.9344 10.6003 12.9997 10.7372 12.9433Z" fill="#8D8F91"/>
<path d="M11.0058 14.0355C11.1427 13.9791 11.2079 13.8224 11.1515 13.6855C11.0952 13.5486 10.9385 13.4834 10.8016 13.5397C10.6647 13.5961 10.5994 13.7528 10.6558 13.8897C10.7122 14.0266 10.8689 14.0919 11.0058 14.0355Z" fill="#8D8F91"/>
<path d="M11.7089 13.2114C11.8458 13.155 11.9111 12.9983 11.8547 12.8614C11.7983 12.7245 11.6416 12.6593 11.5047 12.7157C11.3678 12.772 11.3025 12.9287 11.3589 13.0656C11.4153 13.2025 11.572 13.2678 11.7089 13.2114Z" fill="#8D8F91"/>
<path d="M12.5624 11.8549C12.6993 11.7986 12.7646 11.6419 12.7082 11.505C12.6518 11.3681 12.4951 11.3028 12.3582 11.3592C12.2213 11.4156 12.1561 11.5723 12.2124 11.7092C12.2688 11.8461 12.4255 11.9113 12.5624 11.8549Z" fill="#8D8F91"/>
<path d="M11.8593 11.3148C11.9962 11.2584 12.0615 11.1017 12.0051 10.9648C11.9487 10.8279 11.792 10.7627 11.6551 10.819C11.5182 10.8754 11.4529 11.0321 11.5093 11.169C11.5657 11.3059 11.7224 11.3712 11.8593 11.3148Z" fill="#8D8F91"/>
<path d="M12.9491 11.0465C13.086 10.9901 13.1513 10.8334 13.0949 10.6965C13.0385 10.5596 12.8818 10.4943 12.7449 10.5507C12.608 10.6071 12.5428 10.7638 12.5992 10.9007C12.6556 11.0376 12.8122 11.1029 12.9491 11.0465Z" fill="#8D8F91"/>
<path d="M11.8583 9.55197C11.9952 9.49559 12.0605 9.3389 12.0041 9.202C11.9477 9.06511 11.791 8.99984 11.6541 9.05623C11.5172 9.11261 11.452 9.2693 11.5083 9.4062C11.5647 9.54309 11.7214 9.60836 11.8583 9.55197Z" fill="#8D8F91"/>
<path d="M16.9229 11.0767C17.1189 10.0953 17.0805 9.06316 16.8089 8.00906C16.3582 6.25941 15.4269 5.05562 15.3526 4.96152C14.9773 4.4753 14.5119 4.06589 13.9818 3.75566C13.1839 3.29788 11.9315 2.95046 10.4962 3.89503C10.345 3.9941 10.1989 4.10088 10.0587 4.21496C10.0349 4.23445 10.0151 4.25844 10.0006 4.28557C9.98602 4.31269 9.97695 4.34242 9.97389 4.37305C9.97083 4.40368 9.97383 4.43461 9.98272 4.46408C9.99161 4.49355 10.0062 4.52098 10.0257 4.5448C10.0452 4.56862 10.0692 4.58837 10.0963 4.60292C10.1235 4.61747 10.1532 4.62653 10.1838 4.6296C10.2144 4.63266 10.2454 4.62966 10.2748 4.62076C10.3043 4.61187 10.3317 4.59726 10.3556 4.57777C10.4833 4.47392 10.6163 4.37672 10.754 4.28656C11.742 3.63628 12.7454 3.59203 13.7361 4.15507C13.9325 4.26767 14.119 4.39686 14.2934 4.54124C14.2912 4.54863 14.2895 4.55617 14.2879 4.5639C14.0743 5.68808 13.2787 6.48999 11.9233 6.94746C11.2922 7.15322 10.6361 7.27233 9.97291 7.30152C9.82531 7.13245 9.70449 6.94176 9.61466 6.73609C9.39849 6.23132 9.43662 5.73675 9.72814 5.26601C9.7596 5.21321 9.76906 5.15017 9.75448 5.09046C9.7399 5.03076 9.70246 4.97916 9.65021 4.9468C9.59796 4.91444 9.53509 4.90389 9.47514 4.91744C9.41519 4.93098 9.36296 4.96753 9.3297 5.01921C8.95837 5.6189 8.90783 6.27644 9.18392 6.92066C9.30838 7.20881 9.48381 7.47214 9.70177 7.698C9.79466 7.80929 10.9445 9.21554 10.7822 10.3691C10.724 10.7824 10.5058 11.1085 10.1153 11.3662C9.50923 11.766 8.89837 11.8957 8.29962 11.7516C7.16537 11.4787 6.3647 10.3093 6.16861 9.99742C6.53548 8.48859 6.7197 7.31742 6.71638 6.51507C6.7133 5.77421 6.55232 5.32199 6.22439 5.13246C5.81634 4.89663 5.33287 5.17132 5.06447 5.37199C4.78884 5.03648 4.4272 4.7123 4.05787 4.84402C3.57888 5.01476 3.49365 5.89605 3.48861 6.44679C3.42197 6.43679 3.35394 6.44216 3.28969 6.46247C3.22544 6.48278 3.16669 6.5175 3.11791 6.56398C2.91373 6.76156 2.7906 7.18933 3.42548 8.86367C3.70334 9.5964 4.02646 10.2964 4.12767 10.5121C3.76048 12.8207 4.88869 14.9241 7.08603 16.0143C8.0152 16.4701 9.03681 16.706 10.0718 16.7037C10.425 16.7037 10.7778 16.6763 11.1268 16.6216C12.6459 16.3834 14.021 15.6436 15.1033 14.482C15.2856 14.2865 15.4552 14.087 15.612 13.8835C15.6138 13.8814 15.6154 13.8791 15.6171 13.8768C16.2864 13.0074 16.7249 12.0685 16.9229 11.0767ZM15.2973 13.5235C13.6032 13.8083 11.5169 11.544 11.0604 11.0205C11.1556 10.8368 11.2184 10.6381 11.2463 10.4331C11.2536 10.3803 11.2586 10.3273 11.2619 10.2742C11.6033 10.2721 15.145 10.2227 16.5406 9.12839C16.7179 10.7213 16.3015 12.1936 15.2973 13.5235ZM10.3304 7.74863C10.919 7.69792 11.4998 7.57944 12.0613 7.39554C13.472 6.92253 14.3749 6.06554 14.689 4.90804C14.7912 5.01291 14.887 5.1239 14.9758 5.24038C14.9781 5.24351 14.9804 5.24656 14.9828 5.24956C14.9921 5.26128 15.9203 6.43777 16.3551 8.12597C16.3931 8.27373 16.4263 8.42053 16.4545 8.56636C15.6164 9.57417 12.4137 9.80273 11.2423 9.8057C11.1306 8.98617 10.6465 8.193 10.3304 7.74863ZM6.60302 11.2752C6.6017 11.2777 6.60021 11.2801 6.59912 11.2826C6.26205 11.9847 5.0667 12.4851 4.70533 12.6229C4.51988 11.9682 4.47975 11.2809 4.58775 10.6091C4.76744 10.4841 5.26744 10.1786 5.77134 10.2475C6.00698 10.6217 6.28616 10.9667 6.60302 11.2752ZM3.8831 8.74874C3.34513 7.34351 3.41271 6.98222 3.43955 6.91195C3.50345 6.92262 3.56481 6.94505 3.62052 6.97812C3.65709 6.99718 3.69804 7.00625 3.73923 7.00442C3.78043 7.00259 3.82041 6.98993 3.85514 6.9677C3.88988 6.94548 3.91814 6.91449 3.93706 6.87786C3.95599 6.84122 3.96492 6.80024 3.96295 6.75906C3.95381 6.50623 3.96141 6.25307 3.98568 6.00124C4.05349 5.35046 4.21349 5.2864 4.21509 5.28566C4.2167 5.28492 4.39318 5.24335 4.83947 5.84687C4.85927 5.87357 4.88452 5.89577 4.91354 5.91197C4.94257 5.92818 4.97471 5.93804 5.00783 5.94089C5.04095 5.94374 5.0743 5.93952 5.10567 5.92851C5.13704 5.9175 5.16571 5.89995 5.18978 5.87703C5.35384 5.72078 5.78353 5.41878 5.9899 5.53859C6.14951 5.63117 6.59443 6.21015 5.74021 9.77324C5.22201 9.73554 4.74287 9.9623 4.46677 10.1293C4.33041 9.83183 4.09537 9.3032 3.8831 8.74871V8.74874ZM4.85966 13.0661C5.23927 12.9235 6.49408 12.4023 6.96548 11.5911C7.21745 11.791 7.49583 11.9551 7.79271 12.0789C7.79271 12.08 7.79244 12.081 7.7924 12.0822C7.74162 13.1811 6.5463 14.7578 6.31002 14.9722C5.66955 14.4732 5.16973 13.8164 4.85955 13.0661L4.85966 13.0661ZM6.69326 15.2489C6.92521 15.0063 7.25314 14.5405 7.45498 14.2157C7.78545 13.6839 8.18212 12.9184 8.25185 12.2205C8.60011 12.2963 8.96059 12.2963 9.30884 12.2205C9.60017 12.7284 10.5764 14.63 9.88208 16.2252C9.88095 16.2278 9.88013 16.2305 9.87908 16.233C8.98184 16.2061 8.10066 15.9882 7.29427 15.5939C7.08711 15.4911 6.88637 15.3759 6.69314 15.2489L6.69326 15.2489ZM10.3847 16.2296C10.9979 14.5534 10.1304 12.7271 9.7681 12.078C9.97994 11.9915 10.1826 11.8841 10.3732 11.7574C10.5226 11.6601 10.6597 11.5451 10.7816 11.4149C11.3454 12.0521 13.1566 13.9388 14.8949 14.0141C14.8508 14.0637 14.8061 14.1132 14.7602 14.1625C13.4647 15.5526 11.8878 16.1594 10.3847 16.2296V16.2296Z" fill="#8D8F91"/>
<path d="M16.9229 11.0767C17.1189 10.0953 17.0805 9.06316 16.8089 8.00906C16.3582 6.25941 15.4269 5.05562 15.3526 4.96152C14.9773 4.4753 14.5119 4.06589 13.9818 3.75566C13.1839 3.29788 11.9315 2.95046 10.4962 3.89503C10.345 3.9941 10.1989 4.10088 10.0587 4.21496C10.0349 4.23445 10.0151 4.25844 10.0006 4.28557C9.98602 4.31269 9.97695 4.34242 9.97389 4.37305C9.97083 4.40368 9.97383 4.43461 9.98272 4.46408C9.99161 4.49355 10.0062 4.52098 10.0257 4.5448C10.0452 4.56862 10.0692 4.58837 10.0963 4.60292C10.1235 4.61747 10.1532 4.62653 10.1838 4.6296C10.2144 4.63266 10.2454 4.62966 10.2748 4.62076C10.3043 4.61187 10.3317 4.59726 10.3556 4.57777C10.4833 4.47392 10.6163 4.37672 10.754 4.28656C11.742 3.63628 12.7454 3.59203 13.7361 4.15507C13.9325 4.26767 14.119 4.39686 14.2934 4.54124C14.2912 4.54863 14.2895 4.55617 14.2879 4.5639C14.0743 5.68808 13.2787 6.48999 11.9233 6.94746C11.2922 7.15322 10.6361 7.27233 9.97291 7.30152C9.82531 7.13245 9.70449 6.94176 9.61466 6.73609C9.39849 6.23132 9.43662 5.73675 9.72814 5.26601C9.7596 5.21321 9.76906 5.15017 9.75448 5.09046C9.7399 5.03076 9.70246 4.97916 9.65021 4.9468C9.59796 4.91444 9.53509 4.90389 9.47514 4.91744C9.41519 4.93098 9.36296 4.96753 9.3297 5.01921C8.95837 5.6189 8.90783 6.27644 9.18392 6.92066C9.30838 7.20881 9.48381 7.47214 9.70177 7.698C9.79466 7.80929 10.9445 9.21554 10.7822 10.3691C10.724 10.7824 10.5058 11.1085 10.1153 11.3662C9.50923 11.766 8.89837 11.8957 8.29962 11.7516C7.16537 11.4787 6.3647 10.3093 6.16861 9.99742C6.53548 8.48859 6.7197 7.31742 6.71638 6.51507C6.7133 5.77421 6.55232 5.32199 6.22439 5.13246C5.81634 4.89663 5.33287 5.17132 5.06447 5.37199C4.78884 5.03648 4.4272 4.7123 4.05787 4.84402C3.57888 5.01476 3.49365 5.89605 3.48861 6.44679C3.42197 6.43679 3.35394 6.44216 3.28969 6.46247C3.22544 6.48278 3.16669 6.5175 3.11791 6.56398C2.91373 6.76156 2.7906 7.18933 3.42548 8.86367C3.70334 9.5964 4.02646 10.2964 4.12767 10.5121C3.76048 12.8207 4.88869 14.9241 7.08603 16.0143C8.0152 16.4701 9.03681 16.706 10.0718 16.7037C10.425 16.7037 10.7778 16.6763 11.1268 16.6216C12.6459 16.3834 14.021 15.6436 15.1033 14.482C15.2856 14.2865 15.4552 14.087 15.612 13.8835C15.6138 13.8814 15.6154 13.8791 15.6171 13.8768C16.2864 13.0074 16.7249 12.0685 16.9229 11.0767ZM15.2973 13.5235C13.6032 13.8083 11.5169 11.544 11.0604 11.0205C11.1556 10.8368 11.2184 10.6381 11.2463 10.4331C11.2536 10.3803 11.2586 10.3273 11.2619 10.2742C11.6033 10.2721 15.145 10.2227 16.5406 9.12839C16.7179 10.7213 16.3015 12.1936 15.2973 13.5235ZM10.3304 7.74863C10.919 7.69792 11.4998 7.57944 12.0613 7.39554C13.472 6.92253 14.3749 6.06554 14.689 4.90804C14.7912 5.01291 14.887 5.1239 14.9758 5.24038C14.9781 5.24351 14.9804 5.24656 14.9828 5.24956C14.9921 5.26128 15.9203 6.43777 16.3551 8.12597C16.3931 8.27373 16.4263 8.42053 16.4545 8.56636C15.6164 9.57417 12.4137 9.80273 11.2423 9.8057C11.1306 8.98617 10.6465 8.193 10.3304 7.74863ZM6.60302 11.2752C6.6017 11.2777 6.60021 11.2801 6.59912 11.2826C6.26205 11.9847 5.0667 12.4851 4.70533 12.6229C4.51988 11.9682 4.47975 11.2809 4.58775 10.6091C4.76744 10.4841 5.26744 10.1786 5.77134 10.2475C6.00698 10.6217 6.28616 10.9667 6.60302 11.2752ZM3.8831 8.74874C3.34513 7.34351 3.41271 6.98222 3.43955 6.91195C3.50345 6.92262 3.56481 6.94505 3.62052 6.97812C3.65709 6.99718 3.69804 7.00625 3.73923 7.00442C3.78043 7.00259 3.82041 6.98993 3.85514 6.9677C3.88988 6.94548 3.91814 6.91449 3.93706 6.87786C3.95599 6.84122 3.96492 6.80024 3.96295 6.75906C3.95381 6.50623 3.96141 6.25307 3.98568 6.00124C4.05349 5.35046 4.21349 5.2864 4.21509 5.28566C4.2167 5.28492 4.39318 5.24335 4.83947 5.84687C4.85927 5.87357 4.88452 5.89577 4.91354 5.91197C4.94257 5.92818 4.97471 5.93804 5.00783 5.94089C5.04095 5.94374 5.0743 5.93952 5.10567 5.92851C5.13704 5.9175 5.16571 5.89995 5.18978 5.87703C5.35384 5.72078 5.78353 5.41878 5.9899 5.53859C6.14951 5.63117 6.59443 6.21015 5.74021 9.77324C5.22201 9.73554 4.74287 9.9623 4.46677 10.1293C4.33041 9.83183 4.09537 9.3032 3.8831 8.74871V8.74874ZM4.85966 13.0661C5.23927 12.9235 6.49408 12.4023 6.96548 11.5911C7.21745 11.791 7.49583 11.9551 7.79271 12.0789C7.79271 12.08 7.79244 12.081 7.7924 12.0822C7.74162 13.1811 6.5463 14.7578 6.31002 14.9722C5.66955 14.4732 5.16973 13.8164 4.85955 13.0661L4.85966 13.0661ZM6.69326 15.2489C6.92521 15.0063 7.25314 14.5405 7.45498 14.2157C7.78545 13.6839 8.18212 12.9184 8.25185 12.2205C8.60011 12.2963 8.96059 12.2963 9.30884 12.2205C9.60017 12.7284 10.5764 14.63 9.88208 16.2252C9.88095 16.2278 9.88013 16.2305 9.87908 16.233C8.98184 16.2061 8.10066 15.9882 7.29427 15.5939C7.08711 15.4911 6.88637 15.3759 6.69314 15.2489L6.69326 15.2489ZM10.3847 16.2296C10.9979 14.5534 10.1304 12.7271 9.7681 12.078C9.97994 11.9915 10.1826 11.8841 10.3732 11.7574C10.5226 11.6601 10.6597 11.5451 10.7816 11.4149C11.3454 12.0521 13.1566 13.9388 14.8949 14.0141C14.8508 14.0637 14.8061 14.1132 14.7602 14.1625C13.4647 15.5526 11.8878 16.1594 10.3847 16.2296V16.2296Z" fill="#8D8F91"/>
</svg>
