<svg width="20" height="20" viewBox="0 0 20 20" fill="none" xmlns="http://www.w3.org/2000/svg">
<path d="M6.70421 7.70967C1.75872 8.66375 1.66714 11.6188 2.23954 12.977C2.60592 15.2032 6.51339 15.1634 8.42132 14.8653C8.99372 16.1573 15.8624 19.5363 18.4955 16.5548C21.1285 13.5733 19.8692 9.89611 18.0375 8.90227C16.2059 7.90844 12.8861 6.51706 6.70421 7.70967Z" fill="white"/>
<path d="M17.0118 4.87311C15.1342 3.77647 12.644 3.17249 10 3.17249C8.17223 3.17249 6.37629 3.45209 4.80629 3.98108C4.65332 4.0326 4.57109 4.19842 4.62266 4.35135C4.67418 4.50428 4.84 4.58647 4.99297 4.53502C6.50352 4.02604 8.23492 3.75702 10 3.75702C12.542 3.75702 14.9275 4.33264 16.717 5.37788C18.4571 6.39428 19.4155 7.72854 19.4155 9.13491C19.4155 9.1892 19.412 9.37592 19.4101 9.43002C19.3612 10.7804 18.9707 11.9251 18.2807 12.7401C17.4657 13.7029 16.2336 14.2312 14.6187 14.3102C14.4575 14.3181 14.3332 14.4552 14.3411 14.6164C14.349 14.7776 14.4852 14.9019 14.6473 14.8941C16.4304 14.8068 17.803 14.2092 18.7269 13.1178C18.9812 12.8174 19.1992 12.4792 19.3793 12.108C19.2728 13.1227 18.8236 14.0807 18.1082 14.8148C17.372 15.5704 16.3879 16.0545 15.3374 16.1779C14.9688 16.2212 14.5808 16.2431 14.1843 16.2431C13.6566 16.2431 13.095 16.2051 12.515 16.13C10.6148 15.8839 9.34231 14.7032 8.41313 13.8411C7.65895 13.1414 7.17289 12.7125 6.70402 12.7125C6.66547 12.7125 6.62684 12.7149 6.58609 12.7199C5.9902 12.7927 5.40926 12.8296 4.85934 12.8296C4.18313 12.8297 3.39582 12.7155 2.5825 12.4994C1.47082 12.204 0.675977 11.2296 0.591914 10.0907C0.602617 10.1025 0.613711 10.1142 0.624687 10.126C0.62918 10.1308 0.633594 10.1356 0.638125 10.1404C0.663945 10.1677 0.690586 10.1946 0.71793 10.2212C0.723906 10.227 0.729961 10.2328 0.736016 10.2386C0.764453 10.2658 0.793398 10.2928 0.823398 10.3194C0.858047 10.3501 0.893633 10.3802 0.930078 10.4098C2.05535 11.3205 4.0393 11.6787 6.41066 11.3945C6.42191 11.3931 6.43305 11.392 6.44434 11.3906C6.47148 11.3873 6.49828 11.3849 6.52504 11.3827C6.59863 11.3765 6.67098 11.3738 6.74187 11.3753C7.67684 11.3944 8.39215 12.058 9.20832 12.8153C10.1118 13.6535 11.1358 14.6037 12.6651 14.8017C12.6653 14.8018 12.6655 14.8017 12.6657 14.8018C12.8571 14.8266 13.0479 14.8472 13.2329 14.8631C13.3939 14.8765 13.5353 14.7576 13.5491 14.5968C13.5629 14.436 13.4437 14.2945 13.2829 14.2807C13.106 14.2655 12.9234 14.2458 12.7402 14.222C11.7038 14.0878 10.9254 13.5548 10.2198 12.9433C10.0104 12.7619 9.8073 12.5737 9.60586 12.3867C8.79129 11.6309 8.01469 10.9106 6.97801 10.8033C6.78602 10.7834 6.58512 10.7846 6.37344 10.8104C6.30648 10.8186 6.23992 10.8261 6.17367 10.8333C6.16387 10.8343 6.1541 10.8353 6.1443 10.8364C5.09055 10.9475 4.13 10.9257 3.31086 10.7798C3.29754 10.7773 3.28434 10.7749 3.27117 10.7724C3.25316 10.769 3.23547 10.7655 3.21758 10.7621C2.19395 10.5608 1.59613 10.1961 1.29102 9.94944C1.26379 9.92717 1.23684 9.90475 1.21082 9.88174C0.801055 9.51901 0.584492 9.08409 0.584492 8.62409C0.584492 7.29084 1.73602 5.9828 3.74375 5.03534C3.88973 4.96643 3.95223 4.79225 3.88332 4.64627C3.81441 4.5003 3.64016 4.43776 3.49426 4.50674C1.27363 5.55463 0 7.05534 0 8.62405V9.8903C0 11.3786 1.00023 12.6837 2.43242 13.0642C3.29398 13.2931 4.13324 13.4141 4.85938 13.4141C5.43285 13.4141 6.03766 13.3757 6.65715 13.3001C6.67418 13.298 6.68953 13.2969 6.70402 13.2969C6.9673 13.2969 7.52422 13.8137 8.01555 14.2695C9.00254 15.1853 10.3543 16.4394 12.4399 16.7096C13.0446 16.7879 13.6316 16.8276 14.1843 16.8276C14.6036 16.8276 15.0145 16.8043 15.4056 16.7584C16.5888 16.6194 17.6973 16.074 18.5269 15.2227C19.3589 14.3689 19.8717 13.2463 19.9708 12.0617L19.9745 12.0156C19.9751 12.0088 19.9754 12.0019 19.9754 11.9951L19.9945 9.44272C19.9948 9.38784 20 9.19295 20 9.13491C20 7.51217 18.9388 5.99862 17.0118 4.87311Z" fill="#8D8F91"/>
<path d="M16.383 5.94982C14.6933 4.96295 12.4265 4.41943 10.0001 4.41943C7.61887 4.41943 5.28195 4.94279 3.58859 5.85525C2.10051 6.65705 1.24707 7.66623 1.24707 8.624C1.24707 8.87607 1.37113 9.25244 1.96223 9.61393C2.62742 10.0207 3.65629 10.2447 4.85938 10.2446C5.3118 10.2446 5.79418 10.2137 6.29313 10.1528C6.43055 10.136 6.56883 10.1275 6.70406 10.1275C8.145 10.1275 9.16051 11.0697 10.0565 11.9011C10.8974 12.6813 11.6916 13.4182 12.8253 13.5649C13.3027 13.6268 13.7599 13.6581 14.1844 13.6581C15.8099 13.6581 17.0175 13.2058 17.7737 12.3138C18.5832 11.359 18.7531 10.0581 18.7531 9.13486C18.7531 7.56811 17.2681 6.46689 16.383 5.94982ZM17.3279 11.9358C16.6878 12.6908 15.6302 13.0736 14.1844 13.0736C13.785 13.0736 13.353 13.0439 12.9004 12.9853C11.9521 12.8625 11.2245 12.1873 10.4541 11.4726C9.47926 10.5681 8.37437 9.54299 6.70406 9.54299C6.54523 9.54299 6.38316 9.55295 6.2223 9.5726C5.74676 9.63068 5.2882 9.66014 4.85941 9.66014C3.76242 9.66018 2.84184 9.46666 2.26723 9.11529C1.99855 8.951 1.83164 8.76279 1.83164 8.62408C1.83164 7.90978 2.61113 7.04604 3.86586 6.36994C5.47672 5.50182 7.71258 5.004 10.0001 5.004C12.3245 5.004 14.4866 5.51916 16.0881 6.45467C17.8983 7.51189 18.1686 8.58772 18.1686 9.1349C18.1686 9.96025 18.0227 11.1162 17.3279 11.9358Z" fill="#8D8F91"/>
<path d="M4.98578 6.50037C4.22793 6.50037 3.61133 7.11693 3.61133 7.87482C3.61137 8.63263 4.22793 9.24923 4.98578 9.24923C5.74367 9.24923 6.36023 8.63267 6.36023 7.87482C6.36023 7.11689 5.74367 6.50037 4.98578 6.50037ZM4.98578 8.66466C4.55023 8.66466 4.19586 8.31033 4.19586 7.87478C4.19586 7.43923 4.55023 7.08486 4.98578 7.08486C5.42137 7.08486 5.7757 7.43923 5.7757 7.87478C5.7757 8.31033 5.42133 8.66466 4.98578 8.66466Z" fill="#8D8F91"/>
</svg>
