<svg width="43" height="43" viewBox="0 0 43 43" fill="none" xmlns="http://www.w3.org/2000/svg">
<path d="M28.2749 17.7301C28.0685 16.4229 26.9791 15.4769 25.6718 15.4253V12.4725C25.6718 12.1572 25.4139 11.8992 25.0986 11.8992H23.5965V8.17246H25.7407C26.1992 8.17246 26.6292 8.35026 26.9503 8.67708L28.0512 9.778C28.1659 9.8927 28.3091 9.94429 28.4582 9.94429C28.6072 9.94429 28.7507 9.88694 28.8651 9.778C29.0888 9.55436 29.0888 9.19323 28.8651 8.9696L27.7642 7.86868C27.22 7.32398 26.5033 7.02594 25.7349 7.02594H18.0182C17.7029 7.02594 17.445 7.28389 17.445 7.59919C17.445 7.91449 17.7029 8.17244 18.0182 8.17244H19.635V11.8992H18.1329C17.8176 11.8992 17.5597 12.1571 17.5597 12.4724V15.4251C16.2524 15.4709 15.1632 16.4225 14.9566 17.7183L12.3997 32.522C12.2735 33.3131 12.5029 34.1215 13.0245 34.7294C13.5462 35.3372 14.303 35.6926 15.1057 35.6926H28.1144C28.917 35.6926 29.6739 35.343 30.1955 34.7351C30.7172 34.1273 30.9466 33.3189 30.8146 32.5221L28.2749 17.7301ZM20.7812 8.17246H22.4438V11.8992H20.7812V8.17246ZM18.7058 13.046H24.5195V15.4138H18.7058V13.046ZM29.3299 33.99C29.0261 34.3454 28.5846 34.5462 28.1203 34.5462H15.1054C14.6411 34.5462 14.1996 34.3456 13.8958 33.99C13.5921 33.6346 13.4601 33.1644 13.5347 32.7116L16.0917 17.9079C16.2121 17.1283 16.877 16.5605 17.6684 16.5605H25.5743C26.3654 16.5605 27.0248 17.128 27.151 17.9136L29.7025 32.7001C29.7653 33.1644 29.6336 33.6347 29.3296 33.9901L29.3299 33.99Z" fill="#008893"/>
<path d="M21.6131 21.1992C19.2109 21.1992 17.2615 23.1543 17.2615 25.5508C17.2615 27.9472 19.2166 29.9024 21.6131 29.9024C24.0152 29.9024 25.9704 27.9472 25.9704 25.5508C25.9704 23.1543 24.0153 21.1992 21.6131 21.1992ZM21.6131 28.7616C19.8472 28.7616 18.4082 27.3226 18.4082 25.5568C18.4082 23.791 19.8472 22.3519 21.6131 22.3519C23.3847 22.3519 24.8237 23.791 24.8237 25.5568C24.8237 27.3226 23.3847 28.7616 21.6131 28.7616Z" fill="#008893"/>
</svg>
