<svg width="43" height="43" viewBox="0 0 43 43" fill="none" xmlns="http://www.w3.org/2000/svg">
<path d="M11.7 34.198C12.1537 34.6221 12.7599 34.8441 13.3802 34.8138C14.635 34.8138 16.2309 34.1398 17.7722 32.9211H22.1359V32.911C23.2833 33.9654 25.4579 34.6615 28.0096 34.6615C31.7912 34.6615 34.7535 33.1326 34.7535 31.1807V28.1349C34.7226 27.4553 34.4014 26.8214 33.8717 26.3945H33.8833V16.387C33.8833 14.8325 33.0541 13.3961 31.7078 12.6189C30.3615 11.8417 28.703 11.8417 27.3567 12.6189C26.0104 13.3961 25.1812 14.8325 25.1812 16.387V20.1229L24.0559 18.9977H24.311C24.4264 18.9977 24.5371 18.9518 24.6187 18.8702C24.7002 18.7887 24.7461 18.6779 24.7461 18.5626V16.387C24.7461 16.2716 24.7002 16.1609 24.6187 16.0793C24.5371 15.9978 24.4264 15.9519 24.311 15.9519H23.8759V14.2115C23.8759 13.8654 23.7383 13.5332 23.4936 13.2885C23.2488 13.0438 22.9167 12.9062 22.5706 12.9062V10.078C22.5706 9.37854 22.1974 8.7321 21.5916 8.38222C20.9857 8.03259 20.2394 8.03259 19.6336 8.38222C19.0277 8.73206 18.6546 9.37849 18.6546 10.078V12.9062C18.3084 12.9062 17.9762 13.0437 17.7315 13.2885C17.4868 13.5332 17.3493 13.8654 17.3493 14.2115V15.9519H16.9141C16.6739 15.9519 16.479 16.1467 16.479 16.387V18.5626C16.479 18.6779 16.5249 18.7887 16.6065 18.8702C16.688 18.9518 16.7988 18.9977 16.9141 18.9977H17.1692L15.5562 20.6107C15.3106 20.8551 15.1729 21.1874 15.1737 21.5339V22.4476C13.9346 23.0327 12.8099 23.8348 11.8529 24.8155C10.6997 25.9246 9.80303 27.2729 9.22615 28.7655C8.73238 30.1809 8.84582 31.346 9.54549 32.0457L11.7 34.198ZM12.3151 33.5829L11.3888 32.66C11.8792 32.632 12.3629 32.5328 12.8246 32.3655C14.3172 31.7886 15.6655 30.892 16.7746 29.7388C18.5795 27.9344 19.6238 25.9028 19.6898 24.3474L20.6201 25.2776C21.0643 25.7219 21.1057 26.5886 20.7327 27.6564C20.1991 29.025 19.3732 30.2608 18.3126 31.2773C18.0302 31.5597 17.747 31.8159 17.4628 32.0527H17.3497V32.1498C15.1816 33.9162 13.0906 34.357 12.3149 33.5829L12.3151 33.5829ZM25.1819 24.654V24.9673C23.6815 25.3154 22.4912 25.9376 21.8337 26.7178V26.7176C21.9599 25.9769 21.7402 25.219 21.2376 24.6606L20.3609 23.7838H25.1819V24.654ZM24.4047 26.0898L31.2794 30.29C30.2182 30.6029 29.1165 30.7566 28.0101 30.7455C24.4966 30.7455 22.1364 29.3967 22.1364 28.1348C22.1364 27.3825 22.9813 26.6011 24.4049 26.0898L24.4047 26.0898ZM18.9303 31.8909C19.8897 30.9508 20.6799 29.8523 21.2659 28.6437V31.1808C21.2698 31.4832 21.3426 31.7808 21.4786 32.051H18.764C18.8198 31.9974 18.8753 31.9457 18.9303 31.8909ZM28.0099 33.7914C24.4964 33.7914 22.1362 32.4426 22.1362 31.1808V29.8654C23.2836 30.9197 25.4582 31.6159 28.0099 31.6159C30.5616 31.6159 32.7364 30.9197 33.8836 29.8654V31.1808C33.8836 32.4426 31.5231 33.7914 28.0099 33.7914ZM32.2982 29.8951L25.5473 25.7693C26.3575 25.6027 27.1829 25.5207 28.0099 25.5244C31.5234 25.5244 33.8836 26.8732 33.8836 28.135C33.8836 28.7582 33.3053 29.4025 32.298 29.8951L32.2982 29.8951ZM28.0099 24.6544C27.3545 24.6536 26.7001 24.702 26.0519 24.7993V21.6087H33.0136V25.7857C31.4667 24.9959 29.7462 24.607 28.0101 24.6544L28.0099 24.6544ZM29.5327 12.9065C30.4556 12.9075 31.3404 13.2746 31.9929 13.9273C32.6455 14.5797 33.0127 15.4645 33.0136 16.3874V20.7385H26.0519V16.3874C26.0529 15.4645 26.42 14.5797 27.0726 13.9273C27.7251 13.2746 28.6099 12.9075 29.5327 12.9065ZM19.5253 10.0783C19.5253 9.68964 19.7325 9.33069 20.0692 9.13626C20.4058 8.94202 20.8203 8.94202 21.157 9.13626C21.4936 9.3307 21.7009 9.68966 21.7009 10.0783V12.9065H19.5253L19.5253 10.0783ZM18.22 14.2118C18.22 13.9716 18.4148 13.7767 18.6551 13.7767H22.571C22.6864 13.7767 22.7971 13.8226 22.8787 13.9042C22.9603 13.9857 23.0061 14.0965 23.0061 14.2118V15.9523H18.22V14.2118ZM17.3497 16.8225H23.8763V18.1278H17.3497V16.8225ZM16.0444 21.5343C16.0444 21.4187 16.0903 21.308 16.1718 21.2262L18.4 18.998H22.8261L25.0543 21.2262C25.1359 21.308 25.1817 21.4187 25.1817 21.5343V22.914H19.4905L19.0838 22.5072C18.4097 21.8332 17.3068 21.7335 16.0446 22.1156L16.0444 21.5343ZM12.4688 25.4299C14.2737 23.6255 16.1511 22.7547 17.3855 22.7547C17.781 22.7283 18.1708 22.8606 18.4684 23.1224C18.9091 23.5632 18.9557 24.4277 18.5919 25.4885L10.9102 27.3426C11.3618 26.6526 11.8841 26.0116 12.4688 25.4299ZM10.0487 29.049C10.1307 28.8198 10.2247 28.5952 10.3302 28.376L18.1506 26.4885C17.6213 27.4593 16.9506 28.3462 16.1608 29.1203C15.1445 30.1813 13.9087 31.0074 12.5399 31.5408C11.4725 31.9128 10.6054 31.872 10.1612 31.4278C9.71694 30.9835 9.67557 30.1186 10.0485 29.049L10.0487 29.049Z" fill="#008893"/>
</svg>
