<svg width="12" height="14" viewBox="0 0 12 14" fill="none" xmlns="http://www.w3.org/2000/svg">
<path d="M8.78245 7.36816C7.00535 7.36816 5.56543 8.86013 5.56543 10.7006C5.56543 11.4812 5.82646 12.1983 6.2604 12.7659L10.776 8.08836C10.2277 7.63922 9.536 7.36833 8.78226 7.36833L8.78245 7.36816Z" fill="#FAB145"/>
<path d="M6.98782 6.69279L4.18561 3.79005L6.16672 1.73734C6.60574 1.28195 7.19012 1.03174 7.81116 1.03174C8.4327 1.03174 9.01645 1.28258 9.45607 1.73734C10.3628 2.67728 10.3628 4.20528 9.45607 5.14472L8.37406 6.26555C8.50895 6.25123 8.64496 6.24318 8.78318 6.24318C9.09445 6.24318 9.39967 6.28217 9.69499 6.35428L10.16 5.87254C11.4545 4.53119 11.4545 2.34897 10.16 1.00808C9.53306 0.357987 8.69863 0 7.81176 0C6.92488 0 6.09105 0.357987 5.46347 1.00808L0.972532 5.66013C0.345557 6.31022 0 7.17397 0 8.09204C0 9.01073 0.345589 9.875 0.972532 10.5251C1.60011 11.1746 2.43394 11.532 3.32081 11.532C3.87866 11.532 4.41505 11.3905 4.8928 11.1237C4.84639 10.871 4.81986 10.6121 4.81986 10.3482C4.81912 8.7543 5.70266 7.37279 6.9877 6.69302L6.98782 6.69279Z" fill="#008893"/>
<path d="M11.3047 8.60254L6.78906 13.2798C7.33752 13.7299 8.0293 14.0004 8.78288 14.0004C10.5594 14.0004 11.9999 12.5089 11.9999 10.6679C12.0004 9.88665 11.7389 9.17071 11.3048 8.60257L11.3047 8.60254Z" fill="#FAB145"/>
</svg>
