<svg width="47" height="47" viewBox="0 0 47 47" fill="none" xmlns="http://www.w3.org/2000/svg">
<path fill-rule="evenodd" clip-rule="evenodd" d="M32.7594 29.5839L29.8846 26.7092C28.9671 27.899 27.8992 28.9669 26.7094 29.8844L29.5841 32.7592C29.1287 33.5473 29.2373 34.5777 29.9094 35.2494L41.0592 46.3992C41.8606 47.2007 43.1719 47.2007 43.9733 46.3992L46.3994 43.9731C47.2008 43.1716 47.2008 41.8604 46.3994 41.059L35.2496 29.9092C34.5775 29.2371 33.5472 29.1285 32.7594 29.5839ZM11.3906 16.4595L15.4193 12.2004C15.1169 11.7386 14.9403 11.1865 14.9403 10.5933C14.9403 8.97101 16.2555 7.65627 17.8773 7.65627C19.4996 7.65627 20.8143 8.97146 20.8143 10.5933C20.8143 10.7333 20.8043 10.8709 20.7853 11.0056L27.9222 13.8255C28.4535 13.0696 29.3323 12.5751 30.3272 12.5751C30.9008 12.5751 31.4357 12.7399 31.8885 13.024L38.3351 6.70175C38.0692 6.26002 37.9163 5.74232 37.9163 5.18882C37.9163 3.56656 39.2315 2.25182 40.8533 2.25182C42.4755 2.25182 43.7903 3.56702 43.7903 5.18882C43.7903 6.81108 42.4751 8.12581 40.8533 8.12581C40.2797 8.12581 39.7448 7.96101 39.292 7.67691L32.8465 14.0002C33.1124 14.442 33.2653 14.9596 33.2653 15.5131C33.2653 17.1354 31.9501 18.4501 30.3283 18.4501C28.7061 18.4501 27.3913 17.1349 27.3913 15.5131C27.3913 15.3731 27.4014 15.2355 27.4204 15.1008L20.2835 12.2809C19.7522 13.0368 18.8733 13.5313 17.8784 13.5313C17.3435 13.5313 16.8419 13.3883 16.4099 13.1386L12.3812 17.3977C12.6836 17.8595 12.8602 18.4116 12.8602 19.0048C12.8602 20.6271 11.545 21.9418 9.92319 21.9418C8.30093 21.9418 6.98619 20.6266 6.98619 19.0048C6.98619 17.3826 8.30139 16.0678 9.92319 16.0678C10.4574 16.0667 10.9589 16.2101 11.3906 16.4595ZM16.0699 0.00208865C23.3004 0.00208865 29.4154 4.77843 31.4322 11.3482C31.0743 11.2536 30.7042 11.2052 30.3292 11.2052C29.3034 11.2052 28.3293 11.5685 27.563 12.2098L26.9264 11.9583C25.2669 7.57778 21.0322 4.46267 16.0701 4.46267C9.66002 4.46267 4.46353 9.65925 4.46353 16.0692C4.46353 22.4793 9.66011 27.6758 16.0701 27.6758C21.5899 27.6758 26.2092 23.8226 27.3859 18.6594C28.1562 19.3802 29.1912 19.8216 30.3283 19.8216C30.827 19.8216 31.3056 19.7367 31.751 19.5808C30.1492 26.7658 23.737 32.1366 16.0695 32.1366C7.19609 32.1366 0.00195312 24.943 0.00195312 16.069C0.00266961 7.19487 7.19595 0.00208865 16.0699 0.00208865Z" fill="white"/>
</svg>
