<svg width="36" height="53" viewBox="0 0 36 53" fill="none" xmlns="http://www.w3.org/2000/svg">
<path d="M15.232 29.4609V27.4522C15.232 24.7181 17.4636 22.542 20.1422 22.542C21.4814 22.542 22.709 23.0441 23.6574 23.9926C24.1039 24.439 24.4942 24.9968 24.7177 25.6105C27.6192 22.9324 29.4606 19.0267 29.4606 14.7302C29.4606 6.5837 22.8768 -9.15527e-05 14.7303 -9.15527e-05C6.58379 -9.15527e-05 0 6.5837 0 14.7302C0 22.8767 6.58379 29.4605 14.7303 29.4605C14.8969 29.4609 15.0642 29.4609 15.232 29.4609ZM13.2233 20.0312C12.7769 20.0312 12.2748 19.8638 11.9401 19.5291L8.0344 15.6234C7.30893 14.898 7.30893 13.7821 8.0344 13.0566C8.75988 12.331 9.87569 12.3311 10.6012 13.0566L13.1681 15.6234L18.8034 9.98808C19.5289 9.2626 20.6447 9.2626 21.3703 9.98808C22.0958 10.7136 22.0958 11.8294 21.3703 12.5549L14.4506 19.5291C14.1159 19.8638 13.6695 20.0312 13.2235 20.0312H13.2233Z" fill="white"/>
<path d="M35.2624 39.0023C35.2624 37.7191 34.2021 36.7145 32.9746 36.7145C32.1378 36.7145 31.4123 37.161 31.0215 37.7748V37.7191C31.0215 36.4359 29.9613 35.4314 28.7338 35.4314C27.897 35.4314 27.1715 35.8778 26.7807 36.4916V36.4359C26.7807 35.1527 25.7204 34.1482 24.4929 34.1482C23.6561 34.1482 22.9306 34.5946 22.5398 35.2084L22.5406 27.4523C22.5406 26.8385 22.3176 26.2248 21.8712 25.8344C21.4248 25.388 20.867 25.1649 20.2533 25.1649C18.9701 25.1649 17.9655 26.2252 17.9655 27.4527V41.7366C17.9655 41.8483 17.9099 41.9596 17.7425 42.0157C17.6308 42.0713 17.4634 42.0157 17.4078 41.96L15.0643 39.6166C14.2832 38.8354 13 38.7237 12.1071 39.3375C11.549 39.7283 11.2143 40.286 11.103 40.9554C10.9913 41.6248 11.2147 42.2946 11.6051 42.7967L17.4638 49.827C19.1378 51.8356 21.5368 52.9515 24.1593 52.9515H27.6738C29.6824 52.9515 31.6355 52.1703 33.086 50.7198C34.5366 49.2692 35.3177 47.3718 35.3177 45.3075L35.2624 39.0023Z" fill="white"/>
</svg>
