<svg width="598" height="591" viewBox="0 0 598 591" fill="none" xmlns="http://www.w3.org/2000/svg">
<path d="M85.344 0H170.688C217.824 0 256.032 47.136 256.032 85.344V170.688C256.032 217.824 217.824 256.032 170.688 256.032H85.344C38.208 256.032 0 208.896 0 170.688V85.344C0 38.208 38.208 0 85.344 0Z" fill="#dc3545"/>
<path d="M426.637 0H511.981C559.117 0 597.325 47.136 597.325 85.344V170.688C597.325 217.824 559.117 256.032 511.981 256.032H426.637C379.501 256.032 341.293 208.896 341.293 170.688V85.344C341.293 38.208 379.501 0 426.637 0Z" fill="#dc3545"/>
<path d="M85.344 334.653H170.688C217.824 334.653 256.032 381.789 256.032 419.997V505.341C256.032 552.477 217.824 590.685 170.688 590.685H85.344C38.208 590.685 0 543.549 0 505.341V419.997C0 372.861 38.208 334.653 85.344 334.653Z" fill="#dc3545"/>
<path d="M426.637 334.653H511.981C559.117 334.653 597.325 381.789 597.325 419.997V505.341C597.325 552.477 559.117 590.685 511.981 590.685H426.637C379.501 590.685 341.293 543.549 341.293 505.341V419.997C341.293 372.861 379.501 334.653 426.637 334.653Z" fill="#dc3545"/>
</svg>
