<svg width="39" height="38" viewBox="0 0 39 38" fill="none" xmlns="http://www.w3.org/2000/svg">
<path d="M15.5455 27.6364C15.0874 27.6364 14.6482 27.4542 14.3244 27.1304C14.0002 26.8065 13.8184 26.3673 13.8184 25.909V1.72853C13.8184 1.11148 14.1477 0.541269 14.6821 0.23274C15.2164 -0.0757895 15.8748 -0.0757895 16.4092 0.23274C16.9435 0.541269 17.2729 1.11147 17.2729 1.72853V25.909C17.2729 26.3673 17.0907 26.8065 16.7669 27.1304C16.443 27.4542 16.0037 27.6364 15.5455 27.6364Z" fill="#dc3545"/>
<path d="M24.1822 27.6364C23.7242 27.6364 23.2847 27.4542 22.9608 27.1304C22.637 26.8065 22.4551 26.3673 22.4551 25.909V1.72853C22.4551 1.11148 22.7841 0.541269 23.3185 0.23274C23.8528 -0.0757895 24.5115 -0.0757895 25.0459 0.23274C25.5803 0.541269 25.9093 1.11147 25.9093 1.72853V25.909C25.9093 26.3673 25.7274 26.8065 25.4036 27.1304C25.0797 27.4542 24.6402 27.6364 24.1822 27.6364Z" fill="#dc3545"/>
<path d="M13.9221 15.5454H12.955C10.1782 15.5454 7.61225 14.064 6.22401 11.6592C4.83548 9.25459 4.83548 6.29158 6.22401 3.88671C7.61225 1.48214 10.1782 0.000488281 12.955 0.000488281H31.0907C31.7077 0.000488281 32.2779 0.329833 32.5865 0.864192C32.895 1.39855 32.895 2.05693 32.5865 2.5913C32.2779 3.12566 31.7077 3.45501 31.0907 3.45501H12.955C11.4123 3.45501 9.98677 4.27793 9.21559 5.61412C8.44412 6.95002 8.44412 8.59615 9.21559 9.93205C9.98677 11.2679 11.4123 12.0912 12.955 12.0912H13.9221C14.5392 12.0912 15.1094 12.4202 15.4179 12.9546C15.7265 13.4889 15.7265 14.1476 15.4179 14.682C15.1094 15.2164 14.5392 15.5454 13.9221 15.5454Z" fill="#dc3545"/>
<path d="M31.0907 38C30.6318 38.0026 30.1906 37.8224 29.8644 37.4989C29.5374 37.1747 29.3535 36.7332 29.3535 36.2726C29.3535 35.8122 29.5374 35.3707 29.8644 35.0463L33.8371 31.0909L29.8644 27.1356C29.4264 26.6975 29.2552 26.0591 29.4157 25.4605C29.5762 24.862 30.0434 24.3947 30.642 24.2342C31.2405 24.0738 31.879 24.2449 32.317 24.683L37.4987 29.8646C37.8257 30.1891 38.0096 30.6306 38.0096 31.0909C38.0096 31.5515 37.8257 31.9931 37.4987 32.3172L32.317 37.4988C31.9912 37.8224 31.5499 38.0026 31.0907 38Z" fill="#dc3545"/>
<path d="M36.2719 32.8184H1.72816C1.11111 32.8184 0.540903 32.4891 0.232374 31.9547C-0.0761558 31.4203 -0.0761558 30.762 0.232374 30.2276C0.540903 29.6932 1.1111 29.3639 1.72816 29.3639H36.2719C36.8889 29.3639 37.4591 29.6932 37.7677 30.2276C38.0762 30.762 38.0762 31.4203 37.7677 31.9547C37.4591 32.4891 36.889 32.8184 36.2719 32.8184Z" fill="#dc3545"/>
</svg>
