<svg width="562" height="608" viewBox="0 0 562 608" fill="none" xmlns="http://www.w3.org/2000/svg">
<path d="M548.533 423.8L500.47 397.664L291.87 511.528H291.865C284.646 515.7 275.755 515.7 268.531 511.528L60.8648 397.664L12.8021 423.8C7.83849 426.477 4.01568 430.863 2.03128 436.144C0.0520751 441.42 0.0520751 447.243 2.03128 452.518C4.01568 457.8 7.83862 462.185 12.8021 464.862L269.469 604.862C273.016 606.914 277.036 607.992 281.135 607.992C285.229 607.992 289.255 606.914 292.802 604.862L549.469 464.862C554.427 462.185 558.255 457.8 560.234 452.518C562.214 447.242 562.214 441.42 560.234 436.144C558.255 430.863 554.427 426.477 549.469 423.8H548.533Z" fill="#dc3545"/>
<path d="M12.8001 184.867L269.467 324.867C273.014 326.919 277.035 327.997 281.133 327.997C285.227 327.997 289.253 326.919 292.8 324.867L549.467 184.867C554.425 182.19 558.253 177.804 560.232 172.523C562.212 167.247 562.212 161.424 560.232 156.148C558.253 150.867 554.425 146.482 549.467 143.805L292.8 3.80459C289.253 1.75245 285.227 0.674316 281.133 0.674316C277.035 0.674316 273.014 1.75244 269.467 3.80459L12.8001 143.805C7.83654 146.482 4.01372 150.867 2.02932 156.148C0.0501219 161.424 0.0501219 167.247 2.02932 172.523C4.01372 177.804 7.83667 182.19 12.8001 184.867Z" fill="#dc3545"/>
<path d="M548.534 283.8L500.471 257.664L291.871 371.528H291.866C284.647 375.7 275.757 375.7 268.533 371.528L109.639 284.263L60.8686 257.664L12.806 283.8C7.84237 286.477 4.01958 290.863 2.03518 296.144C0.0559813 301.42 0.0559813 307.243 2.03518 312.518C4.01958 317.8 7.84251 322.185 12.806 324.862L269.473 464.862C273.02 466.914 277.04 467.992 281.139 467.992C285.233 467.992 289.259 466.914 292.806 464.862L549.473 324.862C554.431 322.185 558.259 317.8 560.238 312.518C562.217 307.242 562.217 301.42 560.238 296.144C558.259 290.863 554.431 286.477 549.473 283.8H548.534Z" fill="#dc3545"/>
</svg>
