<svg width="22" height="22" viewBox="0 0 22 22" fill="none" xmlns="http://www.w3.org/2000/svg">
<path d="M13.7505 20.8542C13.503 20.8542 13.2738 20.7167 13.1547 20.5058C13.0355 20.295 13.0355 20.0292 13.1638 19.8183L14.1263 18.2142C14.3188 17.8842 14.7405 17.7833 15.0705 17.9758C15.4005 18.1683 15.5013 18.59 15.3088 18.92L15.0613 19.3325C17.5913 18.7367 19.4888 16.4633 19.4888 13.75C19.4888 13.3742 19.8005 13.0625 20.1763 13.0625C20.5522 13.0625 20.8638 13.3742 20.8638 13.75C20.8547 17.6642 17.6647 20.8542 13.7505 20.8542Z" fill="#446FDD"/>
<path d="M1.83203 8.93742C1.4562 8.93742 1.14453 8.62575 1.14453 8.24992C1.14453 4.33575 4.33453 1.14575 8.2487 1.14575C8.4962 1.14575 8.72536 1.28325 8.84453 1.49409C8.9637 1.70492 8.9637 1.97075 8.83537 2.18159L7.87286 3.79492C7.68037 4.11575 7.2587 4.22575 6.9287 4.02409C6.60786 3.83159 6.49786 3.40992 6.69953 3.07992L6.94703 2.66742C4.40786 3.26325 2.51953 5.53658 2.51953 8.24992C2.51953 8.62575 2.20786 8.93742 1.83203 8.93742Z" fill="#446FDD"/>
<path d="M9.77844 12.6959L6.9001 11.1467C6.5976 10.9817 6.23094 10.9817 5.92844 11.1467L3.0501 12.6959C2.83927 12.8059 2.71094 13.035 2.71094 13.2825C2.71094 13.53 2.83927 13.7592 3.0501 13.8692L5.92844 15.4184C6.08427 15.5009 6.24927 15.5375 6.41427 15.5375C6.57927 15.5375 6.74427 15.5009 6.9001 15.4184L9.77844 13.8692C9.98927 13.7592 10.1176 13.53 10.1176 13.2825C10.1176 13.035 9.9801 12.815 9.77844 12.6959Z" fill="#446FDD"/>
<path d="M5.45286 15.9592L2.7762 14.6208C2.57453 14.52 2.3362 14.5292 2.13453 14.6483C1.9512 14.7675 1.83203 14.9783 1.83203 15.2075V17.7375C1.83203 18.1775 2.07036 18.5717 2.46453 18.7642L5.1412 20.1025C5.23286 20.1392 5.3337 20.1667 5.43453 20.1667C5.5537 20.1667 5.67286 20.13 5.78286 20.0658C5.97536 19.9467 6.09453 19.7358 6.09453 19.5067V16.9767C6.09453 16.5458 5.84703 16.1517 5.45286 15.9592Z" fill="#446FDD"/>
<path d="M10.6891 14.6483C10.4966 14.5292 10.2583 14.52 10.0474 14.6208L7.37078 15.9592C6.97661 16.1517 6.73828 16.5458 6.73828 16.9858V19.5158C6.73828 19.745 6.85745 19.9558 7.04995 20.075C7.15995 20.13 7.27911 20.1667 7.39828 20.1667C7.49911 20.1667 7.59995 20.1392 7.69161 20.0933L10.3683 18.755C10.7624 18.5625 11.0008 18.1683 11.0008 17.7283V15.1983C11.0008 14.9783 10.8816 14.7675 10.6891 14.6483Z" fill="#446FDD"/>
<path d="M18.9464 3.51081L16.0681 1.96164C15.7656 1.79664 15.3989 1.79664 15.0964 1.96164L12.2181 3.51081C12.0072 3.62081 11.8789 3.84997 11.8789 4.09747C11.8789 4.34497 12.0072 4.57414 12.2181 4.68414L15.0964 6.23331C15.2522 6.31581 15.4172 6.35247 15.5822 6.35247C15.7472 6.35247 15.9122 6.31581 16.0681 6.23331L18.9464 4.68414C19.1572 4.57414 19.2856 4.34497 19.2856 4.09747C19.2856 3.84081 19.1481 3.62081 18.9464 3.51081Z" fill="#446FDD"/>
<path d="M14.6208 6.76496L11.9442 5.42662C11.7425 5.32579 11.5042 5.33496 11.3025 5.45412C11.1192 5.57329 11 5.78412 11 6.01329V8.54329C11 8.98329 11.2383 9.37746 11.6325 9.56996L14.3092 10.9083C14.4008 10.9541 14.5017 10.9816 14.6025 10.9816C14.7217 10.9816 14.8408 10.945 14.9508 10.8808C15.1433 10.7616 15.2625 10.5508 15.2625 10.3216V7.79162C15.2625 7.35162 15.015 6.95746 14.6208 6.76496Z" fill="#446FDD"/>
<path d="M19.8532 5.45412C19.6607 5.33496 19.4223 5.32579 19.2115 5.42662L16.5348 6.76496C16.1407 6.95746 15.9023 7.35162 15.9023 7.79162V10.3216C15.9023 10.5508 16.0215 10.7616 16.214 10.8808C16.324 10.945 16.4432 10.9816 16.5623 10.9816C16.6632 10.9816 16.764 10.9541 16.8557 10.9083L19.5323 9.56996C19.9265 9.36829 20.1648 8.97412 20.1648 8.54329V6.01329C20.1648 5.78412 20.0457 5.57329 19.8532 5.45412Z" fill="#446FDD"/>
</svg>
