<svg width="22" height="18" viewBox="0 0 22 18" fill="none" xmlns="http://www.w3.org/2000/svg">
<path fill-rule="evenodd" clip-rule="evenodd" d="M6.7857 13.7804C6.78767 14.7093 6.05185 15.4642 5.14449 15.4642C4.23873 15.4642 3.50327 14.7091 3.50327 13.7804H6.7857ZM18.6233 12.096C19.5302 12.096 20.2645 12.8508 20.2645 13.7804C20.2664 14.7093 19.53 15.4642 18.6233 15.4642C17.7159 15.4642 16.9815 14.7091 16.9815 13.7804C16.9815 13.4383 17.083 13.1046 17.2722 12.8234L18.1319 13.941C18.2916 14.1655 18.5658 14.2646 18.8009 14.1254C19.0359 13.9866 19.08 13.6971 18.9789 13.4393L18.3247 12.1256C18.4238 12.1058 18.5233 12.0976 18.6233 12.096L18.6233 12.096ZM14.784 0.000170603C13.7921 0.000170603 13.3906 0.704837 13.1263 1.07279C12.9483 1.3193 12.919 1.45326 12.6338 1.52487L11.5648 1.79599C11.0359 1.92934 11.1584 2.71627 11.7998 2.67129L12.7868 2.6029C13.2196 2.57204 13.4705 2.74492 13.5536 3.08948L14.898 8.5285C15.3423 10.3241 15.4449 11.8556 13.051 11.8556H10.8634C9.4016 11.8556 8.62132 10.5837 9.09791 9.48451L9.79244 7.87955C10.14 7.07971 9.9313 6.39141 9.10089 6.39141H4.15997C3.75242 6.39141 3.42552 6.7285 3.42552 7.14488C3.42552 7.29759 3.46977 7.438 3.54491 7.55641C1.3408 8.2443 -0.189692 10.7595 0.019022 12.9144C0.0941591 13.6874 0.531215 13.7806 0.854383 13.7806H1.89705C1.89705 15.6199 3.3512 17.1111 5.14383 17.1111C6.93882 17.1111 8.39262 15.6195 8.39262 13.7806H15.3761C15.3761 15.6199 16.8295 17.1111 18.6229 17.1111C20.4179 17.1111 21.8709 15.6195 21.8709 13.7806C21.8697 13.1953 21.7192 12.623 21.4338 12.1161L21.6327 12.148C21.9968 12.2067 22.091 11.7459 21.9118 11.3431C21.3127 10.0044 20.0405 9.12585 18.6286 9.05386C18.4913 9.0472 18.3643 8.9651 18.3643 8.79424V8.52654C18.3643 8.20357 18.368 7.9391 18.1184 7.59113L15.2288 3.53836C14.9853 3.19643 15.1845 2.98764 15.4931 2.98764H16.0183C16.4196 2.98764 16.7085 2.90049 16.6514 2.4252L16.4359 0.627976C16.3916 0.254976 16.2362 0 15.7131 0L14.7843 0.00040346L14.784 0.000170603Z" fill="#F14040"/>
<path fill-rule="evenodd" clip-rule="evenodd" d="M4.27965 1.22217C3.94005 1.22217 3.66797 1.48615 3.66797 1.81337V5.52133C3.66797 5.84726 3.94004 6.11106 4.27965 6.11106H9.16799C9.5074 6.11106 9.77908 5.84708 9.77908 5.52133L9.77889 1.81371C9.77889 1.48648 9.50682 1.2225 9.1678 1.2225H7.3544V2.48492C7.3544 2.67486 7.19695 2.82592 7.00226 2.82592H6.44694C6.25186 2.82592 6.09344 2.67449 6.09344 2.48492V1.2225H4.27965V1.22217Z" fill="#F14040"/>
</svg>
