<svg width="22" height="22" viewBox="0 0 22 22" fill="none" xmlns="http://www.w3.org/2000/svg">
<path d="M10.1279 13.7038L8.43203 15.3997C8.07453 15.7572 7.5062 15.7572 7.13953 15.4088C7.0387 15.308 6.93786 15.2163 6.83703 15.1155C5.89286 14.1622 5.04036 13.163 4.27953 12.118C3.52786 11.073 2.92286 10.028 2.48286 8.99218C2.05203 7.94718 1.83203 6.94801 1.83203 5.99467C1.83203 5.37134 1.94203 4.77551 2.16203 4.22551C2.38203 3.66634 2.73036 3.15301 3.2162 2.69467C3.80286 2.11717 4.44453 1.83301 5.12286 1.83301C5.37953 1.83301 5.6362 1.88801 5.86536 1.99801C6.1037 2.10801 6.31453 2.27301 6.47953 2.51134L8.6062 5.50884C8.7712 5.73801 8.89036 5.94884 8.97286 6.15051C9.05536 6.34301 9.1012 6.53551 9.1012 6.70967C9.1012 6.92967 9.03703 7.14967 8.9087 7.36051C8.78953 7.57134 8.61536 7.79134 8.39536 8.01134L7.6987 8.73551C7.59786 8.83634 7.55203 8.95551 7.55203 9.10217C7.55203 9.17551 7.5612 9.23967 7.57953 9.31301C7.60703 9.38634 7.63453 9.44134 7.65286 9.49634C7.81786 9.79884 8.10203 10.193 8.50536 10.6697C8.91786 11.1463 9.35786 11.6322 9.83453 12.118C9.9262 12.2097 10.027 12.3013 10.1187 12.393C10.4854 12.7505 10.4945 13.3372 10.1279 13.7038Z" fill="white"/>
<path d="M20.1399 16.8026C20.1399 17.0593 20.0941 17.3251 20.0024 17.5818C19.9749 17.6551 19.9474 17.7285 19.9108 17.8018C19.7549 18.1318 19.5533 18.4435 19.2874 18.7368C18.8383 19.2318 18.3433 19.5893 17.7841 19.8185C17.7749 19.8185 17.7658 19.8276 17.7566 19.8276C17.2158 20.0476 16.6291 20.1668 15.9966 20.1668C15.0616 20.1668 14.0624 19.9468 13.0083 19.4976C11.9541 19.0485 10.8999 18.4435 9.85495 17.6826C9.49745 17.4168 9.13995 17.151 8.80078 16.8668L11.7983 13.8693C12.0549 14.0618 12.2841 14.2085 12.4766 14.3093C12.5224 14.3276 12.5774 14.3551 12.6416 14.3826C12.7149 14.4101 12.7883 14.4193 12.8708 14.4193C13.0266 14.4193 13.1458 14.3643 13.2466 14.2635L13.9433 13.576C14.1724 13.3468 14.3924 13.1726 14.6033 13.0626C14.8141 12.9343 15.0249 12.8701 15.2541 12.8701C15.4283 12.8701 15.6116 12.9068 15.8133 12.9893C16.0149 13.0718 16.2258 13.191 16.4549 13.3468L19.4891 15.501C19.7274 15.666 19.8924 15.8584 19.9933 16.0876C20.0849 16.3168 20.1399 16.546 20.1399 16.8026Z" fill="white"/>
</svg>
