<svg width="25" height="25" viewBox="0 0 25 25" fill="none" xmlns="http://www.w3.org/2000/svg">
<path d="M2.08398 2.08301H3.89649C5.02149 2.08301 5.9069 3.05176 5.81315 4.16634L4.94857 14.5413C4.80273 16.2392 6.14648 17.6976 7.85481 17.6976H18.9486C20.4486 17.6976 21.7611 16.4684 21.8757 14.9788L22.4381 7.16635C22.5631 5.43718 21.2506 4.03092 19.5111 4.03092H6.06316" stroke="#8D8F91" stroke-width="1.2" stroke-miterlimit="10" stroke-linecap="round" stroke-linejoin="round"/>
<path d="M16.9271 22.9167C17.6462 22.9167 18.2292 22.3337 18.2292 21.6146C18.2292 20.8955 17.6462 20.3125 16.9271 20.3125C16.208 20.3125 15.625 20.8955 15.625 21.6146C15.625 22.3337 16.208 22.9167 16.9271 22.9167Z" stroke="#8D8F91" stroke-width="1.2" stroke-miterlimit="10" stroke-linecap="round" stroke-linejoin="round"/>
<path d="M8.5931 22.9167C9.31222 22.9167 9.89518 22.3337 9.89518 21.6146C9.89518 20.8955 9.31222 20.3125 8.5931 20.3125C7.87398 20.3125 7.29102 20.8955 7.29102 21.6146C7.29102 22.3337 7.87398 22.9167 8.5931 22.9167Z" stroke="#8D8F91" stroke-width="1.2" stroke-miterlimit="10" stroke-linecap="round" stroke-linejoin="round"/>
<path d="M9.375 8.33301H21.875" stroke="#8D8F91" stroke-width="1.2" stroke-miterlimit="10" stroke-linecap="round" stroke-linejoin="round"/>
</svg>
