<svg width="25" height="25" viewBox="0 0 25 25" fill="none" xmlns="http://www.w3.org/2000/svg">
<path d="M16.9264 23.4378C17.9332 23.4378 18.7493 22.6217 18.7493 21.6149C18.7493 20.6081 17.9332 19.792 16.9264 19.792C15.9197 19.792 15.1035 20.6081 15.1035 21.6149C15.1035 22.6217 15.9197 23.4378 16.9264 23.4378Z" fill="#FF8D2F"/>
<path d="M8.5944 23.4378C9.60117 23.4378 10.4173 22.6217 10.4173 21.6149C10.4173 20.6081 9.60117 19.792 8.5944 19.792C7.58763 19.792 6.77148 20.6081 6.77148 21.6149C6.77148 22.6217 7.58763 23.4378 8.5944 23.4378Z" fill="#FF8D2F"/>
<path d="M5.04232 4.10384L4.83398 6.65592C4.79232 7.14551 5.17773 7.55176 5.66732 7.55176H21.6152C22.0527 7.55176 22.4173 7.21842 22.4486 6.78092C22.584 4.93717 21.1777 3.43717 19.334 3.43717H6.5319C6.42773 2.97884 6.2194 2.54134 5.89648 2.17676C5.37565 1.62467 4.64648 1.30176 3.89648 1.30176H2.08398C1.6569 1.30176 1.30273 1.65592 1.30273 2.08301C1.30273 2.51009 1.6569 2.86426 2.08398 2.86426H3.89648C4.2194 2.86426 4.52148 2.99967 4.74023 3.22884C4.95898 3.46842 5.06315 3.78092 5.04232 4.10384Z" fill="#FF8D2F"/>
<path d="M21.364 9.11426H5.38482C4.94732 9.11426 4.59315 9.44759 4.55149 9.87467L4.17649 14.4059C4.03065 16.1872 5.42649 17.708 7.20774 17.708H18.7911C20.3536 17.708 21.7286 16.4268 21.8432 14.8643L22.1869 9.99967C22.2286 9.52051 21.8536 9.11426 21.364 9.11426Z" fill="#FF8D2F"/>
</svg>
