<svg width="25" height="25" viewBox="0 0 25 25" fill="none" xmlns="http://www.w3.org/2000/svg">
<path d="M12.4997 2.08301C6.76009 2.08301 2.08301 6.76009 2.08301 12.4997C2.08301 18.2393 6.76009 22.9163 12.4997 22.9163C18.2393 22.9163 22.9163 18.2393 22.9163 12.4997C22.9163 6.76009 18.2393 2.08301 12.4997 2.08301ZM17.0309 16.2184C16.8851 16.4684 16.6247 16.6038 16.3538 16.6038C16.2184 16.6038 16.083 16.5726 15.958 16.4893L12.7288 14.5622C11.9268 14.083 11.333 13.0309 11.333 12.1038V7.83301C11.333 7.40592 11.6872 7.05176 12.1143 7.05176C12.5413 7.05176 12.8955 7.40592 12.8955 7.83301V12.1038C12.8955 12.4788 13.208 13.0309 13.5309 13.2184L16.7601 15.1455C17.1351 15.3643 17.2601 15.8434 17.0309 16.2184Z" fill="#FF8D2F"/>
</svg>
