<svg width="25" height="25" viewBox="0 0 25 25" fill="none" xmlns="http://www.w3.org/2000/svg">
<path d="M13.1878 2.62273L13.1566 2.69565L10.1357 9.70607H7.16699C6.45866 9.70607 5.78158 9.8519 5.16699 10.1123L6.98991 5.75815L7.03158 5.65398L7.10449 5.48732C7.12533 5.42482 7.14616 5.36232 7.17741 5.31023C8.54199 2.15398 10.0837 1.43523 13.1878 2.62273Z" stroke="#8D8F91" stroke-width="1.2" stroke-linecap="round" stroke-linejoin="round"/>
<path d="M18.8024 9.91471C18.3337 9.76888 17.8337 9.70638 17.3337 9.70638H10.1357L13.1566 2.69596L13.1878 2.62305C13.3441 2.67513 13.4899 2.74805 13.6462 2.81055L15.9482 3.7793C17.2295 4.31055 18.1253 4.86263 18.667 5.5293C18.7712 5.6543 18.8545 5.76888 18.9274 5.9043C19.0212 6.05013 19.0941 6.19596 19.1357 6.35221C19.1774 6.44596 19.2087 6.53971 19.2295 6.62305C19.5107 7.49805 19.3441 8.57096 18.8024 9.91471Z" stroke="#8D8F91" stroke-width="1.2" stroke-linecap="round" stroke-linejoin="round"/>
<path d="M22.4186 14.7904V16.8216C22.4186 17.0299 22.4082 17.2383 22.3978 17.4466C22.1999 21.082 20.1686 22.9154 16.3145 22.9154H8.18945C7.93945 22.9154 7.68945 22.8945 7.44987 22.8633C4.13737 22.6445 2.36654 20.8737 2.14779 17.5612C2.11654 17.3216 2.0957 17.0716 2.0957 16.8216V14.7904C2.0957 12.6966 3.36654 10.8945 5.17904 10.1133C5.80404 9.85286 6.4707 9.70703 7.17904 9.70703H17.3457C17.8561 9.70703 18.3561 9.77995 18.8145 9.91537C20.8874 10.5508 22.4186 12.4883 22.4186 14.7904Z" stroke="#8D8F91" stroke-width="1.2" stroke-linecap="round" stroke-linejoin="round"/>
<path d="M6.98926 5.75879L5.16634 10.113C3.35384 10.8942 2.08301 12.6963 2.08301 14.79V11.738C2.08301 8.77962 4.18717 6.31087 6.98926 5.75879Z" stroke="#8D8F91" stroke-width="1.2" stroke-linecap="round" stroke-linejoin="round"/>
<path d="M22.4147 11.737V14.7891C22.4147 12.4974 20.8939 10.5495 18.8105 9.92448C19.3522 8.57031 19.5085 7.50781 19.248 6.6224C19.2272 6.52865 19.196 6.4349 19.1543 6.35156C21.0918 7.35156 22.4147 9.40365 22.4147 11.737Z" stroke="#8D8F91" stroke-width="1.2" stroke-linecap="round" stroke-linejoin="round"/>
</svg>
