<svg width="25" height="25" viewBox="0 0 25 25" fill="none" xmlns="http://www.w3.org/2000/svg">
<path d="M12.4378 2.30231L9.92741 8.14606H7.41699C7.00033 8.14606 6.59408 8.17731 6.19824 8.26065L7.23991 5.76065L7.28158 5.6669L7.34408 5.50023C7.37533 5.42731 7.39616 5.36481 7.42741 5.31273C8.63574 2.51065 9.98991 1.63565 12.4378 2.30231Z" fill="#FF8D2F"/>
<path d="M19.5104 8.42708L19.4896 8.41667C18.8646 8.23958 18.2292 8.14583 17.5833 8.14583H11.0625L13.4063 2.69792L13.4375 2.625C13.5833 2.67708 13.7396 2.75 13.8958 2.80208L16.1979 3.77083C17.4792 4.30208 18.375 4.85417 18.9271 5.52083C19.0208 5.64583 19.1042 5.76042 19.1875 5.89583C19.2813 6.04167 19.3542 6.1875 19.3958 6.34375C19.4375 6.4375 19.4688 6.52083 19.4896 6.61458C19.6458 7.14583 19.6562 7.75 19.5104 8.42708Z" fill="#FF8D2F"/>
<path d="M13.042 18.3962H13.3024C13.6149 18.3962 13.8753 18.1149 13.8753 17.7712C13.8753 17.3337 13.7503 17.2712 13.4795 17.167L13.042 17.0107V18.3962Z" fill="#FF8D2F"/>
<path d="M19.0518 9.91634C18.583 9.78093 18.0934 9.70801 17.583 9.70801H7.41634C6.70801 9.70801 6.04134 9.84342 5.41634 10.1143C3.60384 10.8955 2.33301 12.6976 2.33301 14.7913V16.8226C2.33301 17.0726 2.35384 17.3122 2.38509 17.5622C2.61426 20.8747 4.38509 22.6455 7.69759 22.8643C7.93717 22.8955 8.17676 22.9163 8.43717 22.9163H16.5622C20.4163 22.9163 22.4476 21.083 22.6455 17.4372C22.6559 17.2393 22.6663 17.0309 22.6663 16.8226V14.7913C22.6663 12.4893 21.1351 10.5518 19.0518 9.91634ZM13.833 16.1455C14.3122 16.3122 14.958 16.6663 14.958 17.7705C14.958 18.7184 14.2184 19.4788 13.3018 19.4788H13.0413V19.708C13.0413 20.0101 12.8018 20.2497 12.4997 20.2497C12.1976 20.2497 11.958 20.0101 11.958 19.708V19.4788H11.8643C10.8643 19.4788 10.0413 18.6351 10.0413 17.5934C10.0413 17.2913 10.2809 17.0518 10.583 17.0518C10.8851 17.0518 11.1247 17.2913 11.1247 17.5934C11.1247 18.0309 11.458 18.3955 11.8643 18.3955H11.958V16.6351L11.1663 16.3538C10.6872 16.1872 10.0413 15.833 10.0413 14.7288C10.0413 13.7809 10.7809 13.0205 11.6976 13.0205H11.958V12.7913C11.958 12.4893 12.1976 12.2497 12.4997 12.2497C12.8018 12.2497 13.0413 12.4893 13.0413 12.7913V13.0205H13.1351C14.1351 13.0205 14.958 13.8643 14.958 14.9059C14.958 15.208 14.7184 15.4476 14.4163 15.4476C14.1143 15.4476 13.8747 15.208 13.8747 14.9059C13.8747 14.4684 13.5413 14.1038 13.1351 14.1038H13.0413V15.8643L13.833 16.1455Z" fill="#FF8D2F"/>
<path d="M11.125 14.7295C11.125 15.167 11.25 15.2295 11.5208 15.3337L11.9583 15.4899V14.1045H11.6979C11.375 14.1045 11.125 14.3857 11.125 14.7295Z" fill="#FF8D2F"/>
</svg>
