<svg width="25" height="25" viewBox="0 0 25 25" fill="none" xmlns="http://www.w3.org/2000/svg">
<g clip-path="url(#clip0_315_8102)">
<path d="M18.5831 10.0314L20.0519 9.93812C20.0544 9.93793 20.0571 9.93774 20.0598 9.93755C21.1065 9.84907 22.0461 9.29963 22.6377 8.42971L23.7989 6.72273C24.8096 5.23667 25.2012 3.44179 24.9012 1.66888C24.8423 1.32068 24.6645 0.999806 24.4009 0.765699C24.1371 0.5314 23.798 0.393038 23.4459 0.37622C21.6526 0.290222 19.9217 0.895079 18.5705 2.07861L17.0183 3.43835C16.2273 4.13111 15.7955 5.13156 15.8333 6.18361C15.8334 6.1861 15.8334 6.18877 15.8336 6.19145L15.9174 7.66356C15.95 8.23745 15.74 8.80371 15.3423 9.21612L3.21573 21.6982C2.8911 22.0374 2.72344 22.5027 2.74385 23.0086C2.76636 23.5655 3.02137 24.1124 3.42611 24.4719C3.79175 24.7966 4.29434 24.9816 4.79674 24.9816C4.85053 24.9816 4.90431 24.9795 4.95791 24.9751C5.46164 24.9348 5.90281 24.7123 6.2015 24.3465L17.1129 10.7905C17.4747 10.3444 18.0107 10.0677 18.5831 10.0314ZM16.5304 10.318L5.61995 23.873C5.45325 24.0771 5.1969 24.2028 4.89821 24.2267C4.54287 24.2552 4.17856 24.1367 3.92336 23.91C3.66816 23.6832 3.50718 23.335 3.49287 22.9782C3.48066 22.6783 3.57432 22.4083 3.75475 22.2199L15.8804 9.7388C16.424 9.17522 16.7101 8.40333 16.6658 7.62094L16.5821 6.15265C16.5537 5.32917 16.8922 4.5462 17.5115 4.00364L19.0637 2.64391C20.2684 1.5888 21.8122 1.05007 23.4102 1.12613C23.5922 1.13492 23.7673 1.20639 23.9037 1.32756C24.04 1.44853 24.1318 1.61441 24.1623 1.79424C24.4297 3.3749 24.0807 4.97485 23.1796 6.29962L22.0184 8.00679C21.5551 8.68789 20.8198 9.11846 20.0004 9.18898L18.5356 9.28186C17.7551 9.33155 17.0246 9.70879 16.5304 10.318Z" fill="#8D8F91"/>
<path d="M24.3082 21.6031L16.1773 14.1829C16.0243 14.0432 15.7875 14.0543 15.6478 14.2076C15.5086 14.3608 15.5197 14.5984 15.6726 14.7381L23.8014 22.1565C23.9948 22.3356 24.1045 22.5995 24.1104 22.8995C24.1174 23.2565 23.9776 23.6137 23.7363 23.8555C23.4953 24.097 23.1393 24.2375 22.7823 24.2302C22.4828 24.2243 22.2194 24.1144 22.0426 23.9227L14.7973 15.9528C14.6579 15.7993 14.4208 15.7884 14.2679 15.9279C14.1149 16.0676 14.1038 16.3052 14.2433 16.4584L21.4903 24.4303C21.8088 24.7755 22.2623 24.9712 22.7676 24.9811C22.7808 24.9813 22.7937 24.9815 22.8069 24.9815C23.3499 24.9815 23.8929 24.7607 24.2662 24.3866C24.6488 24.0032 24.8707 23.4419 24.8596 22.8848C24.8497 22.3786 24.6545 21.9241 24.3082 21.6031Z" fill="#8D8F91"/>
<path d="M4.52192 9.96008C5.1422 10.5326 5.94805 10.859 6.7911 10.8793C6.79377 10.8795 6.79644 10.8795 6.79892 10.8795L8.27064 10.8841C8.84437 10.8858 9.39578 11.1298 9.78279 11.5524L10.4311 12.2654C10.5051 12.3468 10.6064 12.3881 10.7082 12.3881C10.7983 12.3881 10.8887 12.3558 10.9604 12.2903C11.1135 12.1506 11.1246 11.913 10.9852 11.7597L10.3359 11.0458C9.8072 10.4682 9.05532 10.1357 8.27312 10.133L6.80541 10.1284C6.15328 10.1118 5.52977 9.86166 5.04664 9.42345L0.781604 4.34341C0.738117 4.29143 0.741359 4.21613 0.789234 4.16816C0.82204 4.1351 0.860569 4.13032 0.880596 4.13032C0.900623 4.13032 0.939152 4.1351 0.972149 4.16816L4.85438 8.05817C5.23814 8.44268 5.8626 8.44268 6.24636 8.05798L6.7026 7.60104V7.60085L7.51265 6.78921C7.51265 6.78921 7.51285 6.78921 7.51285 6.78902L7.51304 6.78883L7.96908 6.33189C8.35284 5.94738 8.35284 5.32169 7.96908 4.93718L4.08686 1.04737C4.0365 0.996914 4.0365 0.914547 4.08686 0.864094C4.13473 0.816126 4.20988 0.812877 4.26176 0.85645L9.33189 5.13001C9.76944 5.6139 10.0191 6.23882 10.0357 6.89203L10.0401 8.36279C10.0428 9.14634 10.3748 9.89969 10.952 10.4306L11.6467 11.0645C11.7998 11.2042 12.0367 11.1931 12.1761 11.0398C12.3154 10.8864 12.3043 10.649 12.1513 10.5093L11.4578 9.87637C11.035 9.48766 10.7916 8.93497 10.7897 8.36031L10.7851 6.88572C10.7851 6.88304 10.7851 6.88037 10.7849 6.87769C10.7647 6.033 10.4389 5.22556 9.86747 4.60408C9.85679 4.59242 9.84535 4.58134 9.83314 4.57102L4.74413 0.281788C4.39242 -0.0148121 3.88201 0.00735645 3.55699 0.333005C3.21424 0.676426 3.21424 1.23504 3.55699 1.57827L7.43922 5.46827C7.53077 5.56 7.53077 5.70926 7.43922 5.80099L7.24791 5.99248L2.92108 1.65738C2.77479 1.51061 2.53751 1.51061 2.39122 1.65738C2.24493 1.80396 2.24493 2.0417 2.39122 2.18828L6.71805 6.52357L6.43767 6.80431L2.11084 2.46921C1.96454 2.32263 1.72727 2.32263 1.58098 2.46921C1.43449 2.61579 1.43449 2.85353 1.58098 3.00011L5.90762 7.3354L5.7165 7.52708C5.62495 7.61881 5.47598 7.61881 5.38443 7.52708L1.50201 3.63726C1.33607 3.471 1.11539 3.37927 0.880596 3.37927C0.645801 3.37927 0.42512 3.471 0.25918 3.63726C-0.0658327 3.96291 -0.0877673 4.47432 0.208063 4.82691L4.48912 9.92568C4.49923 9.93791 4.51029 9.94937 4.52192 9.96008Z" fill="#8D8F91"/>
</g>
<defs>
<clipPath id="clip0_315_8102">
<rect width="25" height="25" fill="white"/>
</clipPath>
</defs>
</svg>
