<svg width="25" height="25" viewBox="0 0 25 25" fill="none" xmlns="http://www.w3.org/2000/svg">
<g clip-path="url(#clip0_315_8115)">
<path d="M7.94838 22.3709L7.46699 18.0857C7.42529 17.8878 7.23105 17.7613 7.03305 17.8028C6.8351 17.8445 6.70839 18.0388 6.75014 18.2367L7.23154 22.5218C7.26787 22.6943 7.42006 22.8128 7.5896 22.8128C7.6146 22.8128 7.63999 22.8101 7.66547 22.8048C7.86342 22.7631 7.99018 22.5688 7.94838 22.3709Z" fill="#8D8F91"/>
<path d="M11.2261 22.3451L10.9134 17.8915C10.8992 17.6897 10.724 17.5373 10.5223 17.5517C10.3205 17.5659 10.1684 17.741 10.1826 17.9428L10.4953 22.3965C10.5088 22.5895 10.6697 22.7371 10.8603 22.7371C10.8689 22.7371 10.8777 22.7368 10.8864 22.7362C11.0882 22.722 11.2403 22.5469 11.2261 22.3451Z" fill="#8D8F91"/>
<path d="M14.6607 17.6092C14.4593 17.5945 14.2838 17.7471 14.2697 17.9489L14.1396 22.3711C14.1254 22.5728 14.2775 22.7479 14.4793 22.7621C14.4881 22.7627 14.4968 22.763 14.5054 22.763C14.696 22.763 14.8568 22.6155 14.8704 22.4224L15.0005 18.0002C15.0147 17.7984 14.8625 17.6233 14.6607 17.6092Z" fill="#8D8F91"/>
<path d="M18.4309 17.5588C18.2329 17.5169 18.0386 17.6438 17.9969 17.8417L17.0587 22.2953C17.017 22.4933 17.1436 22.6876 17.3416 22.7293C17.3671 22.7347 17.3925 22.7372 17.4175 22.7372C17.5871 22.7372 17.7393 22.6189 17.7756 22.4463L18.7138 17.9927C18.7555 17.7948 18.6288 17.6005 18.4309 17.5588Z" fill="#8D8F91"/>
<path d="M23.4963 13.6679H21.6084V10.0039C21.6084 9.84751 21.5702 9.69155 21.4979 9.55293L20.7003 8.02383C21.0196 7.94365 21.257 7.65508 21.257 7.31128V6.76987C21.257 6.36436 20.9271 6.03442 20.5216 6.03442H15.4492C15.0437 6.03442 14.7137 6.36436 14.7137 6.76987V7.30586C14.5725 7.03706 14.3941 6.78613 14.1805 6.56079C13.7204 6.07544 13.4669 5.43984 13.4669 4.77104V4.41104C13.568 4.32085 13.632 4.19009 13.632 4.04438V0.492139C13.632 0.220752 13.4113 0 13.1399 0H10.9374C10.6661 0 10.4453 0.220752 10.4453 0.49209V4.04434C10.4453 4.19009 10.5094 4.3208 10.6104 4.41099V4.771C10.6104 5.43979 10.3569 6.07539 9.89683 6.56074C9.30708 7.18276 8.98232 7.99736 8.98232 8.85449V11.8485L8.55015 9.32241C8.44604 8.71397 8.08179 8.18447 7.55068 7.86978C7.01963 7.55508 6.38032 7.48984 5.79658 7.69072L5.56943 7.7689C5.40059 6.66675 5.60073 5.49341 5.60327 5.47891C5.63823 5.27979 5.50527 5.08989 5.3061 5.05479C5.10684 5.01953 4.91689 5.15269 4.88174 5.35195C4.87148 5.41016 4.69834 6.4187 4.8001 7.51064L3.63623 4.12871C3.57041 3.9374 3.36191 3.83564 3.17065 3.90151C2.97935 3.96733 2.87764 4.17583 2.94346 4.36709L3.97764 7.37212C3.95532 7.33184 3.93267 7.29141 3.90942 7.25068C3.24155 6.0792 2.55962 5.35361 1.88252 5.09404C1.6937 5.02158 1.48179 5.11606 1.40937 5.30493C1.33696 5.4938 1.4314 5.70566 1.62026 5.77808C2.43027 6.08862 3.2272 7.44292 3.69194 8.41509L3.43286 8.50425C2.84917 8.70513 2.3854 9.15005 2.16045 9.7249C1.93555 10.2998 1.97427 10.9414 2.26665 11.485L3.44077 13.6679H1.50459C1.07344 13.6679 0.722656 14.0187 0.722656 14.4499V15.4826C0.722656 15.9138 1.07344 16.2646 1.50459 16.2646H2.33877L3.96724 23.63C4.14561 24.4367 4.84712 25 5.67319 25H19.3277C20.1538 25 20.8553 24.4367 21.0336 23.63L22.6622 16.2646H23.4963C23.9275 16.2646 24.2783 15.9138 24.2783 15.4826V14.4499C24.2783 14.0187 23.9275 13.6679 23.4963 13.6679ZM20.8483 9.8918C20.8664 9.92627 20.8758 9.96499 20.8758 10.0039V13.668H20.2956V11.1569C20.2956 10.8718 20.0636 10.6398 19.7785 10.6398H16.1923C15.9072 10.6398 15.6752 10.8718 15.6752 11.1569V13.668H15.095V10.1387V10.0039C15.095 9.96504 15.1044 9.92632 15.1225 9.8918L16.0848 8.04673H19.886L20.8483 9.8918ZM19.5629 11.3724V13.6679H16.4079V11.3724H19.5629ZM15.4492 6.76709L20.5245 6.76992L20.5226 7.31406C20.5226 7.31406 20.5224 7.31411 20.5216 7.31411L15.4463 7.31128L15.4492 6.76709ZM15.2705 8.02383L15.0657 8.41641C15.0397 8.21875 14.9961 8.0251 14.9359 7.83701C15.0276 7.92646 15.1424 7.9917 15.2705 8.02383ZM11.1779 0.732617H12.8994V3.80381H11.1779V0.732617ZM10.4284 7.06484C11.0181 6.44277 11.3429 5.62817 11.3429 4.77104V4.53643H12.7343V4.77104C12.7343 5.62817 13.0591 6.44282 13.6488 7.06484C14.1089 7.55015 14.3624 8.18574 14.3624 8.85454V9.77236H11.5759C11.1688 9.77236 10.8377 10.1035 10.8377 10.5105V13.6679H9.71489V8.85454H9.71484C9.71484 8.18574 9.96826 7.55015 10.4284 7.06484ZM14.3624 10.505V13.668H11.5704V10.5105C11.5704 10.5075 11.5729 10.505 11.5759 10.505H14.3624ZM3.23813 11.7446L2.91187 11.1379C2.72148 10.7839 2.69624 10.3662 2.84272 9.99185C2.98916 9.61753 3.29116 9.32778 3.67124 9.19697L6.03496 8.3835C6.41504 8.25269 6.8314 8.29517 7.17715 8.50005C7.52295 8.70498 7.76021 9.04976 7.82798 9.44595L8.55029 13.6679H5.32114L5.98027 13.441C6.17158 13.3752 6.27329 13.1667 6.20742 12.9754C6.1416 12.7841 5.93315 12.6824 5.74185 12.7482L4.08481 13.3186L3.58984 12.3983L5.82964 11.6274C6.02095 11.5616 6.12266 11.3531 6.05679 11.1619C5.99097 10.9706 5.78252 10.8688 5.59121 10.9347L3.23813 11.7446ZM20.3183 23.4719C20.2147 23.9402 19.8074 24.2674 19.3277 24.2674H5.67319C5.19351 24.2674 4.78613 23.9402 4.68262 23.4719L3.08906 16.2646H21.9119L20.3183 23.4719ZM23.5457 15.4826C23.5457 15.5098 23.5235 15.5319 23.4963 15.5319H1.50459C1.47739 15.5319 1.45527 15.5098 1.45527 15.4826V14.4499C1.45527 14.4227 1.47739 14.4005 1.50459 14.4005H23.4963C23.5235 14.4005 23.5457 14.4227 23.5457 14.4499V15.4826H23.5457Z" fill="#8D8F91"/>
</g>
<defs>
<clipPath id="clip0_315_8115">
<rect width="25" height="25" fill="white"/>
</clipPath>
</defs>
</svg>
