<svg width="22" height="22" viewBox="0 0 22 22" fill="none" xmlns="http://www.w3.org/2000/svg">
<path d="M16.9289 15.4275L17.2864 18.3242C17.3781 19.085 16.5622 19.6167 15.9114 19.2225L12.7397 17.3342C12.5197 17.2059 12.4647 16.9309 12.5839 16.7109C13.0422 15.8675 13.2897 14.9142 13.2897 13.9609C13.2897 10.6059 10.4114 7.87421 6.87307 7.87421C6.14891 7.87421 5.44307 7.98421 4.78307 8.20421C4.4439 8.31421 4.1139 8.00254 4.1964 7.65421C5.03057 4.31754 8.23891 1.83337 12.0706 1.83337C16.5439 1.83337 20.1647 5.21587 20.1647 9.38671C20.1647 11.8617 18.8906 14.0525 16.9289 15.4275Z" fill="white"/>
<path d="M11.9154 13.9609C11.9154 15.0518 11.512 16.0601 10.8337 16.8576C9.9262 17.9576 8.48703 18.6634 6.8737 18.6634L4.4812 20.0843C4.07786 20.3318 3.56453 19.9926 3.61953 19.5251L3.8487 17.7193C2.62036 16.8668 1.83203 15.5009 1.83203 13.9609C1.83203 12.3476 2.6937 10.9268 4.0137 10.0834C4.82953 9.55177 5.81036 9.24927 6.8737 9.24927C9.66036 9.24927 11.9154 11.3576 11.9154 13.9609Z" fill="white"/>
</svg>
