<svg width="25" height="25" viewBox="0 0 25 25" fill="none" xmlns="http://www.w3.org/2000/svg">
<path d="M16.4382 2.08398H8.56315C4.62565 2.08398 3.64648 3.13607 3.64648 7.33398V19.0632C3.64648 21.834 5.16732 22.4902 7.01107 20.5111L7.02148 20.5007C7.87565 19.5944 9.17773 19.6673 9.91732 20.6569L10.9694 22.0632C11.8132 23.1777 13.1777 23.1777 14.0215 22.0632L15.0736 20.6569C15.8236 19.6569 17.1257 19.584 17.9798 20.5007C19.834 22.4798 21.3444 21.8236 21.3444 19.0527V7.33398C21.3548 3.13607 20.3757 2.08398 16.4382 2.08398ZM15.6257 12.2402H9.37565C8.94857 12.2402 8.5944 11.8861 8.5944 11.459C8.5944 11.0319 8.94857 10.6777 9.37565 10.6777H15.6257C16.0527 10.6777 16.4069 11.0319 16.4069 11.459C16.4069 11.8861 16.0527 12.2402 15.6257 12.2402ZM16.6673 8.07357H8.33398C7.9069 8.07357 7.55273 7.7194 7.55273 7.29232C7.55273 6.86523 7.9069 6.51107 8.33398 6.51107H16.6673C17.0944 6.51107 17.4486 6.86523 17.4486 7.29232C17.4486 7.7194 17.0944 8.07357 16.6673 8.07357Z" fill="#FF8D2F"/>
</svg>
