<svg width="25" height="25" viewBox="0 0 25 25" fill="none" xmlns="http://www.w3.org/2000/svg">
<path d="M20.3132 13.0212C20.3132 11.5837 21.4798 10.417 22.9173 10.417V9.37533C22.9173 5.20866 21.8757 4.16699 17.709 4.16699H7.29232C3.12565 4.16699 2.08398 5.20866 2.08398 9.37533V9.89616C3.52148 9.89616 4.68815 11.0628 4.68815 12.5003C4.68815 13.9378 3.52148 15.1045 2.08398 15.1045V15.6253C2.08398 19.792 3.12565 20.8337 7.29232 20.8337H17.709C21.8757 20.8337 22.9173 19.792 22.9173 15.6253C21.4798 15.6253 20.3132 14.4587 20.3132 13.0212Z" stroke="#8D8F91" stroke-width="1.2" stroke-linecap="round" stroke-linejoin="round"/>
<path d="M9.375 15.3643L15.625 9.11426" stroke="#8D8F91" stroke-width="1.2" stroke-linecap="round" stroke-linejoin="round"/>
<path d="M15.6186 15.3646H15.628" stroke="#8D8F91" stroke-width="2" stroke-linecap="round" stroke-linejoin="round"/>
<path d="M9.36863 9.63509H9.37798" stroke="#8D8F91" stroke-width="2" stroke-linecap="round" stroke-linejoin="round"/>
</svg>
