<svg width="25" height="25" viewBox="0 0 25 25" fill="none" xmlns="http://www.w3.org/2000/svg">
<g clip-path="url(#clip0_424_1650)">
<path d="M1.24268 11.5229V19.6769H11.2841L11.2846 19.6773L15.8904 16.283V11.5229H1.24268Z" fill="#008893"/>
<path d="M23.2748 15.966C24.2144 17.5941 23.666 19.6864 22.0238 20.6347L19.1773 22.2781L15.7595 16.3585C19.5589 14.1649 18.3689 14.852 18.6061 14.715C20.2407 13.7713 22.331 14.3313 23.2748 15.966Z" fill="white"/>
<path d="M15.7596 16.3586L19.1774 22.2783L16.1043 24.0526C14.4696 24.9964 12.3794 24.4364 11.4356 22.8017C10.4856 21.1517 11.0642 19.0701 12.6865 18.133L15.7596 16.3586Z" fill="#FA5151"/>
<path d="M12.9608 6.64028L15.4998 10.0253C15.7532 10.3637 15.8904 10.7748 15.8904 11.1972V11.5229H1.24268V11.1972C1.24268 10.7748 1.37988 10.3637 1.6333 10.0253L4.17222 6.64028V4.68726H12.9608V6.64028Z" fill="#008893"/>
<path d="M13.9375 1.46479V3.71079C13.9375 4.25029 13.5004 4.6873 12.9609 4.6873H4.17231C3.63281 4.6873 3.1958 4.25029 3.1958 3.71079V1.46479C3.1958 0.925293 3.63281 0.488281 4.17231 0.488281H12.9609C13.5004 0.488281 13.9375 0.925293 13.9375 1.46479Z" fill="#FA5151"/>
<path d="M11.2846 19.6772L11.2841 19.6768H1.24268V20.6533C1.24268 21.7318 2.11714 22.6063 3.1957 22.6063H11.3305L11.331 22.6058L11.2846 19.6772Z" fill="#008893"/>
<path d="M6.1374 7.12856C6.40693 7.12856 6.62564 6.90981 6.62564 6.64033C6.62564 6.3708 6.40688 6.1521 6.1374 6.1521C5.86787 6.1521 5.64917 6.37085 5.64917 6.64033C5.64912 6.90981 5.86787 7.12856 6.1374 7.12856Z" fill="white"/>
<path d="M10.5 15H8.99999V13.5C8.99999 13.2239 8.77607 13 8.5 13C8.22393 13 8.00001 13.2239 8.00001 13.5V15H6.49999C6.22387 15 6 15.2239 6 15.5C6 15.7761 6.22392 16 6.49999 16H8.00001V17.5C8.00001 17.7761 8.22393 18 8.5 18C8.77607 18 8.99999 17.7761 8.99999 17.5V16H10.5C10.7761 16 11 15.7761 11 15.5C11.0001 15.2239 10.7762 15 10.5 15Z" fill="white"/>
<path d="M18.3741 14.2922L16.3908 15.4373V11.1972C16.3908 10.673 16.2174 10.1529 15.9025 9.73247L13.4612 6.47754V5.0915C14.0295 4.88994 14.4377 4.34727 14.4377 3.71069V1.46475C14.4377 0.65708 13.7807 0 12.973 0H4.18438C3.37671 0 2.71958 0.65708 2.71958 1.46475V3.71074C2.71958 4.34722 3.12783 4.88999 3.69609 5.09155V6.47759L1.25464 9.73271C0.939893 10.1529 0.766602 10.673 0.766602 11.1972V20.6533C0.766602 21.9994 1.86177 23.0945 3.20786 23.0945H11.0546C12.1494 24.9296 14.5101 25.5438 16.3605 24.4753L22.2802 21.0575C24.1334 19.9873 24.7945 17.6015 23.7097 15.7219C22.6304 13.8524 20.2438 13.2126 18.3741 14.2922ZM10.9969 19.1885H1.74307V12.0111H15.4143V16.001L12.4543 17.7101C11.8372 18.0666 11.3384 18.574 10.9969 19.1885ZM3.69609 1.46475C3.69609 1.19551 3.91514 0.976514 4.18433 0.976514H12.9729C13.2422 0.976514 13.4612 1.19556 13.4612 1.46475V3.71074C13.4612 3.97998 13.2422 4.19897 12.9729 4.19897H4.18438C3.91514 4.19897 3.69614 3.97993 3.69614 3.71074L3.69609 1.46475ZM4.57495 6.93325C4.63833 6.84878 4.67261 6.74595 4.67261 6.64028V5.17554H12.4847V6.15205H8.09043C7.8208 6.15205 7.6022 6.3707 7.6022 6.64028C7.6022 6.90991 7.82085 7.12852 8.09043 7.12852H12.7289L15.1211 10.3181C15.2774 10.5268 15.3746 10.7766 15.4039 11.0346H1.75347C1.78276 10.7766 1.87988 10.5269 2.03608 10.3183L4.57495 6.93325ZM1.74307 20.6533V20.1602H10.6139C10.4591 20.7932 10.4601 21.4694 10.6374 22.1181H3.20786C2.4002 22.118 1.74307 21.4609 1.74307 20.6533ZM15.8723 23.6296C14.471 24.4388 12.6805 23.9603 11.8708 22.5581C11.0573 21.1423 11.5503 19.3599 12.9427 18.5557L15.593 17.0255L18.5225 22.0995L15.8723 23.6296ZM21.7919 20.2119L19.3682 21.6112L16.4386 16.5372L18.8624 15.1379C20.2645 14.3284 22.0544 14.8078 22.8641 16.21C23.6773 17.6193 23.1828 19.4087 21.7919 20.2119Z" fill="#0DB0BE"/>
</g>
<defs>
<clipPath id="clip0_424_1650">
<rect width="25" height="25" fill="white"/>
</clipPath>
</defs>
</svg>
