<svg width="37" height="19" viewBox="0 0 37 19" fill="none" xmlns="http://www.w3.org/2000/svg">
<path d="M32.1943 17.084C30.6018 17.084 29.3109 15.7974 29.3109 14.2101C29.3109 12.6228 30.6018 11.3361 32.1943 11.3361C33.7868 11.3361 35.0777 12.6228 35.0777 14.2101C35.0762 15.7967 33.7862 17.0825 32.1943 17.084ZM32.1943 12.2941C31.1327 12.2941 30.2721 13.1519 30.2721 14.2101C30.2721 15.2683 31.1327 16.1261 32.1943 16.1261C33.256 16.1261 34.1166 15.2683 34.1166 14.2101C34.1166 13.1519 33.256 12.2941 32.1943 12.2941Z" fill="#BDC3C7"/>
<path d="M13.4523 17.084C11.8598 17.084 10.5689 15.7974 10.5689 14.2101C10.5689 12.6228 11.8598 11.3361 13.4523 11.3361C15.0448 11.3361 16.3356 12.6228 16.3356 14.2101C16.3341 15.7967 15.0441 17.0825 13.4523 17.084ZM13.4523 12.2941C12.3906 12.2941 11.53 13.1519 11.53 14.2101C11.53 15.2683 12.3906 16.1261 13.4523 16.1261C14.5139 16.1261 15.3745 15.2683 15.3745 14.2101C15.3745 13.1519 14.5139 12.2941 13.4523 12.2941Z" fill="#BDC3C7"/>
<path d="M32.1943 19C29.5402 19 27.3887 16.8556 27.3887 14.2101C27.3887 11.5646 29.5402 9.42017 32.1943 9.42017C34.8485 9.42017 37 11.5646 37 14.2101C36.9971 16.8542 34.8472 18.9971 32.1943 19ZM32.1943 10.3781C30.071 10.3781 28.3498 12.0937 28.3498 14.2101C28.3498 16.3265 30.071 18.042 32.1943 18.042C34.3177 18.042 36.0389 16.3265 36.0389 14.2101C36.0367 12.0948 34.3168 10.3806 32.1943 10.3781Z" fill="#595959"/>
<path d="M13.4523 19C10.7981 19 8.64659 16.8556 8.64659 14.2101C8.64659 11.5646 10.7981 9.42017 13.4523 9.42017C16.1064 9.42017 18.2579 11.5646 18.2579 14.2101C18.2551 16.8542 16.1051 18.9971 13.4523 19ZM13.4523 10.3781C11.3289 10.3781 9.60772 12.0937 9.60772 14.2101C9.60772 16.3265 11.3289 18.042 13.4523 18.042C15.5756 18.042 17.2968 16.3265 17.2968 14.2101C17.2946 12.0948 15.5747 10.3806 13.4523 10.3781Z" fill="#595959"/>
<path d="M18.9788 7.50421L16.5235 6.00879C16.4337 5.95307 16.3698 5.86413 16.3459 5.7614C16.3221 5.65885 16.3401 5.55086 16.3962 5.46156L18.5098 2.12267C18.5655 2.03319 18.6548 1.96949 18.7578 1.94571C18.8609 1.92175 18.9691 1.9399 19.0588 1.9958L21.5824 3.57542L18.9788 7.50421Z" fill="#008893" fill-opacity="0.28"/>
<path d="M4.4975e-05 17.7929C0.0055694 18.4096 0.508716 18.9066 1.12748 18.9066H6.82485C7.32492 18.9066 7.73032 18.5025 7.73032 18.0041C7.73032 17.5057 7.32492 17.1016 6.82485 17.1016H3.79076C3.37861 17.1016 3.15148 16.6244 3.4122 16.3063L7.42234 11.4124C7.58629 11.2123 7.67585 10.9619 7.67585 10.7036C7.67585 10.0847 7.17252 9.58304 6.55162 9.58304H1.0108C0.510726 9.58304 0.105334 9.9871 0.105334 10.4855C0.105334 10.984 0.510726 11.388 1.0108 11.388H3.8815C4.29365 11.388 4.52078 11.8652 4.26006 12.1834L0.254242 17.072C0.0876282 17.2753 -0.00230665 17.5303 4.4975e-05 17.7929Z" fill="#008893"/>
<path d="M15.6361 14.7033H13.4395C13.2585 14.7031 13.0956 14.5946 13.0264 14.428C12.9572 14.2615 12.9954 14.0697 13.1232 13.9424L17.2755 9.8037C17.4509 9.63474 17.7298 9.63718 17.9024 9.80921C18.075 9.98124 18.0774 10.2592 17.9079 10.4341L14.5191 13.8118H15.6361C15.883 13.8118 16.0832 14.0113 16.0832 14.2574C16.0832 14.5038 15.883 14.7033 15.6361 14.7033Z" fill="#008893" fill-opacity="0.28"/>
<path d="M19.8597 8.78152H17.5916C17.0992 8.7852 16.7008 9.1823 16.6971 9.67308C16.6985 10.1649 17.0982 10.5632 17.5916 10.5646H20.8209L19.8597 8.78152Z" fill="#47210B"/>
<path d="M22.0978 15.9961L20.4998 13.0948L18.5783 9.57985H20.4998L22.9706 14.0658C23.1564 14.4032 23.6428 14.4027 23.828 14.065L25.8696 10.3406C26.1267 9.87158 26.6202 9.57985 27.1564 9.57985H27.7138C28.0912 9.57985 28.4541 9.72487 28.7269 9.98475L32.5285 13.6058C32.7937 13.8584 32.8242 14.2699 32.5992 14.5586C32.3395 14.8918 31.8481 14.9286 31.5414 14.6379L28.3608 11.6229C27.9121 11.1976 27.1802 11.3151 26.8882 11.8593L24.6762 15.982C24.1271 17.0054 22.6581 17.0134 22.0978 15.9961Z" fill="#008893"/>
<path d="M25.2072 1.58597C25.2072 2.4619 24.4949 3.17194 23.616 3.17194C22.7372 3.17194 22.0249 2.4619 22.0249 1.58597C22.0249 0.710039 22.7372 0 23.616 0C24.4949 0 25.2072 0.710039 25.2072 1.58597Z" fill="#008893"/>
<path d="M21.7794 6.10577L20.263 8.48473C20.2029 8.57911 20.1802 8.8431 20.2603 9.0826L20.4998 9.57985H18.5783L18.2579 8.86134C18.2579 8.48473 18.42 8.26184 18.4801 8.16746L18.8905 7.52131L20.8437 4.45628L21.1863 3.9203L21.2578 4.07639L21.3139 4.1931L21.7189 6.04225L21.7794 6.10577Z" fill="#008893"/>
<path d="M27.1194 8.05258C27.1203 8.26294 27.0376 8.46495 26.889 8.61451C26.7406 8.76389 26.5386 8.84847 26.3276 8.84956L23.7061 8.86135H23.0371C22.8624 8.86117 22.7084 8.74773 22.6572 8.58148L21.719 6.04624L21.7189 6.04225L21.1581 4.23829V4.2343L21.1024 4.05189L21.4127 3.56819C21.4345 3.53317 21.4808 3.52262 21.5158 3.54467L21.5718 3.57998L22.1964 3.97657L22.3993 4.10344L22.6777 4.27859C22.7536 4.32705 22.811 4.39965 22.8403 4.48441L23.8461 7.00658C23.9017 7.16721 24.0537 7.27466 24.2242 7.27375L26.3218 7.26358C26.5326 7.26231 26.7353 7.34472 26.885 7.49282C27.0347 7.64093 27.119 7.8424 27.1194 8.05258Z" fill="#47210B"/>
</svg>
