<svg width="24" height="25" viewBox="0 0 24 25" fill="none" xmlns="http://www.w3.org/2000/svg">
<path d="M22.9432 15.7219C21.8639 13.8524 19.4773 13.2126 17.6076 14.2922L15.6243 15.4373V11.1972C15.6243 10.673 15.4509 10.1529 15.136 9.73247L12.6948 6.47754V5.0915C13.263 4.88994 13.6713 4.34727 13.6713 3.71069V1.46475C13.6712 0.65708 13.0141 0 12.2064 0H3.41782C2.61016 0 1.95303 0.65708 1.95303 1.46475V3.71074C1.95303 4.34722 2.36128 4.88999 2.92954 5.09155V6.47759L0.488086 9.73271C0.17334 10.1529 0 10.673 0 11.1972V20.6533C0 21.9994 1.09517 23.0945 2.44126 23.0945H10.288C11.3828 24.9296 13.7435 25.5438 15.5939 24.4753L21.5136 21.0575C23.3669 19.9873 24.028 17.6015 22.9432 15.7219ZM2.92954 1.46475C2.92954 1.19551 3.14858 0.976465 3.41777 0.976465H12.2064C12.4756 0.976465 12.6947 1.19551 12.6947 1.46475V3.71074C12.6947 3.97998 12.4756 4.19897 12.2064 4.19897H3.41782C3.14858 4.19897 2.92959 3.97993 2.92959 3.71074L2.92954 1.46475ZM1.26953 10.3183L3.8084 6.93325C3.87178 6.84878 3.90605 6.74595 3.90605 6.64028V5.17554H11.7182V6.15205H7.32388C7.05425 6.15205 6.8356 6.3707 6.8356 6.64033C6.8356 6.90996 7.05425 7.12861 7.32388 7.12861H11.9623L14.3545 10.3182C14.5109 10.5269 14.608 10.7767 14.6374 11.0347H0.986914C1.01621 10.7766 1.11333 10.5269 1.26953 10.3183ZM2.44131 22.118C1.63364 22.118 0.976562 21.4609 0.976562 20.6533V20.1602H9.84741C9.69258 20.7932 9.6936 21.4694 9.8709 22.1181H2.44131V22.118ZM10.2304 19.1885H0.976514V12.0111H14.6477V16.001L11.6878 17.7101C11.0707 18.0666 10.5718 18.574 10.2304 19.1885ZM15.1057 23.6296C13.7045 24.4388 11.914 23.9603 11.1043 22.5581C10.2908 21.1423 10.7838 19.3599 12.1762 18.5557L14.8264 17.0255L17.756 22.0995L15.1057 23.6296ZM21.0253 20.2119L18.6017 21.6112L15.6721 16.5372L18.0958 15.1379C19.4979 14.3285 21.2878 14.8078 22.0975 16.2101C22.9107 17.6193 22.4162 19.4087 21.0253 20.2119Z" fill="#8D8F91"/>
<path d="M5.48828 6C5.21875 6 5 6.21875 5 6.48828C5 6.75781 5.21875 6.97656 5.48828 6.97656C5.75781 6.97656 5.97656 6.75781 5.97656 6.48828C5.97656 6.21875 5.75781 6 5.48828 6Z" fill="#8D8F91"/>
<path d="M9.39429 14.953H7.92954V13.4883C7.92954 13.2187 7.71089 13 7.44126 13C7.17163 13 6.95303 13.2187 6.95303 13.4883V14.953H5.48828C5.21865 14.953 5 15.1717 5 15.4413C5 15.7108 5.21865 15.9295 5.48828 15.9295H6.95303V17.3943C6.95303 17.6639 7.17168 17.8826 7.44126 17.8826C7.71084 17.8826 7.92954 17.6639 7.92954 17.3943V15.9295H9.39429C9.66392 15.9295 9.88257 15.7109 9.88257 15.4413C9.88257 15.1716 9.66396 14.953 9.39429 14.953Z" fill="#8D8F91"/>
</svg>
