<svg width="28" height="28" viewBox="0 0 28 28" fill="none" xmlns="http://www.w3.org/2000/svg">
<path d="M22.7507 14.5837C22.7507 12.9737 24.0573 11.667 25.6673 11.667V10.5003C25.6673 5.83366 24.5007 4.66699 19.834 4.66699H8.16732C3.50065 4.66699 2.33398 5.83366 2.33398 10.5003V11.0837C3.94398 11.0837 5.25065 12.3903 5.25065 14.0003C5.25065 15.6103 3.94398 16.917 2.33398 16.917V17.5003C2.33398 22.167 3.50065 23.3337 8.16732 23.3337H19.834C24.5007 23.3337 25.6673 22.167 25.6673 17.5003C24.0573 17.5003 22.7507 16.1937 22.7507 14.5837Z" stroke="#414449" stroke-width="1.5" stroke-linecap="round" stroke-linejoin="round"/>
<path d="M11.666 4.66699L11.666 23.3337" stroke="#414449" stroke-width="1.5" stroke-linecap="round" stroke-linejoin="round" stroke-dasharray="5 5"/>
</svg>
