<svg width="22" height="22" viewBox="0 0 22 22" fill="none" xmlns="http://www.w3.org/2000/svg">
<path d="M10.9999 12.8334H11.9166C12.9249 12.8334 13.7499 12.0084 13.7499 11V1.83337H5.49994C4.12494 1.83337 2.92411 2.5942 2.30078 3.71253" stroke="#FF8D2F" stroke-width="1.5" stroke-linecap="round" stroke-linejoin="round"/>
<path d="M1.83203 15.5833C1.83203 17.1049 3.06036 18.3333 4.58203 18.3333H5.4987C5.4987 17.3249 6.3237 16.4999 7.33203 16.4999C8.34036 16.4999 9.16536 17.3249 9.16536 18.3333H12.832C12.832 17.3249 13.657 16.4999 14.6654 16.4999C15.6737 16.4999 16.4987 17.3249 16.4987 18.3333H17.4154C18.937 18.3333 20.1654 17.1049 20.1654 15.5833V12.8333H17.4154C16.9112 12.8333 16.4987 12.4208 16.4987 11.9166V9.16659C16.4987 8.66242 16.9112 8.24992 17.4154 8.24992H18.5978L17.0304 5.50909C16.7004 4.94076 16.0954 4.58325 15.4354 4.58325H13.7487V10.9999C13.7487 12.0083 12.9237 12.8333 11.9154 12.8333H10.9987" stroke="#FF8D2F" stroke-width="1.5" stroke-linecap="round" stroke-linejoin="round"/>
<path d="M7.33333 20.1667C8.34586 20.1667 9.16667 19.3459 9.16667 18.3333C9.16667 17.3208 8.34586 16.5 7.33333 16.5C6.32081 16.5 5.5 17.3208 5.5 18.3333C5.5 19.3459 6.32081 20.1667 7.33333 20.1667Z" stroke="#FF8D2F" stroke-width="1.5" stroke-linecap="round" stroke-linejoin="round"/>
<path d="M14.6654 20.1667C15.6779 20.1667 16.4987 19.3459 16.4987 18.3333C16.4987 17.3208 15.6779 16.5 14.6654 16.5C13.6528 16.5 12.832 17.3208 12.832 18.3333C12.832 19.3459 13.6528 20.1667 14.6654 20.1667Z" stroke="#FF8D2F" stroke-width="1.5" stroke-linecap="round" stroke-linejoin="round"/>
<path d="M20.1667 11V12.8333H17.4167C16.9125 12.8333 16.5 12.4208 16.5 11.9167V9.16667C16.5 8.6625 16.9125 8.25 17.4167 8.25H18.5991L20.1667 11Z" stroke="#FF8D2F" stroke-width="1.5" stroke-linecap="round" stroke-linejoin="round"/>
<path d="M1.83203 7.33325H7.33203" stroke="#FF8D2F" stroke-width="1.5" stroke-linecap="round" stroke-linejoin="round"/>
<path d="M1.83203 10.0833H5.4987" stroke="#FF8D2F" stroke-width="1.5" stroke-linecap="round" stroke-linejoin="round"/>
<path d="M1.83203 12.8333H3.66536" stroke="#FF8D2F" stroke-width="1.5" stroke-linecap="round" stroke-linejoin="round"/>
</svg>
