<svg width="25" height="25" viewBox="0 0 25 25" fill="none" xmlns="http://www.w3.org/2000/svg">
<path d="M12.5007 2.08301C9.77148 2.08301 7.55273 4.30176 7.55273 7.03092C7.55273 9.70801 9.64648 11.8747 12.3757 11.9684C12.459 11.958 12.5423 11.958 12.6048 11.9684C12.6257 11.9684 12.6361 11.9684 12.6569 11.9684C12.6673 11.9684 12.6673 11.9684 12.6777 11.9684C15.3444 11.8747 17.4382 9.70801 17.4486 7.03092C17.4486 4.30176 15.2298 2.08301 12.5007 2.08301Z" fill="#FF8D2F"/>
<path d="M17.791 14.7393C14.8848 12.8018 10.1452 12.8018 7.2181 14.7393C5.89518 15.6247 5.16602 16.8226 5.16602 18.1038C5.16602 19.3851 5.89518 20.5726 7.20768 21.4476C8.66602 22.4268 10.5827 22.9163 12.4993 22.9163C14.416 22.9163 16.3327 22.4268 17.791 21.4476C19.1035 20.5622 19.8327 19.3747 19.8327 18.083C19.8223 16.8018 19.1035 15.6143 17.791 14.7393Z" fill="#FF8D2F"/>
</svg>
