<svg width="28" height="28" viewBox="0 0 28 28" fill="none" xmlns="http://www.w3.org/2000/svg">
<path d="M23.1706 9.43787C23.1706 9.92787 23.1356 10.4062 23.0773 10.8612C22.5406 10.6279 21.9573 10.4995 21.339 10.4995C19.9157 10.4995 18.6557 11.1879 17.874 12.2379C17.0807 11.1879 15.8206 10.4995 14.3973 10.4995C12.0056 10.4995 10.069 12.4479 10.069 14.8629C10.069 17.9895 11.7257 20.3812 13.569 22.0029C13.5107 22.0379 13.4523 22.0496 13.394 22.0729C13.044 22.2012 12.4607 22.2012 12.1107 22.0729C9.08899 21.0346 2.33398 16.7412 2.33398 9.43787C2.33398 6.21787 4.92397 3.61621 8.12064 3.61621C10.0223 3.61621 11.7023 4.5262 12.7523 5.93787C13.814 4.5262 15.494 3.61621 17.384 3.61621C20.5806 3.61621 23.1706 6.21787 23.1706 9.43787Z" stroke="#414449" stroke-width="1.5" stroke-linecap="round" stroke-linejoin="round"/>
<path d="M25.6667 14.8633C25.6667 20.3233 20.615 23.5433 18.3517 24.3133C18.0834 24.4067 17.6517 24.4067 17.3833 24.3133C16.415 23.9867 14.9334 23.205 13.5684 22.0033C11.725 20.3816 10.0684 17.99 10.0684 14.8633C10.0684 12.4483 12.005 10.5 14.3967 10.5C15.82 10.5 17.08 11.1883 17.8734 12.2383C18.655 11.1883 19.915 10.5 21.3384 10.5C21.9567 10.5 22.54 10.6283 23.0767 10.8617C24.605 11.5383 25.6667 13.0667 25.6667 14.8633Z" stroke="#414449" stroke-width="1.5" stroke-linecap="round" stroke-linejoin="round"/>
</svg>
