<svg width="10" height="172" viewBox="0 0 10 172" fill="none" xmlns="http://www.w3.org/2000/svg">
<g clip-path="url(#clip0_122_7635)">
<path d="M17.5 9.17881C17.5 13.9813 13.6852 17.8576 9 17.8576C4.31481 17.8576 0.5 13.9813 0.5 9.17881C0.5 4.37632 4.31481 0.5 9 0.5C13.6852 0.5 17.5 4.37632 17.5 9.17881Z" fill="white" stroke="#EBEBEB"/>
<path d="M14.5 26.5166C14.5 29.066 12.4761 31.1159 10 31.1159C7.52395 31.1159 5.5 29.066 5.5 26.5166C5.5 23.9671 7.52395 21.9172 10 21.9172C12.4761 21.9172 14.5 23.9671 14.5 26.5166Z" fill="white" stroke="#EBEBEB"/>
<path d="M14.5 39.7749C14.5 42.3243 12.4761 44.3742 10 44.3742C7.52395 44.3742 5.5 42.3243 5.5 39.7749C5.5 37.2254 7.52395 35.1755 10 35.1755C12.4761 35.1755 14.5 37.2254 14.5 39.7749Z" fill="white" stroke="#EBEBEB"/>
<path d="M14.5 53.0332C14.5 55.5826 12.4761 57.6325 10 57.6325C7.52395 57.6325 5.5 55.5826 5.5 53.0332C5.5 50.4837 7.52395 48.4338 10 48.4338C12.4761 48.4338 14.5 50.4837 14.5 53.0332Z" fill="white" stroke="#EBEBEB"/>
<path d="M14.5 66.2914C14.5 68.8408 12.4761 70.8907 10 70.8907C7.52395 70.8907 5.5 68.8408 5.5 66.2914C5.5 63.7419 7.52395 61.692 10 61.692C12.4761 61.692 14.5 63.7419 14.5 66.2914Z" fill="white" stroke="#EBEBEB"/>
<path d="M14.5 79.5497C14.5 82.0991 12.4761 84.149 10 84.149C7.52395 84.149 5.5 82.0991 5.5 79.5497C5.5 77.0002 7.52395 74.9503 10 74.9503C12.4761 74.9503 14.5 77.0002 14.5 79.5497Z" fill="white" stroke="#EBEBEB"/>
<path d="M14.5 92.808C14.5 95.3574 12.4761 97.4073 10 97.4073C7.52395 97.4073 5.5 95.3574 5.5 92.808C5.5 90.2585 7.52395 88.2086 10 88.2086C12.4761 88.2086 14.5 90.2585 14.5 92.808Z" fill="white" stroke="#EBEBEB"/>
<path d="M14.5 106.066C14.5 108.616 12.4761 110.666 10 110.666C7.52395 110.666 5.5 108.616 5.5 106.066C5.5 103.517 7.52395 101.467 10 101.467C12.4761 101.467 14.5 103.517 14.5 106.066Z" fill="white" stroke="#EBEBEB"/>
<path d="M14.5 119.325C14.5 121.874 12.4761 123.924 10 123.924C7.52395 123.924 5.5 121.874 5.5 119.325C5.5 116.775 7.52395 114.725 10 114.725C12.4761 114.725 14.5 116.775 14.5 119.325Z" fill="white" stroke="#EBEBEB"/>
<path d="M14.5 132.583C14.5 135.132 12.4761 137.182 10 137.182C7.52395 137.182 5.5 135.132 5.5 132.583C5.5 130.033 7.52395 127.984 10 127.984C12.4761 127.984 14.5 130.033 14.5 132.583Z" fill="white" stroke="#EBEBEB"/>
<path d="M14.5 145.841C14.5 148.39 12.4761 150.44 10 150.44C7.52395 150.44 5.5 148.39 5.5 145.841C5.5 143.292 7.52395 141.242 10 141.242C12.4761 141.242 14.5 143.292 14.5 145.841Z" fill="white" stroke="#EBEBEB"/>
<path d="M17.5 163.179C17.5 167.981 13.6852 171.858 9 171.858C4.31481 171.858 0.5 167.981 0.5 163.179C0.5 158.376 4.31481 154.5 9 154.5C13.6852 154.5 17.5 158.376 17.5 163.179Z" fill="white" stroke="#EBEBEB"/>
</g>
<defs>
<clipPath id="clip0_122_7635">
<rect width="10" height="172" fill="white"/>
</clipPath>
</defs>
</svg>
