<svg width="22" height="22" viewBox="0 0 22 22" fill="none" xmlns="http://www.w3.org/2000/svg">
<path d="M18.5236 7.1684L11.4653 11.2567C11.1811 11.4217 10.8236 11.4217 10.5303 11.2567L3.47192 7.1684C2.96776 6.87507 2.83942 6.18757 3.22442 5.75674C3.49026 5.45424 3.79276 5.20673 4.11359 5.03257L9.08192 2.28257C10.1453 1.68674 11.8686 1.68674 12.9319 2.28257L17.9003 5.03257C18.2211 5.20673 18.5236 5.4634 18.7894 5.75674C19.1561 6.18757 19.0278 6.87507 18.5236 7.1684Z" fill="#FFB931"/>
<path d="M10.4763 12.9617V19.2134C10.4763 19.9101 9.77047 20.3684 9.14714 20.0659C7.2588 19.1401 4.07797 17.4076 4.07797 17.4076C2.95964 16.7751 2.04297 15.1801 2.04297 13.8692V9.13922C2.04297 8.41505 2.8038 7.95672 3.42714 8.31422L10.018 12.1367C10.293 12.3109 10.4763 12.6226 10.4763 12.9617Z" fill="#FFB931"/>
<path d="M11.5234 12.9617V19.2134C11.5234 19.9101 12.2293 20.3684 12.8526 20.0659C14.7409 19.1401 17.9218 17.4076 17.9218 17.4076C19.0401 16.7751 19.9568 15.1801 19.9568 13.8692V9.13922C19.9568 8.41505 19.1959 7.95672 18.5726 8.31422L11.9818 12.1367C11.7068 12.3109 11.5234 12.6226 11.5234 12.9617Z" fill="#FFB931"/>
</svg>
