<svg width="22" height="22" viewBox="0 0 22 22" fill="none" xmlns="http://www.w3.org/2000/svg">
<path d="M10.9987 1.83325C5.94786 1.83325 1.83203 5.94909 1.83203 10.9999C1.83203 16.0508 5.94786 20.1666 10.9987 20.1666C16.0495 20.1666 20.1654 16.0508 20.1654 10.9999C20.1654 5.94909 16.0495 1.83325 10.9987 1.83325ZM15.3804 8.89159L10.1829 14.0891C10.0545 14.2174 9.88036 14.2908 9.69703 14.2908C9.5137 14.2908 9.33953 14.2174 9.2112 14.0891L6.61703 11.4949C6.3512 11.2291 6.3512 10.7891 6.61703 10.5233C6.88286 10.2574 7.32286 10.2574 7.5887 10.5233L9.69703 12.6316L14.4087 7.91992C14.6745 7.65409 15.1145 7.65409 15.3804 7.91992C15.6462 8.18575 15.6462 8.61659 15.3804 8.89159Z" fill="#277D2A"/>
</svg>
