<?xml version="1.0" encoding="UTF-8" standalone="no"?>
<svg
   width="49"
   height="25"
   viewBox="0 0 49 25"
   fill="none"
   version="1.1"
   id="svg877"
   sodipodi:docname="food-logo.svg"
   inkscape:version="1.2.2 (b0a8486541, 2022-12-01)"
   xmlns:inkscape="http://www.inkscape.org/namespaces/inkscape"
   xmlns:sodipodi="http://sodipodi.sourceforge.net/DTD/sodipodi-0.dtd"
   xmlns="http://www.w3.org/2000/svg"
   xmlns:svg="http://www.w3.org/2000/svg">
  <defs
     id="defs881" />
  <sodipodi:namedview
     id="namedview879"
     pagecolor="#ffffff"
     bordercolor="#000000"
     borderopacity="0.25"
     inkscape:showpageshadow="2"
     inkscape:pageopacity="0.0"
     inkscape:pagecheckerboard="0"
     inkscape:deskcolor="#d1d1d1"
     showgrid="false"
     inkscape:zoom="12.757029"
     inkscape:cx="19.322681"
     inkscape:cy="10.543207"
     inkscape:window-width="1540"
     inkscape:window-height="876"
     inkscape:window-x="60"
     inkscape:window-y="0"
     inkscape:window-maximized="1"
     inkscape:current-layer="svg877" />
  <path
     style="fill:#e9eaeb;stroke-width:0.0980547"
     d="m 37.155551,21.628602 c -0.309266,-0.124958 -0.626386,-0.579418 -0.626386,-0.897671 0,-0.365237 0.08659,-0.354241 0.490274,0.06225 0.370508,0.382266 0.723621,0.443938 0.879042,0.153524 0.140401,-0.262336 0.143715,-0.253322 -0.255435,-0.695134 -0.196318,-0.217301 -0.330752,-0.421287 -0.298738,-0.453299 0.140633,-0.140635 0.757071,0.08808 0.992958,0.36841 0.301795,0.358666 0.315315,0.617938 0.05453,1.045674 -0.276447,0.453406 -0.749801,0.612787 -1.236242,0.416242 z M 21.724236,16.996451 c -0.707224,-1.219318 -2.109189,-2.133767 -3.605739,-2.351891 -1.862723,-0.271498 -3.877672,0.475784 -5.467112,2.027572 -0.295796,0.28879 -0.53781,0.489796 -0.53781,0.446684 0,-0.179912 0.814441,-1.278618 1.249373,-1.685448 0.580893,-0.543356 1.159132,-0.884159 1.986428,-1.170755 0.842531,-0.291877 2.680734,-0.31752 3.578992,-0.04992 1.399361,0.416877 2.473516,1.420629 2.998327,2.801814 0.108278,0.284962 0.183944,0.530099 0.168145,0.544749 -0.01579,0.01464 -0.182569,-0.238615 -0.370604,-0.562801 z m 16.962132,-0.782774 c -0.198489,-0.05803 -0.901334,-0.08051 -1.666929,-0.05333 l -1.323738,0.04701 0.441247,-0.19306 c 0.690873,-0.302284 1.524118,-0.334063 2.318709,-0.08843 0.757292,0.2341 1.095221,0.407668 0.770008,0.395493 -0.107859,-0.004 -0.350543,-0.05249 -0.539297,-0.107678 z M 34.423869,10.584303 C 33.958328,9.7012487 33.179538,8.7320667 32.548039,8.2498828 32.032171,7.8559865 32.113137,7.7939999 32.733457,8.1079168 c 0.699927,0.3542046 0.961997,0.5841769 1.350253,1.1848819 0.362217,0.560426 0.828539,1.7452123 0.762097,1.9362823 -0.01794,0.05156 -0.207799,-0.238592 -0.421938,-0.644778 z m 7.627737,-2.2930798 c 0,-0.3505473 0.01778,-0.4939509 0.03955,-0.3186785 0.02174,0.1752753 0.02174,0.4620821 0,0.637357 -0.02174,0.175272 -0.03955,0.03187 -0.03955,-0.3186785 z"
     id="path533" />
  <path
     style="fill:#fac305;stroke-width:0.0980547"
     d="m 15.986731,22.711614 c -0.932637,-0.227048 -1.546133,-0.926206 -1.6819,-1.916743 l -0.06071,-0.442933 h 0.552628 c 0.52697,0 0.552628,0.0116 0.552628,0.250007 0,0.639396 0.626176,1.198535 1.211202,1.081529 0.431634,-0.08633 0.840829,-0.517101 0.911599,-0.959673 0.05939,-0.37143 0.06002,-0.371863 0.537205,-0.371863 h 0.477741 v 0.34634 c 0,0.823262 -0.688514,1.716538 -1.51142,1.960916 -0.527632,0.156689 -0.554764,0.158127 -0.988972,0.05242 z m 21.016858,-0.01994 c -0.455433,-0.126656 -1.087941,-0.66439 -1.295177,-1.101108 -0.189494,-0.399333 -0.201506,-1.169876 -0.02465,-1.581806 0.111987,-0.260843 0.10319,-0.325591 -0.07766,-0.571625 l -0.203956,-0.277457 0.378835,-0.347174 0.378831,-0.347175 0.215423,0.270164 c 0.184937,0.231936 0.244847,0.254417 0.423368,0.158876 0.297434,-0.15918 1.14536,-0.137336 1.570909,0.04047 0.994008,0.415324 1.465168,1.57167 1.047592,2.571064 -0.385366,0.922323 -1.460838,1.450706 -2.413506,1.185771 z m 0.940944,-1.062569 c 0.287162,-0.109182 0.642871,-0.634905 0.643412,-0.950953 7.07e-4,-0.329792 -0.454156,-0.800881 -0.843578,-0.873938 -0.188019,-0.03528 -0.368047,-0.03794 -0.400059,-0.0059 -0.03203,0.03202 0.10242,0.235997 0.298738,0.453299 0.39915,0.44181 0.395836,0.432797 0.255435,0.695138 -0.155421,0.29041 -0.508534,0.228738 -0.879042,-0.153529 -0.182947,-0.188758 -0.368102,-0.343194 -0.411455,-0.343194 -0.161599,0 -0.07137,0.571358 0.130834,0.828413 0.325753,0.414124 0.729778,0.531638 1.205715,0.350688 z M 7.5089184,21.484291 c -0.064986,-0.0783 -0.1028791,-0.221708 -0.084204,-0.318679 0.031361,-0.16286 0.1871225,-0.176306 2.0427297,-0.176306 H 11.47622 l 0.03309,0.23405 c 0.0182,0.128723 -0.02592,0.271453 -0.09805,0.317174 -0.07213,0.04572 -0.95308,0.08381 -1.9576642,0.08463 -1.4784332,0.0011 -1.8490354,-0.02565 -1.944675,-0.140869 z m 8.4833726,-0.565828 c -0.300751,-0.429381 -0.208558,-0.566511 0.38087,-0.566511 0.293433,0 0.555894,0.03621 0.583247,0.08047 0.02735,0.04426 -0.03558,0.220755 -0.139854,0.392217 -0.229099,0.376726 -0.596796,0.418577 -0.824263,0.09382 z M 5.1096762,18.334814 C 5.0249287,18.250068 4.95559,18.142909 4.95559,18.096681 c 0,-0.04622 0.069339,-0.153384 0.1540862,-0.238133 0.128572,-0.128572 0.4440038,-0.154084 1.9050602,-0.154084 1.4610559,0 1.7764877,0.0255 1.9050606,0.154084 0.1935182,0.193521 0.1935182,0.28275 0,0.476266 -0.1285729,0.128576 -0.4440047,0.154088 -1.9050606,0.154088 -1.4610564,0 -1.7764882,-0.0255 -1.9050602,-0.154088 z m 1.3902735,-2.795407 c -0.1981821,-0.115431 -0.2246019,-0.390189 -0.05393,-0.560861 0.083513,-0.08351 0.6754872,-0.117666 2.0395357,-0.117666 1.3640482,0 1.9560226,0.03417 2.0395356,0.117666 0.176681,0.176682 0.141758,0.450868 -0.072,0.565268 -0.249043,0.133282 -3.723393,0.129413 -3.9531434,-0.0044 z M 36.519393,14.469548 c -0.719179,-0.380113 -1.28075,-1.336803 -1.111333,-1.893259 0.153894,-0.505467 0.594464,-0.707864 0.950007,-0.436422 0.198434,0.151494 0.769719,1.160909 1.003561,1.773218 0.140872,0.368869 0.150544,0.483492 0.05093,0.603519 -0.163066,0.196484 -0.462206,0.180722 -0.893164,-0.04706 z M 9.3588364,11.92512 9.070548,11.636829 9.0967268,9.1060507 9.1229056,6.5752671 10.348588,6.5262402 11.57427,6.4772137 V 6.2320764 5.9869396 L 10.324075,5.959514 9.0738787,5.9320884 V 4.7998467 c 0,-1.1206832 0.00291,-1.1351661 0.286621,-1.4188605 l 0.286621,-0.2866206 h 6.2438143 6.243813 l 0.334927,0.3349257 0.334926,0.3349302 -0.02605,2.7783061 -0.02605,2.7783031 -1.274708,0.0524 c -1.340624,0.05511 -1.508902,0.103371 -1.924597,0.552009 -0.343304,0.3705113 -0.434494,0.5668063 -0.570531,1.2281643 -0.06311,0.30682 -0.203628,0.670846 -0.312258,0.808949 l -0.197512,0.251093 H 14.060007 9.6471252 Z M 16.6718,10.631496 C 17.9112,9.3176667 18.510626,8.1379694 18.508644,7.0165147 18.507315,6.2610651 18.327497,5.7935677 17.823025,5.2339579 16.76047,4.0552726 14.91757,4.0715975 13.817988,5.2694254 c -0.50051,0.5452341 -0.671487,1.0235974 -0.659489,1.8451319 0.01116,0.7643223 0.306515,1.5525734 0.923275,2.4640904 0.536942,0.7935513 1.487934,1.7522563 1.738153,1.7522563 0.111114,0 0.47019,-0.294812 0.851873,-0.699419 z M 15.283236,8.0546432 C 14.430775,7.6713835 14.3655,6.4320634 15.17188,5.9404254 15.862493,5.519372 16.68021,5.8099483 16.9747,6.5810598 c 0.159199,0.4168546 0.158826,0.458995 -0.0073,0.8274016 -0.09627,0.2134949 -0.275985,0.4543148 -0.399357,0.5351499 -0.337034,0.2208332 -0.927152,0.2718318 -1.284806,0.1110319 z m 4.282489,3.4686388 c 0,-0.427102 0.05699,-0.802583 0.14874,-0.980012 0.289297,-0.5594463 0.445138,-0.5851173 3.551686,-0.5851173 2.737522,0 2.841612,0.007 3.264782,0.2206213 0.586029,0.295791 0.889974,0.827083 0.855456,1.495331 l -0.02531,0.490274 -3.897671,0.02565 -3.897667,0.02565 z M 33.009492,5.7302623 c -0.252646,-0.2711834 -0.34149,-0.7171746 -0.283113,-1.4211622 0.03461,-0.417392 0.103999,-0.600246 0.303447,-0.7996915 0.218447,-0.2184502 0.299089,-0.2440883 0.519678,-0.1652323 0.418141,0.1494818 0.644351,0.6713605 0.603159,1.3915101 -0.05725,1.0009201 -0.65376,1.5198936 -1.143171,0.9945759 z"
     id="path531" />
  <path
     style="fill:#032657;stroke-width:0.0980547"
     d="m 20.734208,24.434652 c -0.02246,-0.01957 -2.202961,-0.0632 -4.845532,-0.09696 -5.370089,-0.06861 -7.273777,-0.145353 -6.9132909,-0.278706 0.1267051,-0.04687 1.2265979,-0.107938 2.4442039,-0.135699 1.217608,-0.02776 2.397241,-0.07258 2.621407,-0.09959 L 14.448573,23.774577 13.9666,23.32375 c -0.646659,-0.604875 -1.097419,-1.525871 -1.149857,-2.349405 l -0.03963,-0.622407 h 0.733504 0.733505 l 0.06052,0.441558 c 0.19034,1.388687 1.40855,2.240622 2.668783,1.866375 0.825259,-0.245078 1.513698,-1.137219 1.513698,-1.961593 v -0.34634 h 5.298023 c 4.638726,0 5.30511,-0.01846 5.354948,-0.148329 0.03132,-0.08158 0.0026,-0.213958 -0.06411,-0.294164 -0.105546,-0.127179 -1.297552,-0.145834 -9.318133,-0.145834 -5.058409,0 -9.266902,-0.02679 -9.352208,-0.05952 -0.113978,-0.04374 -0.155101,-0.195007 -0.155101,-0.570532 0,-1.592106 1.355349,-3.744306 2.953279,-4.689599 l 0.621248,-0.367515 h -0.813166 c -1.023965,0 -1.192492,-0.08285 -1.192492,-0.586218 0,-0.728734 -0.448309,-0.688494 7.670077,-0.688494 h 7.23422 v 0.218118 c 0,0.148577 -0.312349,0.515889 -0.97974,1.152138 -1.068618,1.018758 -1.275517,1.3692 -1.275517,2.160469 0,0.79563 0.398611,1.413672 1.176655,1.824402 0.500325,0.264118 2.885321,0.321283 3.686544,0.08836 0.773831,-0.224957 1.674797,-1.112352 1.992442,-1.962427 0.41058,-1.098792 0.385265,-1.616216 -0.187112,-3.824251 -0.799407,-3.0838303 -0.883307,-3.4620823 -0.883307,-3.9822899 0,-0.9816681 0.420319,-1.3126584 1.666929,-1.3126584 0.607721,0 0.832909,0.047878 1.29696,0.2757559 0.838516,0.4117589 1.336813,1.0481982 2.238093,2.8585384 0.42864,0.860982 0.779346,1.600066 0.779346,1.642415 0,0.04235 -0.103471,0.077 -0.229938,0.077 -0.126468,0 -0.297744,0.07722 -0.380621,0.171596 -0.435114,0.495507 -0.270127,1.240379 0.423588,1.912377 0.264624,0.25634 0.481135,0.507981 0.481135,0.559206 0,0.08672 -0.596677,0.296684 -0.846621,0.297911 -0.06117,3.03e-4 -0.463117,0.17668 -0.893219,0.391953 -1.493448,0.747493 -2.696023,2.324418 -3.146087,4.125427 -0.328125,1.31305 -0.702761,1.836493 -1.46615,2.04851 -0.228586,0.06348 -2.214234,0.101478 -5.321234,0.101822 l -4.956571,7.48e-4 -0.131637,0.367702 c -0.180427,0.504009 -0.621504,1.128633 -1.041335,1.474692 l -0.350068,0.288556 7.139883,0.0057 c 3.926937,0.003 7.845877,0.03343 8.708757,0.06729 1.430593,0.05617 1.55159,0.04817 1.372765,-0.09079 -0.874175,-0.679273 -1.415845,-1.55556 -1.499459,-2.425751 -0.04329,-0.45055 -0.02335,-0.495426 0.510638,-1.148097 0.772872,-0.944682 0.801549,-0.963968 1.024291,-0.688893 0.164613,0.203291 0.169757,0.260075 0.04958,0.547698 -0.18099,0.433172 -0.169134,1.15519 0.02572,1.565804 0.349902,0.737367 1.410756,1.312454 2.133507,1.156575 0.167832,-0.03621 0.459584,-0.144381 0.648338,-0.240415 1.553721,-0.790464 1.371471,-3.138145 -0.28208,-3.633559 -0.377688,-0.113156 -1.202023,-0.08717 -1.500116,0.04729 -0.117806,0.05314 -0.211857,0.0015 -0.332373,-0.182405 -0.160128,-0.244385 -0.159314,-0.263196 0.01719,-0.397761 0.372428,-0.283891 1.282553,-0.55802 2.026835,-0.610478 0.755896,-0.05327 0.767804,-0.05042 1.289543,0.308912 1.936186,1.333501 1.904635,4.11842 -0.06315,5.5753 l -0.462036,0.342075 0.413004,0.07737 c 0.396487,0.07427 0.381629,0.08038 -0.371431,0.152576 -1.6252,0.155822 -18.339952,0.380559 -18.491457,0.248626 z m 1.192487,-7.420149 c -0.524811,-1.381185 -1.598966,-2.384937 -2.998327,-2.801814 -0.898258,-0.267596 -2.736461,-0.241953 -3.578992,0.04992 -0.827296,0.286595 -1.405535,0.627399 -1.986428,1.170755 -0.434932,0.40683 -1.249373,1.505536 -1.249373,1.685448 0,0.04311 0.242014,-0.157894 0.53781,-0.446684 1.58944,-1.551788 3.604389,-2.29907 5.467112,-2.027572 1.49655,0.218124 2.898515,1.132573 3.605739,2.351891 0.188035,0.324186 0.354806,0.577447 0.370604,0.562801 0.01579,-0.01464 -0.05987,-0.259788 -0.168145,-0.544749 z M 34.668161,10.503557 C 34.417428,9.7500977 33.819249,8.7911847 33.427892,8.5153289 33.05916,8.2554199 32.351721,7.8990064 32.204571,7.8990064 c -0.06384,0 0.09073,0.157894 0.343468,0.3508768 0.631499,0.4821835 1.410289,1.4513655 1.87583,2.3344198 0.214139,0.406186 0.404009,0.696335 0.421938,0.644778 0.01794,-0.05156 -0.06201,-0.378046 -0.177646,-0.725524 z m -2.449948,10.737316 c -0.252557,-0.471906 0.0022,-1.995106 0.505779,-3.025237 0.401016,-0.820157 1.470746,-1.919193 2.236301,-2.297565 1.190683,-0.588486 2.517961,-0.717406 3.857839,-0.374724 1.148155,0.293649 2.190065,1.006016 2.10691,1.440526 -0.03179,0.166247 -0.185128,0.185655 -1.847581,0.233893 -1.687583,0.04896 -1.85016,0.07015 -2.352184,0.306456 -0.869065,0.409076 -1.289189,0.777071 -2.588075,2.26695 -1.029416,1.18078 -1.526368,1.639367 -1.77652,1.639367 -0.02253,0 -0.08664,-0.08535 -0.142469,-0.189666 z m 7.056485,-5.009733 c -0.0809,-0.05365 -0.449465,-0.19103 -0.819041,-0.305278 -0.794591,-0.24563 -1.627836,-0.213852 -2.318709,0.08843 l -0.441247,0.193061 1.323738,-0.04701 c 0.765595,-0.0272 1.46844,-0.0047 1.666929,0.05333 0.188754,0.05519 0.431438,0.103638 0.539297,0.107678 0.162598,0.0061 0.170977,-0.0093 0.04903,-0.09022 z M 15.066136,10.767102 C 13.891117,9.5876927 13.174582,8.2157507 13.158499,7.1145677 13.146505,6.2930328 13.317478,5.8146699 13.817988,5.2694358 15.1667,3.800207 17.564243,4.191768 18.348011,6.0092682 c 0.376548,0.8731931 0.133748,2.1432839 -0.637984,3.3373015 -0.509282,0.7879633 -1.648845,1.9843453 -1.8901,1.9843453 -0.105642,0 -0.444848,-0.253717 -0.753791,-0.563813 z m 1.501906,-2.8234907 c 0.123373,-0.080835 0.303083,-0.321655 0.399357,-0.5351499 0.166127,-0.3684066 0.1665,-0.410547 0.0073,-0.8274016 -0.406218,-1.0636707 -1.845774,-1.1167626 -2.277295,-0.083989 -0.472379,1.1305598 0.823501,2.1326509 1.870637,1.446541 z M 30.466138,6.5338004 C 29.385954,6.4787963 29.347523,6.4689826 29.092239,6.1830499 28.850852,5.9126752 28.794017,5.8942453 28.389503,5.9551568 c -0.242065,0.036465 -0.734804,0.069543 -1.094978,0.073542 -0.716942,0.00797 -0.963034,-0.1259038 -0.963034,-0.5238398 0,-0.410554 0.30709,-0.5639308 1.245034,-0.6218371 0.887894,-0.054819 1.295196,-0.217338 1.301303,-0.5192436 0.0064,-0.317482 -0.513166,-1.1688943 -0.9088,-1.4891854 C 27.371128,2.3905483 27.374456,2.3913637 26.882585,2.6089432 26.505762,2.7756276 26.369444,2.791541 26.051588,2.7059512 25.064202,2.4400755 24.749388,1.3622635 25.460199,0.6812599 25.719364,0.4329652 25.82911,0.397829 26.345462,0.397829 c 0.555422,0 0.608785,0.02113 0.925081,0.3662647 0.254628,0.2778472 0.335656,0.45311 0.335656,0.7260174 0,0.3156928 0.073,0.4258175 0.596103,0.899196 0.327859,0.2966911 0.73063,0.7778115 0.895051,1.0691475 0.203618,0.36079 0.344406,0.5122655 0.441492,0.4750092 0.0784,-0.030094 0.203645,-0.054697 0.278328,-0.054697 0.07469,0 0.366387,-0.2048008 0.648224,-0.4551152 0.901433,-0.8005997 1.868891,-1.0678503 2.841801,-0.7850159 0.770545,0.2240018 1.275936,0.833646 1.415708,1.7077394 0.08367,0.5232725 -0.169743,1.3617956 -0.53037,1.754928 -0.481024,0.5243842 -0.920429,0.5753827 -3.726398,0.4324973 z m 3.450305,-0.9156227 c 0.291269,-0.3918391 0.335607,-1.3770569 0.08269,-1.8374639 -0.10369,-0.1887583 -0.306023,-0.3851981 -0.449631,-0.4365375 -0.220589,-0.078856 -0.301231,-0.053218 -0.519678,0.1652323 -0.43545,0.4354509 -0.447599,1.7622357 -0.02035,2.2208537 0.266867,0.2864473 0.645488,0.2396555 0.90695,-0.1120846 z"
     id="path527" />
</svg>
