<svg width="49" height="25" viewBox="0 0 49 25" fill="none" xmlns="http://www.w3.org/2000/svg">
<path d="M42.2263 22.479C40.1375 22.479 38.4444 20.786 38.4444 18.6975C38.4444 16.609 40.1375 14.916 42.2263 14.916C44.315 14.916 46.0081 16.609 46.0081 18.6975C46.0061 20.7852 44.3141 22.477 42.2263 22.479ZM42.2263 16.1765C40.8338 16.1765 39.705 17.3051 39.705 18.6975C39.705 20.0898 40.8338 21.2185 42.2263 21.2185C43.6188 21.2185 44.7475 20.0898 44.7475 18.6975C44.7475 17.3051 43.6188 16.1765 42.2263 16.1765Z" fill="#BDC3C7"/>
<path d="M17.644 22.479C15.5553 22.479 13.8622 20.786 13.8622 18.6975C13.8622 16.609 15.5553 14.916 17.644 14.916C19.7328 14.916 21.4259 16.609 21.4259 18.6975C21.4239 20.7852 19.7319 22.477 17.644 22.479ZM17.644 16.1765C16.2516 16.1765 15.1228 17.3051 15.1228 18.6975C15.1228 20.0898 16.2516 21.2185 17.644 21.2185C19.0365 21.2185 20.1653 20.0898 20.1653 18.6975C20.1653 17.3051 19.0365 16.1765 17.644 16.1765Z" fill="#BDC3C7"/>
<path d="M42.2263 25C38.7451 25 35.9231 22.1784 35.9231 18.6975C35.9231 15.2166 38.7451 12.395 42.2263 12.395C45.7075 12.395 48.5294 15.2166 48.5294 18.6975C48.5257 22.1766 45.7058 24.9962 42.2263 25ZM42.2263 13.6555C39.4413 13.6555 37.1838 15.9128 37.1838 18.6975C37.1838 21.4822 39.4413 23.7395 42.2263 23.7395C45.0112 23.7395 47.2688 21.4822 47.2688 18.6975C47.2659 15.9142 45.0101 13.6586 42.2263 13.6555Z" fill="#595959"/>
<path d="M17.644 25C14.1628 25 11.3409 22.1784 11.3409 18.6975C11.3409 15.2166 14.1628 12.395 17.644 12.395C21.1253 12.395 23.9472 15.2166 23.9472 18.6975C23.9434 22.1766 21.1235 24.9962 17.644 25ZM17.644 13.6555C14.8591 13.6555 12.6015 15.9128 12.6015 18.6975C12.6015 21.4822 14.8591 23.7395 17.644 23.7395C20.429 23.7395 22.6866 21.4822 22.6866 18.6975C22.6837 15.9142 20.4279 13.6586 17.644 13.6555Z" fill="#595959"/>
<path d="M24.8926 9.87396L21.6723 7.90631C21.5545 7.83299 21.4707 7.71597 21.4394 7.58079C21.4081 7.44586 21.4318 7.30376 21.5053 7.18626L24.2776 2.79299C24.3507 2.67525 24.4677 2.59143 24.6029 2.56014C24.7381 2.52862 24.8799 2.5525 24.9977 2.62606L28.3076 4.7045L24.8926 9.87396Z" fill="#FEBF8C"/>
<path d="M5.89895e-05 23.4117C0.00730485 24.2231 0.667235 24.8771 1.47881 24.8771H8.95151C9.60741 24.8771 10.1391 24.3455 10.1391 23.6896C10.1391 23.0338 9.60741 22.5021 8.95151 22.5021H4.97198C4.4314 22.5021 4.1335 21.8742 4.47545 21.4556L9.73518 15.0163C9.95023 14.7531 10.0677 14.4236 10.0677 14.0837C10.0677 13.2694 9.40751 12.6093 8.59314 12.6093H1.32577C0.669872 12.6093 0.138157 13.1409 0.138157 13.7968C0.138157 14.4526 0.669871 14.9843 1.32577 14.9843H5.091C5.63158 14.9843 5.92948 15.6121 5.58752 16.0308L0.333466 22.4631C0.114934 22.7306 -0.00302541 23.0662 5.89895e-05 23.4117Z" fill="#FF8D2E"/>
<path d="M20.5084 19.3465H17.6273C17.39 19.3462 17.1762 19.2034 17.0855 18.9843C16.9947 18.7652 17.0449 18.5128 17.2125 18.3452L22.6586 12.8996C22.8887 12.6773 23.2545 12.6805 23.4809 12.9069C23.7072 13.1332 23.7105 13.4989 23.4881 13.729L19.0433 18.1734H20.5084C20.8323 18.1734 21.0949 18.436 21.0949 18.7598C21.0949 19.0839 20.8323 19.3465 20.5084 19.3465Z" fill="#FEBF8C"/>
<path d="M26.0482 11.5546H23.0732C22.4274 11.5595 21.9049 12.082 21.9 12.7277C21.9019 13.3748 22.4261 13.899 23.0732 13.9008H27.3088L26.0482 11.5546Z" fill="#47210B"/>
<path d="M28.9836 21.0475L26.8877 17.2301L24.3674 12.6051H26.8877L30.1283 18.5076C30.372 18.9515 31.01 18.9509 31.2529 18.5065L33.9307 13.606C34.2679 12.9889 34.9152 12.6051 35.6185 12.6051H36.3496C36.8446 12.6051 37.3205 12.7959 37.6784 13.1378L42.6646 17.9024C43.0123 18.2347 43.0524 18.7762 42.7573 19.1561C42.4167 19.5944 41.7721 19.6429 41.3699 19.2603L37.1982 15.2933C36.6096 14.7336 35.6497 14.8882 35.2667 15.6044L32.3655 21.029C31.6453 22.3755 29.7184 22.3861 28.9836 21.0475Z" fill="#FF8D2E"/>
<path d="M33.0619 2.0868C33.0619 3.23935 32.1276 4.17361 30.9749 4.17361C29.8223 4.17361 28.8879 3.23935 28.8879 2.0868C28.8879 0.934261 29.8223 0 30.9749 0C32.1276 0 33.0619 0.934261 33.0619 2.0868Z" fill="#FF8D2E"/>
<path d="M28.5659 8.03391L26.5771 11.1641C26.4983 11.2883 26.4685 11.6357 26.5735 11.9508L26.8877 12.6051H24.3674L23.9472 11.6597C23.9472 11.1641 24.1598 10.8708 24.2386 10.7467L24.7769 9.89646L27.3388 5.86352L27.788 5.15829L27.8819 5.36367L27.9555 5.51723L28.4866 7.95033L28.5659 8.03391Z" fill="#FF8D2E"/>
<path d="M35.5699 10.5955C35.5711 10.8723 35.4627 11.1381 35.2678 11.3349C35.0731 11.5314 34.8082 11.6427 34.5314 11.6442L31.093 11.6597H30.2155C29.9865 11.6594 29.7844 11.5102 29.7173 11.2914L28.4867 7.95558L28.4866 7.95033L27.7511 5.5767V5.57145L27.678 5.33143L28.085 4.69498C28.1137 4.64891 28.1744 4.63503 28.2203 4.66404L28.2937 4.7105L29.1129 5.23232L29.379 5.39926L29.7442 5.62972C29.8438 5.69348 29.919 5.78901 29.9575 5.90054L31.2767 9.21918C31.3496 9.43053 31.549 9.57192 31.7725 9.57072L34.5238 9.55735C34.8003 9.55568 35.0662 9.6641 35.2625 9.85898C35.4588 10.0539 35.5694 10.3189 35.5699 10.5955Z" fill="#47210B"/>
</svg>
