<svg width="26" height="25" viewBox="0 0 26 25" fill="none" xmlns="http://www.w3.org/2000/svg">
<g clip-path="url(#clip0_315_8157)">
<path d="M7.05702 6.72584L7.61306 6.17831L2.67001 1.31748C2.51649 1.16631 2.26768 1.16631 2.11416 1.31748C1.96064 1.46864 1.96064 1.71364 2.11416 1.86481L7.05702 6.72584Z" fill="#FF8D2E"/>
<path d="M6.18081 7.54593L6.73686 6.99841L1.81942 2.15439C1.66591 2.00322 1.41709 2.00322 1.26358 2.15439C1.11006 2.30556 1.11006 2.55056 1.26358 2.70172L6.18081 7.54593Z" fill="#FF8D2E"/>
<path d="M10.5266 6.70931C10.5076 5.92672 10.1984 5.18484 9.66818 4.61801L4.3292 0.19558C4.11921 0.0214808 3.80887 0.0346673 3.61479 0.225775C3.40829 0.429306 3.40829 0.758967 3.61479 0.962306L7.68758 4.9729C7.93736 5.21886 7.93736 5.61751 7.68758 5.86347L5.8803 7.64306C5.63052 7.88902 5.22566 7.88902 4.97588 7.64306L0.902895 3.63266C0.696392 3.42932 0.361408 3.42932 0.154906 3.63266C-0.0391749 3.82377 -0.0525666 4.12935 0.124241 4.33613L4.61547 9.59332C5.19112 10.1154 5.94454 10.4199 6.7393 10.4388L8.28341 10.4434C8.99666 10.4457 9.67672 10.7415 10.159 11.259L22.4391 24.5345C23.0392 25.1738 24.1598 25.0939 24.7848 24.4784C25.4099 23.8628 25.491 22.7593 24.8418 22.1686L11.3598 10.0766C10.8342 9.60173 10.5338 8.93209 10.5315 8.22977L10.5266 6.70931Z" fill="#FFA458"/>
<path d="M25.2841 23.0754C25.2814 23.0491 25.2781 23.0229 25.274 22.9967C25.2661 22.9447 25.2556 22.8929 25.2424 22.8421C25.2358 22.8167 25.2286 22.7915 25.2207 22.7664C25.1494 22.5415 25.0247 22.3349 24.842 22.1686L11.36 10.0766C11.2792 10.0038 11.2045 9.92586 11.1347 9.84426C11.0908 9.79304 11.0485 9.74068 11.0091 9.68659C10.9835 9.65143 10.959 9.61569 10.9353 9.57938C10.841 9.43414 10.762 9.27991 10.6997 9.11919C10.5908 8.83807 10.5328 8.53708 10.5316 8.22958L10.5268 6.70932C10.521 6.4647 10.4866 6.2241 10.4261 5.99171C10.4018 5.89864 10.3735 5.80691 10.3411 5.7167C10.1949 5.31117 9.96668 4.93679 9.66837 4.61802L4.3294 0.19559C4.30319 0.173803 4.27544 0.155075 4.24633 0.139022C4.17394 0.0992711 4.09436 0.0776759 4.01421 0.0738537C3.98218 0.0723249 3.94997 0.0736626 3.91833 0.077867C3.80693 0.0925823 3.6998 0.14227 3.61498 0.225785C3.40829 0.429315 3.40829 0.758976 3.61498 0.962315L7.68777 4.97291C7.7658 5.04974 7.81956 5.14147 7.84886 5.23893C7.86051 5.27792 7.86827 5.31767 7.87215 5.3578C7.87603 5.39794 7.87603 5.43845 7.87215 5.47858C7.86633 5.53878 7.85177 5.59822 7.82829 5.65517C7.79704 5.73085 7.75027 5.80194 7.68777 5.86347L7.12766 6.41501L7.51621 6.73703C8.04644 7.30386 8.3558 8.04574 8.37482 8.82833C8.37482 8.82833 8.37482 8.84476 8.37502 8.87419C8.37812 9.66614 8.82917 10.3796 9.53019 10.7679C9.53077 10.7683 9.53135 10.7686 9.53213 10.769C9.5461 10.7769 9.55969 10.7851 9.57366 10.7931C9.59404 10.8048 9.61422 10.8168 9.63421 10.8292C9.64838 10.8378 9.66216 10.8466 9.67614 10.8556C9.6969 10.869 9.71728 10.8827 9.73766 10.8967C9.7495 10.9049 9.76153 10.9129 9.77318 10.9212C9.80423 10.9433 9.8347 10.9659 9.86478 10.9894C9.87099 10.9942 9.8772 10.9995 9.88341 11.0045C9.90826 11.0242 9.93271 11.0444 9.95678 11.0651C9.96687 11.0737 9.97657 11.0824 9.98647 11.0912C10.0076 11.11 10.0284 11.1291 10.049 11.1486C10.0579 11.157 10.0668 11.1652 10.0756 11.1738C10.1041 11.2015 10.132 11.2298 10.1592 11.259L19.8774 21.765L22.69 24.2876C22.8808 24.4612 23.008 24.6792 23.0772 24.916C23.1855 24.9468 23.2979 24.9659 23.4116 24.9737C23.4866 24.9789 23.5621 24.9793 23.6376 24.9749C23.6397 24.9747 23.6418 24.9745 23.644 24.9745C23.7183 24.9699 23.7928 24.9607 23.8666 24.947C23.8691 24.9466 23.8718 24.9458 23.8745 24.9454C23.9081 24.9389 23.9417 24.9317 23.9751 24.9233C23.9789 24.9223 23.9826 24.9215 23.9863 24.9206C24.0222 24.9114 24.0581 24.9013 24.0934 24.89C24.094 24.8898 24.0944 24.8896 24.095 24.8894C24.128 24.8789 24.1604 24.8671 24.1928 24.8548C24.1994 24.8522 24.206 24.8497 24.2124 24.847C24.2446 24.8344 24.2767 24.8208 24.3081 24.8063C24.3087 24.8059 24.3095 24.8057 24.31 24.8053C24.3421 24.7904 24.3735 24.7744 24.4046 24.7576C24.4117 24.7537 24.4189 24.7497 24.4259 24.7457C24.4509 24.7318 24.4756 24.7172 24.4999 24.702C24.5061 24.6981 24.5125 24.6943 24.5187 24.6903C24.5478 24.6718 24.5761 24.6523 24.6041 24.6318C24.6095 24.6278 24.6148 24.6236 24.62 24.6196C24.6427 24.6026 24.665 24.5848 24.6868 24.5667C24.6941 24.5607 24.7013 24.5546 24.7085 24.5483C24.7347 24.5258 24.7603 24.5026 24.785 24.4784C25.117 24.1514 25.2956 23.6868 25.2927 23.2342C25.2923 23.1811 25.2896 23.128 25.2841 23.0754Z" fill="#FF8D2E"/>
<path d="M20.6179 9.46931C21.5931 9.38828 22.4795 8.87879 23.0307 8.08244L24.2489 6.32233C25.2467 4.88081 25.6388 3.11458 25.3426 1.39442C25.2943 1.11311 25.1495 0.867153 24.9445 0.688276C24.7396 0.509399 24.4743 0.39741 24.1847 0.38365C22.4149 0.300518 20.6812 0.895437 19.3474 2.04381L17.7189 3.44558C16.982 4.08006 16.5746 5.00751 16.6099 5.9707L16.6978 7.48848C16.7382 8.18984 16.4795 8.87611 15.9836 9.38121L3.26334 22.2485C2.65141 22.8767 2.79969 23.9735 3.46111 24.5508C4.12274 25.1283 5.24608 25.1417 5.806 24.4682L17.2543 10.4904C17.7041 9.94517 18.365 9.60997 19.0769 9.56544L20.6179 9.46931Z" fill="#FFA458"/>
<path d="M25.3426 1.39402C25.2943 1.11252 25.1495 0.86675 24.9445 0.687682C24.8677 0.620603 24.7823 0.563079 24.6905 0.516449C24.5985 0.469818 24.5001 0.434272 24.3968 0.41153C24.3279 0.396242 24.2571 0.386686 24.1847 0.383246C24.1212 0.380189 24.0576 0.378469 23.9941 0.377131C23.9749 0.376749 23.9559 0.376749 23.9367 0.376558C23.8913 0.375984 23.8458 0.375793 23.8006 0.376175C23.7799 0.376366 23.7591 0.376749 23.7383 0.37694C23.6912 0.377895 23.6442 0.379233 23.5972 0.380953C23.5805 0.381526 23.5638 0.381909 23.5471 0.382673C23.4829 0.38554 23.4189 0.389171 23.3548 0.393757C23.3705 1.76706 22.9606 3.12183 22.1657 4.27058L20.9474 6.03049C20.5144 6.65637 19.8744 7.1049 19.1469 7.30786C18.5901 7.46304 18.0455 7.65854 17.5299 7.91711C17.0511 8.15714 16.5802 8.39698 16.5744 8.41457C16.5726 8.41953 16.5709 8.42469 16.5692 8.42966C16.5575 8.46406 16.5453 8.49808 16.5323 8.53171C16.5296 8.53859 16.5267 8.54528 16.5239 8.55216C16.5111 8.58389 16.4981 8.61561 16.4841 8.64695C16.4801 8.65574 16.4758 8.66434 16.4719 8.67294C16.4583 8.70218 16.4447 8.73123 16.43 8.76009C16.4248 8.7706 16.4187 8.78092 16.4133 8.79162C16.3993 8.81819 16.3852 8.84475 16.3702 8.87074C16.363 8.88335 16.3553 8.89558 16.3477 8.90801C16.3335 8.9317 16.3194 8.95559 16.3044 8.97891C16.2951 8.99362 16.285 9.00777 16.2751 9.02229C16.2611 9.04293 16.2476 9.06395 16.233 9.08421C16.2208 9.10122 16.2078 9.11765 16.1952 9.13428C16.182 9.15167 16.1692 9.16944 16.1556 9.18645C16.1393 9.2069 16.122 9.22678 16.1049 9.24684C16.094 9.25965 16.0836 9.27283 16.0725 9.28545C16.0438 9.31774 16.0143 9.34966 15.9836 9.38062L3.26334 22.2481C2.65141 22.8763 2.79969 23.9731 3.46111 24.5504C4.12274 25.1279 5.24608 25.1413 5.806 24.4678L17.2543 10.49C17.7041 9.94477 18.365 9.60956 19.0769 9.56504L20.6179 9.46891C21.5931 9.38788 22.4795 8.87838 23.0307 8.08204L24.2489 6.32193C25.2467 4.8804 25.6388 3.11418 25.3426 1.39402Z" fill="#FF8D2E"/>
</g>
<defs>
<clipPath id="clip0_315_8157">
<rect width="25.4386" height="25" fill="white"/>
</clipPath>
</defs>
</svg>
