<svg width="31" height="31" viewBox="0 0 31 31" fill="none" xmlns="http://www.w3.org/2000/svg">
<path d="M27.0856 1.29102H23.2881C22.1644 1.29102 21.3377 1.75602 20.9631 2.58268C20.7564 2.95727 20.666 3.39643 20.666 3.9131V7.7106C20.666 9.35102 21.6477 10.3327 23.2881 10.3327H27.0856C27.6023 10.3327 28.0414 10.2423 28.416 10.0356C29.2427 9.66102 29.7077 8.83435 29.7077 7.7106V3.9131C29.7077 2.27268 28.726 1.29102 27.0856 1.29102ZM28.2998 6.36727C28.1706 6.49643 27.9769 6.58685 27.7702 6.59977H25.9489V7.25852L25.9619 8.39518C25.9489 8.61477 25.8714 8.7956 25.7164 8.9506C25.5873 9.07977 25.3935 9.17018 25.1868 9.17018C24.7606 9.17018 24.4118 8.82143 24.4118 8.39518V6.58685L22.6035 6.59977C22.1773 6.59977 21.8285 6.2381 21.8285 5.81185C21.8285 5.3856 22.1773 5.03685 22.6035 5.03685L23.7402 5.04977H24.4118V3.24143C24.4118 2.81518 24.7606 2.45352 25.1868 2.45352C25.6131 2.45352 25.9619 2.81518 25.9619 3.24143L25.9489 4.15852V5.03685H27.7702C28.1964 5.03685 28.5452 5.3856 28.5452 5.81185C28.5323 6.03143 28.4419 6.21227 28.2998 6.36727Z" fill="#D6D6D6"/>
<path d="M11.6249 13.4081C13.3228 13.4081 14.6991 12.0317 14.6991 10.3339C14.6991 8.63612 13.3228 7.25977 11.6249 7.25977C9.92713 7.25977 8.55078 8.63612 8.55078 10.3339C8.55078 12.0317 9.92713 13.4081 11.6249 13.4081Z" fill="#D6D6D6"/>
<path d="M27.0869 10.334H26.4798V16.2886L26.3119 16.1465C25.3044 15.2811 23.6769 15.2811 22.6694 16.1465L17.2961 20.7577C16.2886 21.6231 14.6611 21.6231 13.6536 20.7577L13.2144 20.3961C12.2973 19.5952 10.8377 19.5177 9.8044 20.2152L4.97357 23.4573C4.6894 22.734 4.52148 21.8944 4.52148 20.9127V10.0886C4.52148 6.44607 6.44607 4.52148 10.0886 4.52148H20.6673V3.9144C20.6673 3.39773 20.7577 2.95857 20.9644 2.58398H10.0886C5.3869 2.58398 2.58398 5.3869 2.58398 10.0886V20.9127C2.58398 22.3207 2.8294 23.5477 3.30732 24.5811C4.41815 27.0352 6.79482 28.4173 10.0886 28.4173H20.9127C25.6144 28.4173 28.4173 25.6144 28.4173 20.9127V10.0369C28.0427 10.2436 27.6036 10.334 27.0869 10.334Z" fill="#D6D6D6"/>
</svg>
