<svg width="25" height="25" viewBox="0 0 25 25" fill="none" xmlns="http://www.w3.org/2000/svg">
<g clip-path="url(#clip0_422_1304)">
<path d="M5.39469 5.2671C5.43073 5.06197 5.29372 4.86636 5.08854 4.83018C4.88327 4.79385 4.68756 4.93106 4.65138 5.13629C4.64079 5.19625 4.46247 6.23526 4.5673 7.36016L3.36823 3.87603C3.3004 3.67896 3.08561 3.57413 2.88859 3.642C2.69152 3.70982 2.58673 3.92457 2.65456 4.12164L3.71998 7.21739C3.69699 7.17589 3.67365 7.13424 3.64972 7.09229C2.96168 5.88546 2.25914 5.13795 1.56164 4.87056C1.36715 4.79591 1.14884 4.89327 1.07418 5.08785C0.999575 5.28243 1.09684 5.50069 1.29147 5.5753C2.12594 5.89522 2.94689 7.29039 3.4257 8.2919L3.70563 9.00411L5.53327 8.4005L5.35983 7.62628C5.1859 6.49078 5.3921 5.28204 5.39469 5.2671Z" fill="#E22627"/>
<path d="M20.1062 7.0918H16.1948L14.8665 9.63843C14.8198 9.72798 14.7954 9.82744 14.7954 9.92842V16.5505C14.7954 16.8969 15.0762 17.1776 15.4225 17.1776H20.8784C21.2247 17.1776 21.5054 16.8968 21.5054 16.5505V9.92842C21.5054 9.82744 21.4811 9.72798 21.4343 9.63843L20.1062 7.0918Z" fill="#3BC18E"/>
<path d="M21.4344 9.63843L20.1061 7.0918H17.3909L18.7191 9.63843C18.7658 9.72798 18.7902 9.82744 18.7902 9.92842V16.5506C18.7902 16.8969 18.5095 17.1776 18.1632 17.1776H20.8784C21.2248 17.1776 21.5055 16.8969 21.5055 16.5506V9.92842C21.5055 9.82744 21.4811 9.72793 21.4344 9.63843Z" fill="#2BAD7B"/>
<path d="M20.7633 7.53481H15.5377C15.3277 7.53481 15.1575 7.36455 15.1575 7.15454V6.59683C15.1575 6.38682 15.3277 6.21655 15.5377 6.21655H20.7633C20.9733 6.21655 21.1436 6.38682 21.1436 6.59683V7.15454C21.1436 7.36455 20.9733 7.53481 20.7633 7.53481Z" fill="#2BAD7B"/>
<path d="M20.7634 6.21655H18.4182V7.53481H20.7634C20.9734 7.53481 21.1437 7.36455 21.1437 7.15454V6.59678C21.1436 6.38682 20.9734 6.21655 20.7634 6.21655Z" fill="#3BC18E"/>
<path d="M19.9977 14.966H16.3032C16.2175 14.966 16.1479 14.8964 16.1479 14.8107V11.1162C16.1479 11.0305 16.2175 10.9609 16.3032 10.9609H19.9977C20.0834 10.9609 20.153 11.0305 20.153 11.1162V14.8107C20.153 14.8964 20.0834 14.966 19.9977 14.966Z" fill="#2BAD7B"/>
<path d="M19.9977 10.9609H18.7903V14.966H19.9977C20.0834 14.966 20.153 14.8964 20.153 14.8107V11.1162C20.153 11.0305 20.0834 10.9609 19.9977 10.9609Z" fill="#3BC18E"/>
<path d="M13.1183 4.53779V0.263672H10.9302V4.53784C10.9302 5.32046 10.63 6.07329 10.0916 6.64121C9.55308 7.20918 9.25293 7.96196 9.25293 8.74458V21.1522C9.25293 21.5769 9.59717 21.9211 10.0218 21.9211H14.0266C14.4512 21.9211 14.7955 21.5769 14.7955 21.1522V8.74458C14.7955 7.96196 14.4953 7.20913 13.9568 6.64121C13.4184 6.07324 13.1183 5.32041 13.1183 4.53779Z" fill="#FFCC6A"/>
<path d="M13.957 6.64121C13.4185 6.07324 13.1184 5.32046 13.1184 4.53784V0.263672H10.9303V4.53784C10.9303 4.97353 10.837 5.39985 10.6616 5.79033C10.8013 6.10127 10.9929 6.38945 11.2316 6.64126C11.7701 7.20923 12.0702 7.96201 12.0702 8.74463V21.1523C12.0702 21.5769 11.726 21.9211 11.3014 21.9211H14.0268C14.4514 21.9211 14.7956 21.5769 14.7956 21.1523V8.74458C14.7956 7.96196 14.4955 7.20913 13.957 6.64121Z" fill="#FFB629"/>
<path d="M13.2882 3.78911V0.12959C13.2882 0.0580078 13.2302 0 13.1586 0H10.8896C10.818 0 10.76 0.0580078 10.76 0.12959V3.78911C10.76 3.86069 10.818 3.9187 10.8896 3.9187H13.1586C13.2302 3.91865 13.2882 3.86064 13.2882 3.78911Z" fill="#FFCC6A"/>
<path d="M14.7956 16.2854H11.5476C11.336 16.2854 11.1646 16.114 11.1646 15.9024V10.4504C11.1646 10.2389 11.336 10.0674 11.5476 10.0674H14.7956V16.2854Z" fill="#FFB629"/>
<path d="M14.7952 10.0674H12.0698V16.2856H14.7952V10.0674Z" fill="#F2A206"/>
<path d="M10.183 21.708L8.05839 9.29007C7.87265 8.20433 6.758 7.54383 5.71645 7.90228L3.28139 8.74032C2.23983 9.09876 1.76776 10.3054 2.28954 11.2754L8.25732 22.3708C8.81108 23.4004 10.3801 22.8604 10.183 21.708Z" fill="#F94849"/>
<path d="M10.1829 21.708L8.05835 9.29007C7.87261 8.20433 6.75796 7.54383 5.71641 7.90228L4.81323 8.21312L8.25723 22.3708C8.81104 23.4004 10.3801 22.8604 10.1829 21.708Z" fill="#E22627"/>
<path d="M19.5333 24.9999H5.46655C4.79927 24.9999 4.22163 24.536 4.07759 23.8845L1.98853 14.436H23.0113L20.9223 23.8845C20.7782 24.536 20.2006 24.9999 19.5333 24.9999Z" fill="#3BC18E"/>
<path d="M20.2944 14.436L18.2054 23.8845C18.0613 24.536 17.4837 24.9999 16.8164 24.9999H19.5334C20.2008 24.9999 20.7784 24.536 20.9224 23.8845L23.0114 14.436H20.2944Z" fill="#3BC18E"/>
<path d="M23.8277 16.0008H1.17207C0.935596 16.0008 0.743896 15.8091 0.743896 15.5727V14.5087C0.743896 14.2723 0.935596 14.0806 1.17207 14.0806H23.8277C24.0642 14.0806 24.2559 14.2723 24.2559 14.5087V15.5727C24.2559 15.8091 24.0642 16.0008 23.8277 16.0008Z" fill="#1D9F6E"/>
<path d="M23.8277 14.0806H21.5305V16.0009H23.8277C24.0642 16.0009 24.2559 15.8092 24.2559 15.5727V14.5088C24.2559 14.2723 24.0642 14.0806 23.8277 14.0806Z" fill="#3BC18E"/>
<path d="M10.435 22.6951C10.4489 22.894 10.6146 23.046 10.811 23.046C10.8199 23.046 10.8288 23.0457 10.8378 23.0451C11.0457 23.0305 11.2024 22.8501 11.1878 22.6422L10.8656 18.0541C10.851 17.8462 10.6706 17.6892 10.4628 17.7041C10.2548 17.7187 10.0982 17.8991 10.1128 18.107L10.435 22.6951Z" fill="#1D9F6E"/>
<path d="M7.52283 23.1156C7.49661 23.1211 7.47044 23.1238 7.44466 23.1238C7.27 23.1238 7.11321 23.0018 7.07576 22.8241L6.10926 18.236C6.06629 18.0321 6.19681 17.8319 6.40071 17.789C6.60472 17.7458 6.80477 17.8766 6.84773 18.0805L7.81424 22.6685C7.85725 22.8724 7.72674 23.0726 7.52283 23.1156Z" fill="#1D9F6E"/>
<path d="M14.9415 22.6951C14.9276 22.894 14.7619 23.046 14.5655 23.046C14.5566 23.046 14.5477 23.0457 14.5387 23.0451C14.3308 23.0305 14.1741 22.8501 14.1887 22.6422L14.5109 18.0541C14.5255 17.8462 14.7059 17.6892 14.9137 17.7041C15.1216 17.7187 15.2783 17.8991 15.2637 18.107L14.9415 22.6951Z" fill="#1D9F6E"/>
<path d="M17.8538 23.1156C17.88 23.1211 17.9062 23.1238 17.932 23.1238C18.1067 23.1238 18.2634 23.0018 18.3009 22.8241L19.2674 18.236C19.3104 18.0321 19.1798 17.8319 18.9759 17.789C18.7719 17.7458 18.5719 17.8766 18.5289 18.0805L17.5624 22.6685C17.5193 22.8724 17.6499 23.0726 17.8538 23.1156Z" fill="#1D9F6E"/>
<path d="M5.62773 11.6013C5.8248 11.5334 5.92959 11.3187 5.86177 11.1216C5.79395 10.9245 5.57925 10.8198 5.38213 10.8876L2.59619 11.8456L2.95845 12.5192L5.62773 11.6013Z" fill="#E22627"/>
<path d="M3.90347 14.0807L5.78301 13.4697C5.98008 13.4018 6.08486 13.1871 6.01704 12.99C5.94922 12.793 5.73452 12.6882 5.5374 12.756L3.4668 13.4642L3.79839 14.0807H3.90347Z" fill="#E22627"/>
</g>
<defs>
<clipPath id="clip0_422_1304">
<rect width="25" height="25" fill="white"/>
</clipPath>
</defs>
</svg>
