<svg width="25" height="25" viewBox="0 0 25 25" fill="none" xmlns="http://www.w3.org/2000/svg">
<path d="M20.8744 7.10442L14.8743 2.9065C13.2389 1.76067 10.7285 1.82317 9.1556 3.04192L3.93685 7.11483C2.89518 7.92733 2.07227 9.594 2.07227 10.9065V18.094C2.07227 20.7503 4.22852 22.9169 6.88477 22.9169H18.1139C20.7702 22.9169 22.9264 20.7607 22.9264 18.1044V11.0419C22.9264 9.63567 22.0202 7.9065 20.8744 7.10442ZM13.2806 18.7502C13.2806 19.1773 12.9264 19.5315 12.4993 19.5315C12.0723 19.5315 11.7181 19.1773 11.7181 18.7502V15.6252C11.7181 15.1982 12.0723 14.844 12.4993 14.844C12.9264 14.844 13.2806 15.1982 13.2806 15.6252V18.7502Z" fill="#FF8D2F"/>
</svg>
