<?xml version="1.0" encoding="UTF-8" standalone="no"?>
<svg
   width="116"
   height="59"
   viewBox="0 0 116 59"
   fill="none"
   version="1.1"
   id="svg26"
   sodipodi:docname="logo.svg"
   inkscape:version="1.2.2 (b0a8486541, 2022-12-01)"
   xmlns:inkscape="http://www.inkscape.org/namespaces/inkscape"
   xmlns:sodipodi="http://sodipodi.sourceforge.net/DTD/sodipodi-0.dtd"
   xmlns="http://www.w3.org/2000/svg"
   xmlns:svg="http://www.w3.org/2000/svg">
  <defs
     id="defs30" />
  <sodipodi:namedview
     id="namedview28"
     pagecolor="#ffffff"
     bordercolor="#000000"
     borderopacity="0.25"
     inkscape:showpageshadow="2"
     inkscape:pageopacity="0.0"
     inkscape:pagecheckerboard="0"
     inkscape:deskcolor="#d1d1d1"
     showgrid="false"
     inkscape:zoom="5.3746676"
     inkscape:cx="38.607039"
     inkscape:cy="29.862312"
     inkscape:window-width="1540"
     inkscape:window-height="876"
     inkscape:window-x="60"
     inkscape:window-y="0"
     inkscape:window-maximized="1"
     inkscape:current-layer="svg26" />
  <path
     style="fill:#e9eaeb;stroke-width:0.235934"
     d="m 85.832665,51.592907 c -0.744139,-0.30067 -1.507175,-1.394166 -1.507175,-2.159928 0,-0.878815 0.20835,-0.852357 1.179669,0.149792 0.891498,0.919788 1.741138,1.06818 2.115105,0.369401 0.337824,-0.63122 0.345799,-0.609531 -0.614615,-1.672595 -0.47237,-0.522857 -0.795838,-1.013677 -0.718806,-1.090703 0.338383,-0.338389 1.821623,0.211926 2.389201,0.886448 0.726164,0.863003 0.758695,1.486849 0.131201,2.516045 -0.665172,1.090961 -1.804131,1.474455 -2.97458,1.00154 z M 48.702666,40.447274 c -1.701683,-2.933859 -5.075015,-5.134155 -8.675933,-5.658995 -4.481984,-0.653262 -9.330247,1.144807 -13.154672,4.878634 -0.711727,0.694873 -1.294048,1.178522 -1.294048,1.074787 0,-0.432893 1.959664,-3.076541 3.006174,-4.055433 1.397714,-1.307393 2.78904,-2.127416 4.779635,-2.817008 2.027253,-0.702299 6.450238,-0.763998 8.611579,-0.120124 3.367067,1.003068 5.951641,3.418241 7.214412,6.741574 0.260533,0.685659 0.442595,1.275495 0.404581,1.310745 -0.03799,0.03523 -0.439287,-0.574142 -0.891728,-1.35418 z m 40.813368,-1.883469 c -0.477592,-0.139625 -2.16874,-0.193727 -4.010875,-0.128319 l -3.185106,0.113106 1.061704,-0.464531 c 1.662343,-0.727339 3.667251,-0.803803 5.579152,-0.212782 1.822157,0.56328 2.635263,0.980909 1.852753,0.951615 -0.259524,-0.0097 -0.843459,-0.126302 -1.297628,-0.259089 z M 79.259838,25.01871 c -1.120159,-2.124758 -2.994041,-4.456752 -4.513519,-5.616956 -1.241255,-0.947772 -1.046439,-1.096921 0.446143,-0.341591 1.684126,0.852268 2.314705,1.405615 3.248904,2.851 0.871547,1.348465 1.993587,4.199233 1.833718,4.658976 -0.04316,0.124055 -0.499996,-0.574088 -1.015246,-1.551429 z m 18.35345,-5.517485 c 0,-0.843468 0.04279,-1.188518 0.09517,-0.766788 0.0523,0.421738 0.0523,1.111837 0,1.533575 -0.0523,0.42173 -0.09517,0.07669 -0.09517,-0.766787 z"
     id="path533" />
  <path
     style="fill:#fac305;stroke-width:0.235934"
     d="m 34.897391,54.198792 c -2.244059,-0.546312 -3.72022,-2.22859 -4.046897,-4.611965 l -0.14608,-1.065762 h 1.329705 c 1.267966,0 1.329703,0.02791 1.329703,0.601553 0,1.53848 1.506671,2.88385 2.914329,2.602317 1.038575,-0.207716 2.023159,-1.244221 2.193441,-2.309113 0.142913,-0.893715 0.144421,-0.894757 1.292593,-0.894757 H 40.9137 v 0.833345 c 0,1.980888 -1.656665,4.130241 -3.636696,4.718249 -1.269561,0.377017 -1.334844,0.380478 -2.379613,0.126133 z m 50.569632,-0.04797 c -1.09584,-0.304753 -2.617745,-1.598619 -3.116386,-2.649427 -0.455951,-0.960853 -0.484853,-2.814893 -0.0593,-3.806055 0.269458,-0.627628 0.24829,-0.78342 -0.186869,-1.375413 l -0.490749,-0.667603 0.911533,-0.835352 0.911522,-0.835353 0.518339,0.650054 c 0.444985,0.558072 0.589138,0.612165 1.018685,0.382278 0.71567,-0.38301 2.755904,-0.330451 3.779836,0.09738 2.391729,0.99933 3.525409,3.781668 2.520661,6.186356 -0.927248,2.219243 -3.51499,3.49061 -5.807248,2.853138 z m 2.264047,-2.556697 c 0.690955,-0.262708 1.546843,-1.527673 1.548145,-2.28813 0.0017,-0.793529 -1.092766,-1.927038 -2.029773,-2.102823 -0.452401,-0.08489 -0.885575,-0.09128 -0.962599,-0.01427 -0.07707,0.07704 0.246436,0.567845 0.718806,1.090705 0.960414,1.06306 0.952439,1.041373 0.614615,1.672604 -0.373967,0.698767 -1.223607,0.550377 -2.115105,-0.369413 -0.440197,-0.45418 -0.885706,-0.825775 -0.990019,-0.825775 -0.388833,0 -0.171717,1.374769 0.314805,1.993283 0.78381,0.996442 1.755951,1.279197 2.901125,0.843805 z M 14.498536,51.245672 c -0.156367,-0.18841 -0.247542,-0.533461 -0.202608,-0.766788 0.07546,-0.391866 0.450244,-0.424218 4.915106,-0.424218 h 4.833408 l 0.07962,0.563158 c 0.04379,0.309728 -0.06238,0.653156 -0.235934,0.763167 -0.173557,0.110011 -2.29325,0.201653 -4.710426,0.203632 -3.557326,0.0027 -4.449049,-0.06171 -4.679172,-0.338951 z M 34.910769,49.884207 C 34.18712,48.851053 34.408949,48.5211 35.8272,48.5211 c 0.706042,0 1.337561,0.08712 1.403377,0.193619 0.06581,0.106489 -0.08561,0.531169 -0.33651,0.943732 -0.551245,0.906458 -1.435979,1.007158 -1.983298,0.225756 z M 8.7256087,43.667569 c -0.2039149,-0.20391 -0.3707533,-0.46175 -0.3707533,-0.572981 0,-0.111223 0.1668384,-0.369066 0.3707533,-0.572984 0.3093636,-0.309363 1.0683383,-0.370748 4.5838533,-0.370748 3.515514,0 4.274489,0.06135 4.583854,0.370748 0.465633,0.465639 0.465633,0.680337 0,1.145965 -0.309365,0.309373 -1.06834,0.370759 -4.583854,0.370759 -3.515515,0 -4.2744897,-0.06135 -4.5838533,-0.370759 z M 12.07081,36.941412 c -0.476855,-0.277743 -0.540425,-0.938852 -0.129764,-1.349514 0.200944,-0.20094 1.625321,-0.28312 4.907421,-0.28312 3.282099,0 4.706475,0.08221 4.90742,0.28312 0.42512,0.425124 0.34109,1.084854 -0.173237,1.360117 -0.599234,0.320698 -8.959027,0.311388 -9.51184,-0.01061 z m 72.231166,-2.574236 c -1.73045,-0.914609 -3.081671,-3.216543 -2.674029,-4.555457 0.370292,-1.21623 1.430367,-1.703224 2.285854,-1.050095 0.477462,0.364517 1.852058,2.793315 2.414715,4.26662 0.338959,0.887553 0.362231,1.163353 0.122543,1.452154 -0.39236,0.472771 -1.112134,0.434845 -2.149083,-0.113222 z m -65.352267,-6.122266 -0.693664,-0.693669 0.06299,-6.089424 0.06299,-6.089433 2.949171,-0.117966 2.949171,-0.117965 v -0.589836 -0.589835 l -3.008154,-0.06599 -3.008154,-0.06599 v -2.724339 c 0,-2.696528 0.007,-2.7313764 0.689652,-3.4139865 L 19.643363,6.9968251 H 34.666892 49.69042 l 0.805882,0.8058809 0.805881,0.8058901 -0.06269,6.6850119 -0.06269,6.685003 -3.067133,0.126071 c -3.225737,0.132598 -3.630639,0.248727 -4.630861,1.328214 -0.826041,0.891504 -1.045457,1.363819 -1.372781,2.955143 -0.151854,0.738254 -0.489959,1.614153 -0.75134,1.946451 l -0.475241,0.604165 H 30.261412 19.643374 Z m 17.596059,-3.112648 c 2.982177,-3.161264 4.424484,-5.999789 4.419716,-8.698172 -0.0032,-1.817722 -0.435867,-2.942589 -1.6497,-4.289092 -2.556662,-2.8360898 -6.99095,-2.7968096 -9.636705,0.08534 -1.2043,1.311913 -1.615695,2.462925 -1.586826,4.439657 0.02686,1.839071 0.737519,3.735718 2.221535,5.928961 1.29196,1.9094 3.580185,4.216184 4.182249,4.216184 0.267356,0 1.131345,-0.709361 2.049731,-1.682903 z M 33.20468,18.931979 c -2.051145,-0.922179 -2.208206,-3.904164 -0.267939,-5.087117 1.661715,-1.013116 3.629263,-0.313947 4.337849,1.54146 0.383055,1.003013 0.382159,1.104409 -0.01758,1.990849 -0.231649,0.5137 -0.664059,1.093148 -0.96091,1.287649 -0.810954,0.531357 -2.230865,0.654066 -3.091432,0.267159 z m 10.304294,8.346049 c 0,-1.027668 0.137118,-1.93113 0.35789,-2.358049 0.696092,-1.34611 1.071068,-1.407879 8.545876,-1.407879 6.586878,0 6.837334,0.01694 7.855543,0.530848 1.410071,0.711716 2.141407,1.990082 2.058351,3.597984 l -0.0609,1.17967 -9.378365,0.06171 -9.378356,0.06171 z M 75.856641,13.339179 c -0.607902,-0.652507 -0.821674,-1.725627 -0.681211,-3.4195247 0.08329,-1.0043055 0.250236,-1.4442794 0.730139,-1.924175 0.525615,-0.5256227 0.719651,-0.5873119 1.25042,-0.3975723 1.006109,0.3596743 1.550403,1.6153911 1.451289,3.348177 -0.137761,2.40836 -1.573043,3.657086 -2.750637,2.393095 z"
     id="path531" />
  <path
     style="fill:#032657;stroke-width:0.235934"
     d="M 46.320515,58.344672 C 46.26648,58.297594 41.01987,58.192608 34.661458,58.111374 21.740239,57.946298 17.159687,57.761633 18.027069,57.440766 c 0.304871,-0.112783 2.951373,-0.259714 5.881113,-0.326512 2.929741,-0.06679 5.76811,-0.174643 6.307488,-0.23964 l 0.980689,-0.118179 -1.159697,-1.084756 c -1.555956,-1.455419 -2.64055,-3.67147 -2.766725,-5.653011 l -0.09536,-1.497603 h 1.764918 1.764919 l 0.145625,1.062454 c 0.457987,3.341382 3.389177,5.391263 6.421482,4.490771 1.985695,-0.589694 3.642179,-2.736317 3.642179,-4.71988 v -0.833345 h 12.747818 c 11.161452,0 12.764869,-0.04441 12.884787,-0.356902 0.07535,-0.196301 0.0063,-0.514814 -0.154267,-0.707801 -0.253961,-0.30601 -3.122101,-0.350899 -22.42079,-0.350899 -12.171272,0 -22.297521,-0.06447 -22.502779,-0.143209 -0.274247,-0.105241 -0.373196,-0.469214 -0.373196,-1.372783 0,-3.830838 3.261169,-9.009346 7.106021,-11.283859 l 1.494822,-0.884299 h -1.956595 c -2.46381,0 -2.86931,-0.199343 -2.86931,-1.410527 0,-1.75344 -1.078698,-1.656618 18.455327,-1.656618 h 17.406588 v 0.524824 c 0,0.357498 -0.751557,1.241305 -2.357397,2.772214 -2.57125,2.451279 -3.069079,3.294495 -3.069079,5.198403 0,1.914403 0.959115,3.401502 2.831203,4.389777 1.203854,0.635508 6.942503,0.773055 8.870363,0.212611 1.86195,-0.541281 4.029806,-2.676483 4.794107,-4.721886 0.987916,-2.643854 0.927003,-3.888852 -0.45022,-9.201708 -1.923488,-7.420144 -2.125365,-8.330275 -2.125365,-9.58197 0,-2.362036 1.01135,-3.158447 4.010876,-3.158447 1.462265,0 2.004099,0.115201 3.120674,0.663509 2.017592,0.990752 3.216568,2.522117 5.38518,6.87806 1.03137,2.071648 1.87522,3.849992 1.87522,3.95189 0,0.101894 -0.248967,0.185262 -0.553266,0.185262 -0.304299,0 -0.716415,0.185797 -0.915829,0.412883 -1.046948,1.192263 -0.649964,2.984535 1.019215,4.60146 0.636723,0.616791 1.157682,1.222277 1.157682,1.345531 0,0.208662 -1.435692,0.713864 -2.037095,0.716816 -0.147177,7.31e-4 -1.114326,0.425118 -2.149216,0.943097 -3.593453,1.798577 -6.487024,5.59289 -7.569945,9.926381 -0.789517,3.159389 -1.690946,4.41887 -3.52777,4.929013 -0.550011,0.152752 -5.327771,0.244171 -12.803667,0.245 l -11.926233,0.0018 -0.316739,0.884743 c -0.434132,1.21272 -1.495428,2.715657 -2.505603,3.548324 l -0.842316,0.694309 17.179603,0.01373 c 9.448784,0.0071 18.878325,0.08044 20.95454,0.161919 3.442217,0.13515 3.733353,0.115898 3.303073,-0.218453 -2.103393,-1.634429 -3.406729,-3.742904 -3.607917,-5.836711 -0.104171,-1.084089 -0.05618,-1.192067 1.22867,-2.762488 1.859643,-2.273042 1.928644,-2.319448 2.464594,-1.657578 0.396082,0.489149 0.40846,0.625779 0.119292,1.317843 -0.435489,1.042275 -0.406962,2.779555 0.06188,3.767551 0.841916,1.774214 3.394486,3.157956 5.13353,2.782889 0.403829,-0.08712 1.105828,-0.347402 1.559997,-0.578473 3.73848,-1.901972 3.299959,-7.550835 -0.678726,-8.742874 -0.908772,-0.27227 -2.892242,-0.20975 -3.609499,0.113782 -0.283458,0.127864 -0.509759,0.0036 -0.799738,-0.438893 -0.385291,-0.588025 -0.383331,-0.633289 0.04137,-0.957072 0.896115,-0.683083 3.086009,-1.342678 4.876861,-1.468899 1.818795,-0.128186 1.847448,-0.12132 3.102828,0.743289 4.658746,3.208597 4.582831,9.909519 -0.151955,13.414985 l -1.111725,0.823083 0.993746,0.186154 c 0.954007,0.17871 0.918256,0.193397 -0.893716,0.36712 -3.91047,0.374931 -44.128605,0.91568 -44.493146,0.598229 z m 2.869298,-17.853963 c -1.262771,-3.323333 -3.847345,-5.738506 -7.214412,-6.741574 -2.161341,-0.643874 -6.584326,-0.582175 -8.611579,0.120124 -1.990595,0.689592 -3.381921,1.509615 -4.779635,2.817008 -1.04651,0.978892 -3.006174,3.62254 -3.006174,4.055433 0,0.103735 0.582321,-0.379914 1.294048,-1.074787 3.824425,-3.733827 8.672688,-5.531896 13.154672,-4.878634 3.600918,0.52484 6.97425,2.725136 8.675933,5.658995 0.452441,0.780038 0.853715,1.38942 0.891728,1.35418 0.03799,-0.03522 -0.144048,-0.625086 -0.404581,-1.310745 z M 79.847641,24.824423 c -0.603301,-1.812934 -2.042606,-4.120218 -2.984268,-4.783968 -0.887224,-0.625379 -2.589424,-1.482962 -2.94349,-1.482962 -0.153597,0 0.218303,0.379916 0.826436,0.844261 1.519478,1.160204 3.39336,3.492198 4.513519,5.616956 0.51525,0.977341 0.972106,1.675484 1.015246,1.551429 0.04316,-0.124057 -0.149211,-0.909633 -0.427443,-1.745716 z m -5.894932,25.83555 c -0.60769,-1.135475 0.0054,-4.800516 1.216978,-7.279162 0.964903,-1.973418 3.538829,-4.617859 5.380866,-5.528278 2.864957,-1.415983 6.058582,-1.726184 9.282526,-0.901641 2.762627,0.706563 5.269616,2.420623 5.069532,3.466116 -0.07649,0.400016 -0.445444,0.446714 -4.445549,0.562782 -4.060572,0.117814 -4.451756,0.168785 -5.6597,0.737377 -2.091097,0.984297 -3.101976,1.869746 -6.227286,5.454612 -2.476925,2.84113 -3.672665,3.944559 -4.274566,3.944559 -0.05422,0 -0.208475,-0.205362 -0.342801,-0.456365 z M 90.931642,38.605823 C 90.736997,38.47672 89.850163,38.146178 88.960909,37.871279 87.049008,37.280258 85.0441,37.356722 83.381757,38.084061 l -1.061704,0.464531 3.185106,-0.113106 c 1.842135,-0.06545 3.533283,-0.01133 4.010875,0.128319 0.454169,0.132787 1.038104,0.249369 1.297628,0.259089 0.391234,0.01463 0.411395,-0.02248 0.11798,-0.217071 z M 32.682305,25.45855 c -2.827267,-2.83783 -4.551354,-6.138924 -4.590052,-8.78853 -0.02886,-1.976733 0.382526,-3.127744 1.586826,-4.439657 3.245199,-3.5351797 9.014036,-2.5930263 10.899897,1.780145 0.906029,2.10103 0.321818,5.157053 -1.535082,8.030034 -1.225408,1.895953 -3.967363,4.774623 -4.547857,4.774623 -0.25419,0 -1.07037,-0.610479 -1.813732,-1.356615 z m 3.613807,-6.79373 c 0.296852,-0.194501 0.729262,-0.773949 0.960911,-1.287649 0.399726,-0.88644 0.400622,-0.987836 0.01758,-1.990849 -0.97742,-2.559347 -4.441202,-2.687094 -5.479504,-0.202091 -1.136613,2.720292 1.981465,5.131471 4.501027,3.480589 z m 33.440849,-3.392211 c -2.599081,-0.132348 -2.691552,-0.155961 -3.305803,-0.843957 -0.580812,-0.650561 -0.717566,-0.694906 -1.690884,-0.548344 -0.582444,0.08774 -1.768046,0.167331 -2.634679,0.176953 -1.725065,0.01917 -2.317199,-0.302943 -2.317199,-1.260435 0,-0.987853 0.738904,-1.3569 2.995734,-1.496231 2.136403,-0.131903 3.11643,-0.522947 3.131124,-1.249376 C 65.930685,9.2873108 64.680502,7.2386872 63.728548,6.4680201 62.289914,5.303339 62.297921,5.3053009 61.114407,5.8288283 60.207716,6.2298957 59.879716,6.2681858 59.114907,6.062244 56.739114,5.4225075 55.981625,2.8291349 57.691939,1.1905403 c 0.62359,-0.59743332 0.887654,-0.68197613 2.130073,-0.68197613 1.336427,0 1.464825,0.0508405 2.225881,0.88128673 0.612672,0.668541 0.807636,1.0902487 0.807636,1.7469035 0,0.7596035 0.175659,1.0245792 1.434311,2.1635967 0.788876,0.7138827 1.758003,1.8715287 2.153624,2.5725256 0.489935,0.8681139 0.828691,1.2325862 1.062294,1.1429419 0.188633,-0.072411 0.489999,-0.1316088 0.669697,-0.1316088 0.179709,0 0.881581,-0.4927813 1.559722,-1.0950743 2.168979,-1.9263596 4.496825,-2.5694042 6.837789,-1.8888628 1.854043,0.5389806 3.070087,2.0058742 3.406399,4.1090713 0.201332,1.25907 -0.408425,3.276679 -1.276146,4.222613 -1.157416,1.261745 -2.214688,1.384455 -8.966258,1.040652 z m 8.301937,-2.203122 C 78.739734,12.126665 78.846418,9.7560865 78.237866,8.6482792 77.988373,8.1941 77.501531,7.7214363 77.155989,7.597907 76.62522,7.4081674 76.431184,7.4698566 75.905569,7.9954793 c -1.047757,1.0477589 -1.076989,4.2401977 -0.04896,5.3436997 0.642123,0.689234 1.553139,0.576646 2.182256,-0.269692 z"
     id="path527" />
</svg>
