<svg width="116" height="59" viewBox="0 0 116 59" fill="none" xmlns="http://www.w3.org/2000/svg">
<path d="M100.934 53.0504C95.942 53.0504 91.8951 49.055 91.8951 44.126C91.8951 39.1971 95.942 35.2017 100.934 35.2017C105.927 35.2017 109.974 39.1971 109.974 44.126C109.969 49.0529 105.925 53.0457 100.934 53.0504ZM100.934 38.1765C97.6062 38.1765 94.9082 40.8401 94.9082 44.126C94.9082 47.412 97.6062 50.0756 100.934 50.0756C104.263 50.0756 106.961 47.412 106.961 44.126C106.961 40.8401 104.263 38.1765 100.934 38.1765Z" fill="#B9C3CA"/>
<path d="M42.1788 53.0504C37.1863 53.0504 33.1394 49.055 33.1394 44.126C33.1394 39.1971 37.1863 35.2017 42.1788 35.2017C47.1712 35.2017 51.2181 39.1971 51.2181 44.126C51.2133 49.0529 47.1691 53.0457 42.1788 53.0504ZM42.1788 38.1765C38.8505 38.1765 36.1525 40.8401 36.1525 44.126C36.1525 47.412 38.8505 50.0756 42.1788 50.0756C45.507 50.0756 48.205 47.412 48.205 44.126C48.205 40.8401 45.507 38.1765 42.1788 38.1765Z" fill="#B9C3CA"/>
<path d="M100.934 59C92.6137 59 85.8689 52.3409 85.8689 44.126C85.8689 35.9112 92.6137 29.2521 100.934 29.2521C109.255 29.2521 116 35.9112 116 44.126C115.991 52.3368 109.251 58.9911 100.934 59ZM100.934 32.2269C94.2779 32.2269 88.882 37.5541 88.882 44.126C88.882 50.698 94.2779 56.0252 100.934 56.0252C107.591 56.0252 112.987 50.698 112.987 44.126C112.98 37.5575 107.588 32.2344 100.934 32.2269Z" fill="white"/>
<path d="M42.1788 59C33.8581 59 27.1132 52.3409 27.1132 44.126C27.1132 35.9112 33.8581 29.2521 42.1788 29.2521C50.4995 29.2521 57.2443 35.9112 57.2443 44.126C57.2354 52.3368 50.4953 58.9911 42.1788 59ZM42.1788 32.2269C35.5222 32.2269 30.1263 37.5541 30.1263 44.126C30.1263 50.698 35.5222 56.0252 42.1788 56.0252C48.8353 56.0252 54.2312 50.698 54.2312 44.126C54.2243 37.5575 48.8326 32.2344 42.1788 32.2269Z" fill="white"/>
<path d="M59.5042 23.3025L51.8069 18.6589C51.5255 18.4858 51.3251 18.2097 51.2503 17.8907C51.1755 17.5722 51.2321 17.2369 51.4079 16.9596L58.0341 6.59145C58.2087 6.31359 58.4885 6.11576 58.8116 6.04193C59.1347 5.96753 59.4738 6.02389 59.7552 6.19748L67.6664 11.1026L59.5042 23.3025Z" fill="#FEBF8C"/>
<path d="M0.0245518 57.2359C0.0319336 58.0521 0.704248 58.71 1.53105 58.71H22.7341C23.5662 58.71 24.2407 58.044 24.2407 57.2226V54.5924C24.2407 53.7709 23.5662 53.105 22.7341 53.105H9.71896C9.2955 53.105 9.06215 52.6193 9.33001 52.2955L23.7302 34.8885C23.9499 34.6229 24.07 34.2905 24.07 33.9476V31.2452C24.07 30.4238 23.3955 29.7578 22.5634 29.7578H1.34105C0.786355 29.7578 0.336683 30.2018 0.336683 30.7494V34.3712C0.336683 34.9189 0.786355 35.3628 1.34105 35.3628H14.3462C14.7697 35.3628 15.003 35.8485 14.7351 36.1722L0.339722 53.5735C0.117089 53.8426 -0.00308218 54.1802 6.00968e-05 54.5277L0.0245518 57.2359Z" fill="white"/>
<path d="M49.0251 45.6577H42.1389C41.5715 45.657 41.0606 45.3199 40.8437 44.8028C40.6267 44.2858 40.7467 43.6901 41.1472 43.2947L54.1645 30.443C54.7145 29.9184 55.5887 29.926 56.1298 30.4601C56.6708 30.9943 56.6785 31.8574 56.1471 32.4005L45.5233 42.8891H49.0251C49.7992 42.8891 50.4269 43.5089 50.4269 44.2731C50.4269 45.0379 49.7992 45.6577 49.0251 45.6577Z" fill="#FEBF8C"/>
<path d="M62.2661 27.2689H55.1555C53.6119 27.2803 52.3629 28.5134 52.3513 30.0374C52.3558 31.5646 53.6087 32.8015 55.1555 32.806H65.2792L62.2661 27.2689Z" fill="white"/>
<path d="M72.0267 54.6081L64.2726 40.6629L58.2487 29.7479H64.2726L72.9234 45.3058C73.1143 45.6491 73.6141 45.6486 73.8043 45.3049L81.9856 30.5221C82.2498 30.0448 82.7568 29.7479 83.3077 29.7479H88.1274C88.5152 29.7479 88.888 29.8955 89.1683 30.16L101.982 42.2497C102.813 43.0339 102.909 44.3119 102.204 45.2083C101.39 46.2428 99.849 46.3571 98.8876 45.4544L87.0758 34.3638C86.595 33.9124 85.8108 34.0371 85.4979 34.6147L74.6759 54.5937C74.1117 55.6352 72.6024 55.6433 72.0267 54.6081Z" fill="#FF7E13"/>
<path d="M79.0301 4.92485C79.0301 7.64485 76.7969 9.84971 74.0418 9.84971C71.2868 9.84971 69.0535 7.64485 69.0535 4.92485C69.0535 2.20486 71.2868 0 74.0418 0C76.7969 0 79.0301 2.20486 79.0301 4.92485Z" fill="#FF7E13"/>
<path d="M68.2839 18.96L63.5302 26.3473C63.3418 26.6404 63.2706 27.4602 63.5217 28.2039L64.2749 29.7479H58.2487L57.2443 27.5168C57.2443 26.3473 57.7524 25.6552 57.9408 25.3621L59.2275 23.3557L65.3507 13.8379L66.4246 12.1736L66.6489 12.6583L66.8247 13.0207L68.0944 18.7628L68.2839 18.96Z" fill="#FF7E13"/>
<path d="M85.0246 25.0053C85.0274 25.6586 84.7682 26.2859 84.3024 26.7503C83.8371 27.2141 83.204 27.4768 82.5424 27.4802L74.3241 27.5168H72.2267C71.6792 27.5162 71.1963 27.164 71.0359 26.6477L68.0945 18.7752L68.0944 18.7628L66.3362 13.161V13.1486L66.1615 12.5822L67.1343 11.0801C67.2029 10.9714 67.3481 10.9386 67.4577 11.0071L67.6333 11.1168L69.5914 12.3483L70.2273 12.7422L71.1002 13.2861C71.3382 13.4366 71.5181 13.662 71.61 13.9253L74.7631 21.7572C74.9372 22.256 75.4139 22.5897 75.9482 22.5869L82.5241 22.5553C83.1852 22.5514 83.8206 22.8073 84.2898 23.2672C84.7591 23.7271 85.0234 24.3527 85.0246 25.0053Z" fill="white"/>
</svg>
