<svg width="16" height="16" viewBox="0 0 16 16" fill="none" xmlns="http://www.w3.org/2000/svg">
<path d="M12.3126 11.2207L12.5726 13.3273C12.6392 13.8806 12.0459 14.2673 11.5726 13.9806L8.77925 12.3206C8.47258 12.3206 8.17259 12.3007 7.87925 12.2607C8.37259 11.6807 8.66591 10.9473 8.66591 10.154C8.66591 8.26064 7.02591 6.72734 4.99925 6.72734C4.22591 6.72734 3.51258 6.94732 2.91925 7.33398C2.89925 7.16732 2.89258 7.00064 2.89258 6.82731C2.89258 3.79398 5.52591 1.33398 8.77925 1.33398C12.0326 1.33398 14.6659 3.79398 14.6659 6.82731C14.6659 8.62731 13.7392 10.2207 12.3126 11.2207Z" stroke="#FF8D2F" stroke-width="1.2" stroke-linecap="round" stroke-linejoin="round"/>
<path d="M8.66732 10.1532C8.66732 10.9465 8.37399 11.6799 7.88066 12.2599C7.22066 13.0599 6.17398 13.5732 5.00065 13.5732L3.26065 14.6065C2.96732 14.7865 2.59398 14.5399 2.63398 14.1999L2.80065 12.8866C1.90732 12.2666 1.33398 11.2732 1.33398 10.1532C1.33398 8.97986 1.96065 7.94654 2.92065 7.33321C3.51399 6.94654 4.22732 6.72656 5.00065 6.72656C7.02732 6.72656 8.66732 8.25986 8.66732 10.1532Z" stroke="#FF8D2F" stroke-width="1.2" stroke-linecap="round" stroke-linejoin="round"/>
</svg>
