<svg width="26" height="26" viewBox="0 0 26 26" fill="none" xmlns="http://www.w3.org/2000/svg">
<path d="M13.0013 15.7084C14.4971 15.7084 15.7096 14.4959 15.7096 13.0001C15.7096 11.5043 14.4971 10.2917 13.0013 10.2917C11.5055 10.2917 10.293 11.5043 10.293 13.0001C10.293 14.4959 11.5055 15.7084 13.0013 15.7084Z" stroke="#8D8F91" stroke-width="1.5" stroke-miterlimit="10" stroke-linecap="round" stroke-linejoin="round"/>
<path d="M20.043 10.2917V15.7084" stroke="#8D8F91" stroke-width="1.5" stroke-miterlimit="10" stroke-linecap="round" stroke-linejoin="round"/>
<path d="M9.7487 19.5001C9.7487 20.3126 9.52121 21.0817 9.12038 21.7317C8.37288 22.9884 6.99703 23.8334 5.41536 23.8334C3.8337 23.8334 2.45785 22.9884 1.71035 21.7317C1.30952 21.0817 1.08203 20.3126 1.08203 19.5001C1.08203 17.1059 3.0212 15.1667 5.41536 15.1667C7.80953 15.1667 9.7487 17.1059 9.7487 19.5001Z" stroke="#8D8F91" stroke-width="1.5" stroke-miterlimit="10" stroke-linecap="round" stroke-linejoin="round"/>
<path d="M3.72656 19.4996L4.79905 20.5721L7.10656 18.438" stroke="#8D8F91" stroke-width="1.5" stroke-linecap="round" stroke-linejoin="round"/>
<path d="M2.16797 16.5749V9.74992C2.16797 5.95825 4.33464 4.33325 7.58464 4.33325H18.418C21.668 4.33325 23.8346 5.95825 23.8346 9.74992V16.2499C23.8346 20.0416 21.668 21.6666 18.418 21.6666H9.20964" stroke="#8D8F91" stroke-width="1.5" stroke-miterlimit="10" stroke-linecap="round" stroke-linejoin="round"/>
</svg>
