<svg width="28" height="28" viewBox="0 0 28 28" fill="none" xmlns="http://www.w3.org/2000/svg">
<path d="M14 7.51367V11.3987" stroke="#414449" stroke-width="1.5" stroke-miterlimit="10" stroke-linecap="round"/>
<path d="M14.0227 2.33301C9.72939 2.33301 6.25273 5.80967 6.25273 10.103V12.553C6.25273 13.3463 5.92606 14.5363 5.51773 15.213L4.03606 17.6863C3.12606 19.2147 3.75606 20.918 5.43606 21.478C11.0127 23.333 17.0444 23.333 22.6211 21.478C24.1961 20.953 24.8727 19.1097 24.0211 17.6863L22.5394 15.213C22.1311 14.5363 21.8044 13.3347 21.8044 12.553V10.103C21.7927 5.83301 18.2927 2.33301 14.0227 2.33301Z" stroke="#414449" stroke-width="1.5" stroke-miterlimit="10" stroke-linecap="round"/>
<path d="M17.8852 21.957C17.8852 24.092 16.1352 25.842 14.0002 25.842C12.9386 25.842 11.9586 25.3987 11.2586 24.6987C10.5586 23.9987 10.1152 23.0187 10.1152 21.957" stroke="#414449" stroke-width="1.5" stroke-miterlimit="10"/>
</svg>
