<svg width="25" height="25" viewBox="0 0 25 25" fill="none" xmlns="http://www.w3.org/2000/svg">
<path d="M22.1881 11.2913C22.5944 11.2913 22.9173 10.9684 22.9173 10.5622V9.59342C22.9173 5.32259 21.6152 4.02051 17.3444 4.02051H7.6569C3.38607 4.02051 2.08398 5.32259 2.08398 9.59342V10.083C2.08398 10.4893 2.4069 10.8122 2.81315 10.8122C3.75065 10.8122 4.51107 11.5726 4.51107 12.5101C4.51107 13.4476 3.75065 14.1976 2.81315 14.1976C2.4069 14.1976 2.08398 14.5205 2.08398 14.9268V15.4163C2.08398 19.6872 3.38607 20.9893 7.6569 20.9893H17.3444C21.6152 20.9893 22.9173 19.6872 22.9173 15.4163C22.9173 15.0101 22.5944 14.6872 22.1881 14.6872C21.2506 14.6872 20.4902 13.9268 20.4902 12.9893C20.4902 12.0518 21.2506 11.2913 22.1881 11.2913ZM9.37565 9.24967C9.94857 9.24967 10.4173 9.71842 10.4173 10.2913C10.4173 10.8643 9.95898 11.333 9.37565 11.333C8.80273 11.333 8.33398 10.8643 8.33398 10.2913C8.33398 9.71842 8.79232 9.24967 9.37565 9.24967ZM15.6257 16.5413C15.0423 16.5413 14.5736 16.0726 14.5736 15.4997C14.5736 14.9268 15.0423 14.458 15.6152 14.458C16.1882 14.458 16.6569 14.9268 16.6569 15.4997C16.6569 16.0726 16.209 16.5413 15.6257 16.5413ZM16.5632 9.87467L9.55273 16.8851C9.39648 17.0413 9.19857 17.1143 9.00065 17.1143C8.80273 17.1143 8.60482 17.0413 8.44857 16.8851C8.14648 16.583 8.14648 16.083 8.44857 15.7809L15.459 8.77051C15.7611 8.46842 16.2611 8.46842 16.5632 8.77051C16.8652 9.07259 16.8652 9.57259 16.5632 9.87467Z" fill="#FF8D2F"/>
</svg>
