<svg width="18" height="18" viewBox="0 0 18 18" fill="none" xmlns="http://www.w3.org/2000/svg">
<path d="M11.9871 2.53873L5.72399 4.61951C1.51388 6.0275 1.51388 8.3233 5.72399 9.72435L7.58282 10.3417L8.20012 12.2005C9.60118 16.4106 11.9039 16.4106 13.305 12.2005L15.3927 5.94427C16.3221 3.13522 14.7962 1.60238 11.9871 2.53873ZM12.2091 6.27026L9.57343 8.91979C9.46939 9.02383 9.33761 9.07238 9.20583 9.07238C9.07405 9.07238 8.94226 9.02383 8.83822 8.91979C8.63708 8.71864 8.63708 8.38572 8.83822 8.18458L11.4739 5.53505C11.675 5.33391 12.0079 5.33391 12.2091 5.53505C12.4102 5.73619 12.4102 6.06912 12.2091 6.27026Z" fill="white"/>
</svg>
