<svg width="28" height="28" viewBox="0 0 28 28" fill="none" xmlns="http://www.w3.org/2000/svg">
<path d="M14 17.5C15.933 17.5 17.5 15.933 17.5 14C17.5 12.067 15.933 10.5 14 10.5C12.067 10.5 10.5 12.067 10.5 14C10.5 15.933 12.067 17.5 14 17.5Z" stroke="#414449" stroke-width="1.5" stroke-miterlimit="10" stroke-linecap="round" stroke-linejoin="round"/>
<path d="M2.33398 15.0265V12.9732C2.33398 11.7598 3.32565 10.7565 4.55065 10.7565C6.66232 10.7565 7.52565 9.26318 6.46398 7.43151C5.85732 6.38151 6.21898 5.01651 7.28065 4.40984L9.29898 3.25484C10.2207 2.70651 11.4107 3.03318 11.959 3.95484L12.0873 4.17651C13.1373 6.00818 14.864 6.00818 15.9257 4.17651L16.054 3.95484C16.6023 3.03318 17.7923 2.70651 18.714 3.25484L20.7323 4.40984C21.794 5.01651 22.1557 6.38151 21.549 7.43151C20.4873 9.26318 21.3507 10.7565 23.4623 10.7565C24.6757 10.7565 25.679 11.7482 25.679 12.9732V15.0265C25.679 16.2398 24.6873 17.2432 23.4623 17.2432C21.3507 17.2432 20.4873 18.7365 21.549 20.5682C22.1557 21.6298 21.794 22.9832 20.7323 23.5898L18.714 24.7448C17.7923 25.2932 16.6023 24.9665 16.054 24.0448L15.9257 23.8232C14.8757 21.9915 13.149 21.9915 12.0873 23.8232L11.959 24.0448C11.4107 24.9665 10.2207 25.2932 9.29898 24.7448L7.28065 23.5898C6.21898 22.9832 5.85732 21.6182 6.46398 20.5682C7.52565 18.7365 6.66232 17.2432 4.55065 17.2432C3.32565 17.2432 2.33398 16.2398 2.33398 15.0265Z" stroke="#414449" stroke-width="1.5" stroke-miterlimit="10" stroke-linecap="round" stroke-linejoin="round"/>
</svg>
