<svg width="20" height="20" viewBox="0 0 20 20" fill="none" xmlns="http://www.w3.org/2000/svg">
<path d="M11.5855 2.21742L13.1988 5.44409C13.4188 5.89326 14.0055 6.32409 14.5005 6.40659L17.4247 6.89242C19.2947 7.20409 19.7347 8.56076 18.3872 9.89909L16.1138 12.1724C15.7288 12.5574 15.518 13.2999 15.6372 13.8316L16.288 16.6458C16.8013 18.8733 15.6188 19.7349 13.648 18.5708L10.9072 16.9483C10.4122 16.6549 9.59634 16.6549 9.09217 16.9483L6.35134 18.5708C4.38967 19.7349 3.19801 18.8641 3.71134 16.6458L4.36217 13.8316C4.48134 13.2999 4.27051 12.5574 3.88551 12.1724L1.61217 9.89909C0.273839 8.56076 0.704673 7.20409 2.57467 6.89242L5.49884 6.40659C5.98467 6.32409 6.57134 5.89326 6.79134 5.44409L8.40467 2.21742C9.28467 0.466589 10.7147 0.466589 11.5855 2.21742Z" stroke="#FF8D2F" stroke-width="1.5" stroke-linecap="round" stroke-linejoin="round"/>
</svg>
