<svg width="25" height="25" viewBox="0 0 25 25" fill="none" xmlns="http://www.w3.org/2000/svg">
<path d="M12.6667 11.3228C12.5625 11.3124 12.4375 11.3124 12.3229 11.3228C9.84375 11.2395 7.875 9.20825 7.875 6.70825C7.875 4.15617 9.9375 2.08325 12.5 2.08325C15.0521 2.08325 17.125 4.15617 17.125 6.70825C17.1146 9.20825 15.1458 11.2395 12.6667 11.3228Z" stroke="#8D8F91" stroke-width="1.2" stroke-linecap="round" stroke-linejoin="round"/>
<path d="M7.45898 15.1667C4.93815 16.8542 4.93815 19.6042 7.45898 21.2813C10.3236 23.198 15.0215 23.198 17.8861 21.2813C20.4069 19.5938 20.4069 16.8438 17.8861 15.1667C15.0319 13.2605 10.334 13.2605 7.45898 15.1667Z" stroke="#8D8F91" stroke-width="1.2" stroke-linecap="round" stroke-linejoin="round"/>
</svg>
