<svg width="256" height="256" viewBox="0 0 256 256" fill="none" xmlns="http://www.w3.org/2000/svg">
<path d="M128 256C198.692 256 256 198.692 256 128C256 57.3076 198.692 0 128 0C57.3075 0 0 57.3076 0 128C0 198.692 57.3075 256 128 256Z" fill="url(#paint0_linear_6110_17493)"/>
<path fill-rule="evenodd" clip-rule="evenodd" d="M18.1809 87.7946C32.6371 79.1138 49.0137 77.4612 64.6933 77.9807C66.9338 78.055 68.6898 79.9314 68.6156 82.1718C68.5414 84.4123 66.6649 86.1683 64.4245 86.0941C49.3764 85.5955 34.8538 87.2517 22.36 94.7541C20.4382 95.9081 17.9447 95.2857 16.7907 93.3639C15.6367 91.4421 16.2591 88.9486 18.1809 87.7946Z" fill="url(#paint1_linear_6110_17493)"/>
<path fill-rule="evenodd" clip-rule="evenodd" d="M233.452 153.749C234.606 155.671 233.984 158.165 232.062 159.319C217.607 167.998 201.222 169.651 185.544 169.132C183.303 169.058 181.547 167.182 181.621 164.941C181.696 162.701 183.572 160.945 185.812 161.019C200.86 161.517 215.391 159.86 227.883 152.359C229.805 151.205 232.298 151.827 233.452 153.749Z" fill="url(#paint2_linear_6110_17493)"/>
<path d="M121.994 200.328H163.221C177.045 200.328 188.253 185.357 188.253 166.883C188.253 148.409 177.045 133.432 163.221 133.432H121.994C130.547 133.432 138.096 139.16 142.608 147.928C145.51 153.831 147.02 160.322 147.02 166.9C147.02 173.479 145.51 179.969 142.608 185.873C138.096 194.617 130.547 200.328 121.994 200.328Z" fill="url(#paint3_linear_6110_17493)"/>
<path d="M151.636 145.717C146.602 135.958 138.177 129.568 128.639 129.568H119.425C104.001 129.568 91.4941 146.279 91.4941 166.887C91.4941 187.495 104.001 204.2 119.425 204.206H128.668C138.206 204.206 146.643 197.828 151.665 188.057C154.901 181.471 156.584 174.231 156.584 166.893C156.584 159.555 154.901 152.314 151.665 145.729L151.636 145.717Z" fill="url(#paint4_linear_6110_17493)"/>
<path d="M142.313 145.717C137.292 135.976 128.884 129.592 119.363 129.568C103.951 129.568 91.4609 146.291 91.4609 166.887C91.4609 187.483 103.951 204.183 119.363 204.206C128.884 204.206 137.292 197.828 142.313 188.057C145.554 181.473 147.239 174.232 147.239 166.893C147.239 159.554 145.554 152.313 142.313 145.729V145.717Z" fill="url(#paint5_linear_6110_17493)"/>
<path d="M123.044 160.003C121.654 162.448 119.326 164.049 116.692 164.049H114.147C109.886 164.049 106.432 159.862 106.432 154.7C106.432 149.537 109.886 145.352 114.147 145.35H116.7C119.334 145.35 121.665 146.948 123.052 149.396C123.946 151.046 124.411 152.86 124.411 154.698C124.411 156.537 123.946 158.35 123.052 160L123.044 160.003Z" fill="url(#paint6_linear_6110_17493)"/>
<path d="M123.044 185.175C121.654 187.62 119.326 189.221 116.692 189.221H114.147C109.886 189.221 106.432 185.034 106.432 179.872C106.432 174.709 109.886 170.524 114.147 170.522H116.7C119.334 170.522 121.665 172.12 123.052 174.568C123.946 176.218 124.411 178.032 124.411 179.87C124.411 181.708 123.946 183.522 123.052 185.172L123.044 185.175Z" fill="url(#paint7_linear_6110_17493)"/>
<path d="M120.2 160.003C118.841 162.444 116.564 164.043 113.986 164.049C109.813 164.049 106.432 159.859 106.432 154.7C106.432 149.54 109.813 145.356 113.986 145.35C116.564 145.35 118.841 146.948 120.2 149.396C121.078 151.046 121.534 152.86 121.534 154.698C121.534 156.537 121.078 158.351 120.2 160V160.003Z" fill="url(#paint8_linear_6110_17493)"/>
<path d="M120.2 185.175C118.841 187.616 116.564 189.215 113.986 189.221C109.813 189.221 106.432 185.031 106.432 179.872C106.432 174.712 109.813 170.528 113.986 170.522C116.564 170.522 118.841 172.12 120.2 174.568C121.078 176.218 121.534 178.032 121.534 179.87C121.534 181.709 121.078 183.523 120.2 185.172V185.175Z" fill="url(#paint9_linear_6110_17493)"/>
<path d="M128.249 118.287H87.022C73.1986 118.287 61.9844 103.316 61.9844 84.8418C61.9844 66.368 73.1986 51.3906 87.022 51.3906H128.249C119.696 51.3906 112.147 57.1195 107.635 65.8867C104.677 71.7723 103.162 78.2778 103.217 84.865C103.162 91.4503 104.677 97.954 107.635 103.838C112.147 112.558 119.696 118.287 128.249 118.287Z" fill="url(#paint10_linear_6110_17493)"/>
<path d="M98.6001 63.6955C103.639 53.9368 112.064 47.5469 121.603 47.5469H130.845C146.269 47.5469 158.776 64.258 158.776 84.8656C158.776 105.473 146.269 122.179 130.845 122.184H121.603C112.064 122.184 103.627 115.806 98.6001 106.036C95.3058 99.4684 93.6185 92.2126 93.6773 84.8656C93.6185 77.5186 95.3058 70.2628 98.6001 63.6955Z" fill="url(#paint11_linear_6110_17493)"/>
<path d="M107.92 63.6955C112.948 53.9541 121.35 47.5701 130.876 47.5469C146.289 47.5469 158.779 64.2696 158.779 84.8656C158.779 105.462 146.289 122.161 130.876 122.179C121.35 122.179 112.948 115.8 107.92 106.036C104.626 99.4684 102.939 92.2126 102.998 84.8656C102.939 77.5186 104.626 70.2628 107.92 63.6955Z" fill="url(#paint12_linear_6110_17493)"/>
<path d="M133.277 78.4736C136.29 78.4736 138.733 75.0832 138.733 70.9009C138.733 66.7186 136.29 63.3281 133.277 63.3281C130.263 63.3281 127.82 66.7186 127.82 70.9009C127.82 75.0832 130.263 78.4736 133.277 78.4736Z" fill="url(#paint13_linear_6110_17493)"/>
<path d="M133.402 79.905C137.176 79.905 140.235 75.8802 140.235 70.9154C140.235 65.9506 137.176 61.9258 133.402 61.9258C129.629 61.9258 126.57 65.9506 126.57 70.9154C126.57 75.8802 129.629 79.905 133.402 79.905Z" fill="#FF953D"/>
<path d="M133.402 108.675C137.176 108.675 140.235 104.65 140.235 99.6849C140.235 94.7201 137.176 90.6953 133.402 90.6953C129.629 90.6953 126.57 94.7201 126.57 99.6849C126.57 104.65 129.629 108.675 133.402 108.675Z" fill="#FF953D"/>
<path d="M50.7956 140.007C51.2736 138.027 51.5127 137.037 51.7758 136.698C52.5765 135.666 54.1357 135.666 54.9364 136.698C55.1995 137.037 55.4385 138.027 55.9166 140.007C56.0045 140.372 56.0484 140.554 56.118 140.713C56.3198 141.177 56.6896 141.547 57.153 141.748C57.3129 141.818 57.4949 141.862 57.859 141.95C59.8394 142.428 60.8295 142.667 61.1687 142.93C62.201 143.731 62.201 145.29 61.1687 146.091C60.8295 146.354 59.8394 146.593 57.859 147.071C57.4949 147.159 57.3129 147.203 57.153 147.272C56.6896 147.474 56.3198 147.844 56.118 148.307C56.0484 148.467 56.0045 148.649 55.9166 149.013C55.4385 150.994 55.1995 151.984 54.9364 152.323C54.1357 153.355 52.5765 153.355 51.7758 152.323C51.5127 151.984 51.2736 150.994 50.7956 149.013C50.7077 148.649 50.6638 148.467 50.5942 148.307C50.3923 147.844 50.0225 147.474 49.5591 147.272C49.3993 147.203 49.2173 147.159 48.8532 147.071C46.8728 146.593 45.8826 146.354 45.5434 146.091C44.5112 145.29 44.5112 143.731 45.5434 142.93C45.8826 142.667 46.8728 142.428 48.8532 141.95C49.2173 141.862 49.3993 141.818 49.5591 141.748C50.0225 141.547 50.3923 141.177 50.5942 140.713C50.6638 140.554 50.7077 140.372 50.7956 140.007Z" fill="url(#paint14_linear_6110_17493)"/>
<path d="M133.277 78.4736C136.29 78.4736 138.733 75.0832 138.733 70.9009C138.733 66.7186 136.29 63.3281 133.277 63.3281C130.263 63.3281 127.82 66.7186 127.82 70.9009C127.82 75.0832 130.263 78.4736 133.277 78.4736Z" fill="url(#paint15_radial_6110_17493)"/>
<path d="M133.277 107.241C136.29 107.241 138.733 103.851 138.733 99.6685C138.733 95.4861 136.29 92.0957 133.277 92.0957C130.263 92.0957 127.82 95.4861 127.82 99.6685C127.82 103.851 130.263 107.241 133.277 107.241Z" fill="url(#paint16_radial_6110_17493)"/>
<path d="M176.085 46.8278C176.563 44.8474 176.802 43.8572 177.065 43.518C177.866 42.4858 179.425 42.4858 180.225 43.518C180.489 43.8572 180.728 44.8474 181.206 46.8278C181.294 47.1919 181.337 47.3739 181.407 47.5337C181.609 47.9971 181.979 48.3669 182.442 48.5688C182.602 48.6384 182.784 48.6823 183.148 48.7702C185.128 49.2483 186.119 49.4873 186.458 49.7504C187.49 50.5511 187.49 52.1103 186.458 52.911C186.119 53.1741 185.128 53.4131 183.148 53.8912C182.784 53.9791 182.602 54.023 182.442 54.0926C181.979 54.2945 181.609 54.6643 181.407 55.1277C181.337 55.2875 181.294 55.4695 181.206 55.8336C180.728 57.814 180.489 58.8041 180.225 59.1434C179.425 60.1756 177.866 60.1756 177.065 59.1434C176.802 58.8041 176.563 57.814 176.085 55.8336C175.997 55.4695 175.953 55.2875 175.883 55.1277C175.681 54.6643 175.312 54.2945 174.848 54.0926C174.688 54.023 174.506 53.9791 174.142 53.8912C172.162 53.4131 171.172 53.1741 170.832 52.911C169.8 52.1103 169.8 50.5511 170.832 49.7504C171.172 49.4873 172.162 49.2483 174.142 48.7702C174.506 48.6823 174.688 48.6384 174.848 48.5688C175.312 48.3669 175.681 47.9971 175.883 47.5337C175.953 47.3739 175.997 47.1919 176.085 46.8278Z" fill="url(#paint17_linear_6110_17493)"/>
<path d="M57.7653 107.366C57.7653 109.8 55.7922 111.773 53.3583 111.773C50.9243 111.773 48.9512 109.8 48.9512 107.366C48.9512 104.932 50.9243 102.959 53.3583 102.959C55.7922 102.959 57.7653 104.932 57.7653 107.366ZM50.9298 107.366C50.9298 108.707 52.017 109.795 53.3583 109.795C54.6995 109.795 55.7867 108.707 55.7867 107.366C55.7867 106.025 54.6995 104.938 53.3583 104.938C52.017 104.938 50.9298 106.025 50.9298 107.366Z" fill="url(#paint18_linear_6110_17493)"/>
<path d="M200.828 187.874C200.828 190.308 198.855 192.281 196.421 192.281C193.987 192.281 192.014 190.308 192.014 187.874C192.014 185.44 193.987 183.467 196.421 183.467C198.855 183.467 200.828 185.44 200.828 187.874ZM194.27 187.874C194.27 189.062 195.233 190.025 196.421 190.025C197.609 190.025 198.571 189.062 198.571 187.874C198.571 186.686 197.609 185.723 196.421 185.723C195.233 185.723 194.27 186.686 194.27 187.874Z" fill="url(#paint19_linear_6110_17493)"/>
<path d="M193.939 134.046C193.509 132.361 193.294 131.519 193.508 130.937C193.716 130.369 194.17 129.926 194.743 129.731C195.33 129.532 196.167 129.767 197.841 130.238C199.514 130.708 200.351 130.943 200.749 131.419C201.136 131.883 201.293 132.498 201.175 133.092C201.054 133.699 200.432 134.307 199.188 135.521C197.943 136.736 197.321 137.343 196.711 137.449C196.115 137.553 195.504 137.381 195.049 136.982C194.583 136.573 194.368 135.731 193.939 134.046Z" fill="url(#paint20_linear_6110_17493)"/>
<path d="M76.5928 192.545C78.2782 192.117 79.1209 191.904 79.7026 192.118C80.2703 192.327 80.7129 192.782 80.9065 193.355C81.1049 193.942 80.8686 194.778 80.3961 196.452C79.9235 198.125 79.6872 198.962 79.211 199.358C78.7462 199.745 78.1311 199.901 77.538 199.783C76.9302 199.661 76.3238 199.038 75.111 197.792C73.8982 196.546 73.2918 195.923 73.1864 195.312C73.0835 194.716 73.2559 194.106 73.6554 193.651C74.0648 193.186 74.9075 192.972 76.5928 192.545Z" fill="url(#paint21_linear_6110_17493)"/>
<path d="M215.565 95.4913C214.961 100.039 213.215 104.359 210.488 108.048C207.762 111.737 204.144 114.675 199.974 116.586C195.804 118.498 191.217 119.32 186.642 118.978C182.068 118.635 177.655 117.138 173.816 114.626L163.379 118.181C163.062 118.286 162.722 118.299 162.398 118.216C162.074 118.134 161.781 117.96 161.554 117.715C161.326 117.471 161.174 117.166 161.115 116.837C161.056 116.508 161.093 116.169 161.222 115.861L165.42 105.842C163.2 102.125 161.901 97.9308 161.633 93.6097C161.365 89.2886 162.135 84.9662 163.879 81.0035C165.623 77.0409 168.29 73.5533 171.657 70.8322C175.024 68.1111 178.994 66.2355 183.235 65.3622C187.475 64.489 191.863 64.6434 196.031 65.8126C200.2 66.9818 204.028 69.1318 207.196 72.0829C210.363 75.034 212.779 78.7004 214.24 82.7758C215.701 86.8512 216.165 91.2172 215.594 95.5087L215.565 95.4913Z" fill="url(#paint22_linear_6110_17493)"/>
<path d="M108.775 41.1629C108.775 43.5969 106.802 45.57 104.368 45.57C101.934 45.57 99.9609 43.5969 99.9609 41.1629C99.9609 38.729 101.934 36.7559 104.368 36.7559C106.802 36.7559 108.775 38.729 108.775 41.1629ZM101.9 41.1629C101.9 42.5258 103.005 43.6306 104.368 43.6306C105.731 43.6306 106.836 42.5258 106.836 41.1629C106.836 39.8001 105.731 38.6953 104.368 38.6953C103.005 38.6953 101.9 39.8001 101.9 41.1629Z" fill="url(#paint23_linear_6110_17493)"/>
<path d="M188.453 106.101C190.981 106.101 192.747 104.376 192.747 101.967C192.747 99.5191 190.981 97.7932 188.453 97.7932C185.964 97.7932 184.158 99.5191 184.158 101.967C184.158 104.376 185.964 106.101 188.453 106.101ZM192.386 76.6416H184.519V84.5082L186.526 95.3851H190.339L192.386 84.5082V76.6416Z" fill="white"/>
<rect x="83.4219" y="148.23" width="35.9584" height="12.945" rx="6.47251" fill="url(#paint24_linear_6110_17493)"/>
<rect x="83.4219" y="173.398" width="35.9584" height="12.945" rx="6.47251" fill="url(#paint25_linear_6110_17493)"/>
<defs>
<linearGradient id="paint0_linear_6110_17493" x1="129.64" y1="-9.48148" x2="129.64" y2="407.835" gradientUnits="userSpaceOnUse">
<stop stop-color="#FFEAD9" stop-opacity="0"/>
<stop offset="1" stop-color="#FFC28F"/>
</linearGradient>
<linearGradient id="paint1_linear_6110_17493" x1="68.6175" y1="80.861" x2="35.0504" y2="52.7771" gradientUnits="userSpaceOnUse">
<stop stop-color="#FF8D2F"/>
<stop offset="1" stop-color="#FFD3B0"/>
</linearGradient>
<linearGradient id="paint2_linear_6110_17493" x1="234.031" y1="154.746" x2="200.464" y2="126.658" gradientUnits="userSpaceOnUse">
<stop stop-color="#FF8D2F"/>
<stop offset="1" stop-color="#FFD3B0"/>
</linearGradient>
<linearGradient id="paint3_linear_6110_17493" x1="159.902" y1="211.71" x2="120.449" y2="132.396" gradientUnits="userSpaceOnUse">
<stop offset="0.0700108" stop-color="#FF8D2F"/>
<stop offset="1" stop-color="#FFD3B0"/>
</linearGradient>
<linearGradient id="paint4_linear_6110_17493" x1="117.017" y1="156.658" x2="152.932" y2="151.769" gradientUnits="userSpaceOnUse">
<stop offset="0.0700108" stop-color="#FF8D2F"/>
<stop offset="1" stop-color="#FFD3B0"/>
</linearGradient>
<linearGradient id="paint5_linear_6110_17493" x1="181.892" y1="274.035" x2="44.19" y2="168.094" gradientUnits="userSpaceOnUse">
<stop stop-color="#FFB981"/>
<stop offset="1" stop-color="white"/>
</linearGradient>
<linearGradient id="paint6_linear_6110_17493" x1="115.911" y1="144.97" x2="108.536" y2="159.18" gradientUnits="userSpaceOnUse">
<stop offset="0.0700108" stop-color="#FF8D2F"/>
<stop offset="1" stop-color="#FFD3B0"/>
</linearGradient>
<linearGradient id="paint7_linear_6110_17493" x1="115.911" y1="170.142" x2="108.536" y2="184.352" gradientUnits="userSpaceOnUse">
<stop offset="0.0700108" stop-color="#FF8D2F"/>
<stop offset="1" stop-color="#FFD3B0"/>
</linearGradient>
<linearGradient id="paint8_linear_6110_17493" x1="130.917" y1="127.857" x2="95.8257" y2="157.035" gradientUnits="userSpaceOnUse">
<stop stop-color="#FFB981"/>
<stop offset="1" stop-color="white"/>
</linearGradient>
<linearGradient id="paint9_linear_6110_17493" x1="130.917" y1="153.029" x2="95.8257" y2="182.207" gradientUnits="userSpaceOnUse">
<stop stop-color="#FFB981"/>
<stop offset="1" stop-color="white"/>
</linearGradient>
<linearGradient id="paint10_linear_6110_17493" x1="99.8953" y1="129.669" x2="60.4449" y2="50.3521" gradientUnits="userSpaceOnUse">
<stop offset="0.0700108" stop-color="#FF8D2F"/>
<stop offset="1" stop-color="#FFD3B0"/>
</linearGradient>
<linearGradient id="paint11_linear_6110_17493" x1="127.999" y1="123.704" x2="96.9648" y2="69.4609" gradientUnits="userSpaceOnUse">
<stop offset="0.0700108" stop-color="#FF8D2F"/>
<stop offset="1" stop-color="#FFD3B0"/>
</linearGradient>
<linearGradient id="paint12_linear_6110_17493" x1="193.435" y1="192.002" x2="55.7373" y2="86.0488" gradientUnits="userSpaceOnUse">
<stop stop-color="#FFB981"/>
<stop offset="1" stop-color="white"/>
</linearGradient>
<linearGradient id="paint13_linear_6110_17493" x1="122.611" y1="78.755" x2="165.191" y2="75.5382" gradientUnits="userSpaceOnUse">
<stop stop-color="#5149F2"/>
<stop offset="1" stop-color="#F7F7FF"/>
</linearGradient>
<linearGradient id="paint14_linear_6110_17493" x1="55.5354" y1="164.762" x2="37.8163" y2="128.797" gradientUnits="userSpaceOnUse">
<stop offset="0.0700108" stop-color="#FF8D2F"/>
<stop offset="1" stop-color="#FFD3B0"/>
</linearGradient>
<radialGradient id="paint15_radial_6110_17493" cx="0" cy="0" r="1" gradientUnits="userSpaceOnUse" gradientTransform="translate(133.733 70.6863) rotate(90) scale(12.4179 7.54871)">
<stop stop-color="#FF8D2F"/>
<stop offset="1" stop-color="#FFD2AC"/>
</radialGradient>
<radialGradient id="paint16_radial_6110_17493" cx="0" cy="0" r="1" gradientUnits="userSpaceOnUse" gradientTransform="translate(133.733 99.4539) rotate(90) scale(12.4179 7.54871)">
<stop stop-color="#FF8D2F"/>
<stop offset="1" stop-color="#FFD2AC"/>
</radialGradient>
<linearGradient id="paint17_linear_6110_17493" x1="180.824" y1="71.5823" x2="163.105" y2="35.6174" gradientUnits="userSpaceOnUse">
<stop offset="0.0700108" stop-color="#FF8D2F"/>
<stop offset="1" stop-color="#FFD3B0"/>
</linearGradient>
<linearGradient id="paint18_linear_6110_17493" x1="53.9939" y1="113.273" x2="48.8258" y2="102.783" gradientUnits="userSpaceOnUse">
<stop offset="0.0700108" stop-color="#FF8D2F"/>
<stop offset="1" stop-color="#FFD3B0"/>
</linearGradient>
<linearGradient id="paint19_linear_6110_17493" x1="197.056" y1="193.781" x2="191.888" y2="183.291" gradientUnits="userSpaceOnUse">
<stop offset="0.0700108" stop-color="#FF8D2F"/>
<stop offset="1" stop-color="#FFD3B0"/>
</linearGradient>
<linearGradient id="paint20_linear_6110_17493" x1="203.533" y1="138.673" x2="187.782" y2="133.105" gradientUnits="userSpaceOnUse">
<stop offset="0.0700108" stop-color="#FF8D2F"/>
<stop offset="1" stop-color="#FFD3B0"/>
</linearGradient>
<linearGradient id="paint21_linear_6110_17493" x1="71.9537" y1="202.133" x2="77.5415" y2="186.39" gradientUnits="userSpaceOnUse">
<stop offset="0.0700108" stop-color="#FF8D2F"/>
<stop offset="1" stop-color="#FFD3B0"/>
</linearGradient>
<linearGradient id="paint22_linear_6110_17493" x1="192.407" y1="128.283" x2="160.775" y2="63.4942" gradientUnits="userSpaceOnUse">
<stop offset="0.0700108" stop-color="#FF8D2F"/>
<stop offset="1" stop-color="#FFD3B0"/>
</linearGradient>
<linearGradient id="paint23_linear_6110_17493" x1="105.004" y1="47.0697" x2="99.8356" y2="36.5799" gradientUnits="userSpaceOnUse">
<stop offset="0.0700108" stop-color="#FF8D2F"/>
<stop offset="1" stop-color="#FFD3B0"/>
</linearGradient>
<linearGradient id="paint24_linear_6110_17493" x1="103.994" y1="163.378" x2="100.702" y2="144.816" gradientUnits="userSpaceOnUse">
<stop offset="0.0700108" stop-color="#FF8D2F"/>
<stop offset="1" stop-color="#FFD3B0"/>
</linearGradient>
<linearGradient id="paint25_linear_6110_17493" x1="103.994" y1="188.546" x2="100.702" y2="169.984" gradientUnits="userSpaceOnUse">
<stop offset="0.0700108" stop-color="#FF8D2F"/>
<stop offset="1" stop-color="#FFD3B0"/>
</linearGradient>
</defs>
</svg>
