<svg width="291" height="306" viewBox="0 0 291 306" fill="none" xmlns="http://www.w3.org/2000/svg">
<path d="M145.347 305.397C167.463 305.396 189.082 298.836 207.47 286.549C225.858 274.261 240.19 256.796 248.652 236.363C257.115 215.931 259.328 193.447 255.013 171.756C250.698 150.065 240.047 130.141 224.409 114.504C208.77 98.8656 188.845 88.2163 167.154 83.9021C145.463 79.588 122.98 81.8028 102.547 90.2665C82.115 98.7301 64.6512 113.063 52.3644 131.451C40.0776 149.84 33.5195 171.459 33.5195 193.575C33.5195 208.261 36.4121 222.802 42.032 236.369C47.652 249.936 55.8892 262.264 66.2735 272.647C76.6577 283.031 88.9856 291.268 102.553 296.887C116.121 302.506 130.662 305.398 145.347 305.397V305.397Z" fill="url(#paint0_linear_2052_4808)"/>
<path d="M172.051 60.0162C171.98 59.7415 171.983 59.4531 172.059 59.1798C172.135 58.9066 172.282 58.6583 172.485 58.46C172.688 58.2616 172.939 58.1203 173.214 58.0501C173.489 57.98 173.778 57.9835 174.051 58.0604L182.148 60.3276C182.421 60.4039 182.669 60.5508 182.867 60.7536C183.065 60.9563 183.207 61.2077 183.277 61.4824C183.347 61.7572 183.343 62.0455 183.266 62.3184C183.19 62.5914 183.042 62.8392 182.839 63.037L176.847 68.8981C176.644 69.0961 176.393 69.2371 176.118 69.3069C175.843 69.3768 175.555 69.373 175.282 69.2959C175.009 69.2189 174.762 69.0713 174.564 68.8681C174.366 68.6648 174.226 68.4131 174.156 68.1382L172.051 60.0162Z" fill="#FFBE88"/>
<path d="M261.844 0.912362C261.907 0.652493 262.055 0.421114 262.265 0.255575C262.475 0.0900364 262.736 0 263.004 0C263.272 0 263.532 0.0900364 263.742 0.255575C263.952 0.421114 264.101 0.652493 264.163 0.912362L265.152 4.99301C265.203 5.20534 265.312 5.39942 265.467 5.55383C265.622 5.70824 265.816 5.81696 266.029 5.86798L270.122 6.85375C270.374 6.92244 270.597 7.07184 270.755 7.27896C270.914 7.48608 271 7.73943 271 8C271 8.26057 270.914 8.51392 270.755 8.72103C270.597 8.92815 270.374 9.07756 270.122 9.14625L266.029 10.132C265.816 10.183 265.622 10.2918 265.467 10.4462C265.312 10.6006 265.203 10.7947 265.152 11.007L264.163 15.0876C264.101 15.3475 263.952 15.5789 263.742 15.7444C263.532 15.91 263.272 16 263.004 16C262.736 16 262.475 15.91 262.265 15.7444C262.055 15.5789 261.907 15.3475 261.844 15.0876L260.859 11.007C260.807 10.7946 260.697 10.6006 260.542 10.4462C260.386 10.2919 260.191 10.1832 259.978 10.132L255.889 9.14625C255.634 9.08019 255.409 8.93182 255.248 8.72439C255.087 8.51695 255 8.26218 255 8C255 7.73782 255.087 7.48305 255.248 7.27561C255.409 7.06818 255.634 6.91981 255.889 6.85375L259.978 5.86798C260.191 5.81679 260.386 5.70808 260.542 5.55376C260.697 5.39943 260.807 5.20544 260.859 4.99301L261.844 0.912362Z" fill="#FFBE88"/>
<path d="M32.4109 9.25329C32.4965 8.89631 32.7003 8.57847 32.9895 8.35107C33.2788 8.12367 33.6365 8 34.0049 8C34.3734 8 34.7312 8.12367 35.0204 8.35107C35.3096 8.57847 35.5134 8.89631 35.599 9.25329L36.9585 14.8588C37.0283 15.1508 37.1781 15.4177 37.3911 15.6299C37.6042 15.8421 37.8722 15.9912 38.1653 16.0608L43.7932 17.4149C44.1398 17.5093 44.4457 17.7145 44.6638 17.999C44.8819 18.2835 45 18.6316 45 18.9895C45 19.3475 44.8819 19.6955 44.6638 19.98C44.4457 20.2645 44.1398 20.4697 43.7932 20.5641L38.1653 21.9183C37.8722 21.9878 37.6042 22.1369 37.3911 22.3491C37.1781 22.5613 37.0283 22.8282 36.9585 23.1202L35.6253 28.7467C35.5398 29.1037 35.3359 29.4215 35.0467 29.6489C34.7575 29.8763 34.3998 30 34.0313 30C33.6628 30 33.3051 29.8763 33.0159 29.6489C32.7267 29.4215 32.5228 29.1037 32.4373 28.7467L31.0566 23.1517C30.9847 22.8599 30.8337 22.5934 30.6199 22.3814C30.4061 22.1694 30.1379 22.0201 29.8446 21.9497L24.222 20.5956C23.8721 20.5048 23.5623 20.301 23.3411 20.0161C23.12 19.7311 23 19.3812 23 19.021C23 18.6608 23.12 18.3109 23.3411 18.0259C23.5623 17.741 23.8721 17.5371 24.222 17.4464L29.8288 16.0608C30.1221 15.9904 30.3903 15.8411 30.6041 15.6291C30.8179 15.4171 30.9689 15.1507 31.0408 14.8588L32.4109 9.25329Z" fill="#FFBE88"/>
<path d="M41.8819 112.441C41.8819 113.319 41.6215 114.178 41.1335 114.908C40.6455 115.639 39.9519 116.208 39.1404 116.544C38.329 116.88 37.4361 116.968 36.5746 116.797C35.7131 116.625 34.9218 116.202 34.3007 115.581C33.6796 114.96 33.2567 114.169 33.0853 113.307C32.914 112.446 33.0019 111.553 33.3381 110.741C33.6742 109.93 34.2434 109.236 34.9737 108.748C35.704 108.26 36.5626 108 37.441 108C38.6188 108 39.7484 108.468 40.5812 109.301C41.414 110.134 41.8819 111.263 41.8819 112.441V112.441Z" stroke="#FFA358" stroke-width="2"/>
<path d="M135.592 12.3061C136.265 8.16174 133.45 4.2567 129.306 3.58397C125.162 2.91124 121.257 5.72557 120.584 9.86996C119.911 14.0143 122.725 17.9194 126.87 18.5921C131.014 19.2648 134.919 16.4505 135.592 12.3061Z" stroke="#FFA358"/>
<path d="M285.435 77.8695C287.884 77.8695 289.869 75.884 289.869 73.4347C289.869 70.9855 287.884 69 285.435 69C282.985 69 281 70.9855 281 73.4347C281 75.884 282.985 77.8695 285.435 77.8695Z" stroke="#FFA358" stroke-width="2"/>
<path fill-rule="evenodd" clip-rule="evenodd" d="M139.29 223.483C139.288 222.783 139.423 222.089 139.689 221.442C139.955 220.794 140.347 220.205 140.84 219.708C141.334 219.211 141.921 218.817 142.567 218.547C143.213 218.277 143.906 218.137 144.606 218.135H175.541C179.622 218.09 183.613 219.341 186.937 221.709C190.046 223.996 192.496 227.589 192.496 232.052C192.496 236.515 190.03 240.108 186.937 242.396C183.608 244.749 179.618 245.986 175.541 245.929H102.037C100.623 245.929 99.2665 245.368 98.2665 244.367C97.2664 243.367 96.7046 242.011 96.7046 240.597C96.7046 239.183 97.2664 237.826 98.2665 236.826C99.2665 235.826 100.623 235.264 102.037 235.264H175.541C177.341 235.313 179.11 234.8 180.604 233.795C181.7 233.001 181.835 232.306 181.835 232.044C181.835 231.782 181.7 231.099 180.604 230.293C179.11 229.291 177.34 228.778 175.541 228.828L144.297 227.78C141.35 227.768 139.29 226.43 139.29 223.483Z" fill="url(#paint1_linear_2052_4808)"/>
<path fill-rule="evenodd" clip-rule="evenodd" d="M187.799 159.81C188.14 158.535 188.893 157.408 189.941 156.604C190.988 155.8 192.272 155.364 193.592 155.363H217.845C219.435 155.363 220.96 155.995 222.084 157.119C223.209 158.244 223.84 159.769 223.84 161.359C223.84 162.949 223.209 164.474 222.084 165.598C220.96 166.723 219.435 167.355 217.845 167.355H198.194L191.198 193.517C191.002 194.287 190.656 195.01 190.179 195.644C189.702 196.279 189.104 196.813 188.419 197.214C187.734 197.616 186.976 197.877 186.189 197.984C185.403 198.09 184.603 198.039 183.836 197.834C183.069 197.628 182.35 197.273 181.722 196.788C181.093 196.302 180.568 195.697 180.175 195.007C179.782 194.317 179.531 193.556 179.435 192.768C179.339 191.98 179.4 191.18 179.615 190.416L187.799 159.81Z" fill="url(#paint2_linear_2052_4808)"/>
<path d="M119.794 264.353C122.363 264.354 124.876 263.592 127.013 262.165C129.15 260.738 130.815 258.709 131.799 256.336C132.783 253.962 133.041 251.349 132.54 248.829C132.039 246.308 130.802 243.993 128.986 242.176C127.169 240.358 124.854 239.121 122.334 238.619C119.813 238.117 117.201 238.375 114.827 239.358C112.453 240.341 110.423 242.006 108.995 244.143C107.568 246.279 106.806 248.791 106.806 251.361C106.806 254.806 108.174 258.11 110.609 260.546C113.045 262.983 116.349 264.352 119.794 264.353Z" fill="url(#paint3_linear_2052_4808)"/>
<path d="M184.257 171.444H94.7469C88.0365 171.444 83.0812 177.134 84.598 183.086L91.888 218.107C92.9879 222.407 97.1928 225.457 102.037 225.457L180.981 230.563L194.441 183.102C197.745 173.386 190.983 171.444 184.257 171.444Z" fill="url(#paint4_linear_2052_4808)"/>
<path d="M119.436 257.908C120.728 257.909 121.99 257.526 123.064 256.81C124.139 256.093 124.976 255.073 125.47 253.88C125.965 252.687 126.095 251.374 125.843 250.108C125.591 248.841 124.969 247.678 124.056 246.764C123.143 245.851 121.979 245.23 120.713 244.978C119.446 244.726 118.133 244.856 116.94 245.35C115.747 245.845 114.728 246.682 114.011 247.756C113.294 248.83 112.912 250.093 112.913 251.384C112.912 252.241 113.08 253.09 113.408 253.881C113.736 254.673 114.216 255.392 114.822 255.998C115.428 256.604 116.147 257.085 116.939 257.412C117.731 257.74 118.579 257.908 119.436 257.908Z" fill="url(#paint5_linear_2052_4808)"/>
<path d="M150.122 198.369C150.611 198.372 151.094 198.472 151.545 198.663C151.995 198.854 152.403 199.132 152.746 199.481C153.088 199.83 153.358 200.243 153.54 200.697C153.722 201.151 153.813 201.636 153.806 202.125L153.473 229.289C153.459 230.279 153.055 231.223 152.347 231.915C151.64 232.608 150.687 232.993 149.697 232.985V232.985C149.208 232.982 148.724 232.882 148.274 232.691C147.823 232.5 147.415 232.222 147.073 231.872C146.731 231.523 146.461 231.109 146.28 230.654C146.098 230.2 146.009 229.714 146.016 229.225L146.35 202.066C146.361 201.076 146.765 200.131 147.472 199.438C148.179 198.745 149.132 198.361 150.122 198.369V198.369Z" fill="url(#paint6_linear_2052_4808)"/>
<path d="M211.313 176.634V177.877C211.316 178.285 211.238 178.689 211.085 179.066C210.931 179.444 210.705 179.787 210.418 180.077C210.131 180.366 209.79 180.597 209.414 180.754C209.038 180.911 208.635 180.993 208.228 180.994L83.1289 181.316C82.3036 181.317 81.5113 180.991 80.9251 180.41C80.3389 179.829 80.0064 179.04 80.0001 178.215V176.972C79.9974 176.564 80.0752 176.16 80.229 175.783C80.3827 175.406 80.6093 175.063 80.8959 174.773C81.1825 174.484 81.5234 174.253 81.8991 174.096C82.2748 173.938 82.6779 173.856 83.0853 173.855L208.184 173.537C209.009 173.534 209.802 173.858 210.389 174.439C210.975 175.019 211.308 175.809 211.313 176.634V176.634Z" fill="url(#paint7_linear_2052_4808)"/>
<path d="M171.201 198.457C171.69 198.461 172.174 198.561 172.624 198.752C173.074 198.944 173.482 199.222 173.824 199.571C174.166 199.921 174.436 200.335 174.617 200.789C174.799 201.243 174.889 201.728 174.882 202.217L174.548 229.38C174.535 230.37 174.13 231.315 173.423 232.007C172.715 232.7 171.762 233.084 170.772 233.077V233.077C170.283 233.073 169.8 232.973 169.35 232.782C168.9 232.591 168.492 232.312 168.15 231.963C167.808 231.613 167.538 231.2 167.356 230.746C167.175 230.291 167.085 229.806 167.092 229.317L167.425 202.158C167.438 201.167 167.842 200.222 168.55 199.528C169.257 198.835 170.211 198.45 171.201 198.457V198.457Z" fill="url(#paint8_linear_2052_4808)"/>
<path d="M129.045 198.282C129.535 198.286 130.018 198.386 130.469 198.577C130.919 198.769 131.327 199.047 131.67 199.396C132.012 199.746 132.282 200.159 132.464 200.614C132.646 201.068 132.736 201.553 132.73 202.042L132.393 229.202C132.38 230.192 131.976 231.136 131.27 231.83C130.563 232.523 129.611 232.909 128.621 232.902V232.902C128.131 232.898 127.648 232.797 127.198 232.606C126.748 232.415 126.34 232.136 125.998 231.787C125.655 231.438 125.385 231.024 125.203 230.57C125.021 230.116 124.93 229.631 124.936 229.142L125.269 201.979C125.284 200.989 125.689 200.046 126.396 199.353C127.104 198.661 128.056 198.276 129.045 198.282V198.282Z" fill="url(#paint9_linear_2052_4808)"/>
<path d="M107.743 198.282C108.232 198.286 108.716 198.386 109.166 198.578C109.616 198.769 110.024 199.047 110.367 199.396C110.709 199.746 110.979 200.16 111.161 200.614C111.343 201.068 111.434 201.553 111.427 202.043L111.09 229.202C111.077 230.192 110.674 231.136 109.967 231.83C109.26 232.523 108.308 232.909 107.318 232.902C106.829 232.898 106.345 232.798 105.895 232.606C105.445 232.415 105.037 232.137 104.695 231.787C104.353 231.438 104.083 231.024 103.9 230.571C103.718 230.117 103.627 229.631 103.633 229.142L103.951 201.975C103.966 200.983 104.374 200.038 105.085 199.346C105.795 198.654 106.751 198.272 107.743 198.282Z" fill="url(#paint10_linear_2052_4808)"/>
<path d="M84.6339 170.28H194.017C195.088 170.28 196.115 170.706 196.872 171.463C197.63 172.22 198.055 173.247 198.055 174.318V174.318C198.055 175.39 197.63 176.417 196.872 177.175C196.115 177.933 195.088 178.359 194.017 178.36H84.6339C83.5619 178.36 82.5337 177.935 81.7757 177.177C81.0177 176.419 80.5918 175.39 80.5918 174.318C80.5918 173.788 80.6964 173.262 80.8996 172.772C81.1027 172.282 81.4005 171.837 81.7759 171.462C82.1513 171.087 82.597 170.789 83.0874 170.587C83.5777 170.384 84.1033 170.28 84.6339 170.28V170.28Z" fill="url(#paint11_linear_2052_4808)"/>
<path d="M161.128 264.353C163.698 264.354 166.21 263.592 168.347 262.165C170.484 260.738 172.15 258.709 173.134 256.336C174.118 253.962 174.376 251.349 173.875 248.829C173.374 246.308 172.137 243.993 170.32 242.176C168.503 240.358 166.188 239.121 163.668 238.619C161.148 238.117 158.535 238.375 156.161 239.358C153.787 240.341 151.758 242.006 150.33 244.143C148.902 246.279 148.14 248.791 148.14 251.361C148.14 253.067 148.475 254.756 149.128 256.333C149.78 257.909 150.737 259.341 151.943 260.547C153.149 261.754 154.581 262.711 156.157 263.364C157.733 264.017 159.422 264.353 161.128 264.353V264.353Z" fill="url(#paint12_linear_2052_4808)"/>
<path d="M161.077 257.908C162.368 257.908 163.63 257.525 164.704 256.808C165.777 256.09 166.614 255.07 167.108 253.877C167.602 252.684 167.731 251.372 167.479 250.105C167.226 248.839 166.604 247.676 165.691 246.763C164.778 245.85 163.614 245.229 162.348 244.977C161.081 244.726 159.768 244.856 158.576 245.351C157.383 245.845 156.364 246.683 155.647 247.757C154.93 248.831 154.548 250.093 154.549 251.384C154.548 252.241 154.717 253.09 155.045 253.882C155.373 254.674 155.854 255.394 156.46 256C157.066 256.606 157.786 257.086 158.578 257.414C159.37 257.741 160.219 257.909 161.077 257.908V257.908Z" fill="url(#paint13_linear_2052_4808)"/>
<path fill-rule="evenodd" clip-rule="evenodd" d="M173.547 125.03C172.412 123.047 170.31 122.11 168.848 122.943C167.385 123.776 167.118 126.066 168.253 128.049C168.283 128.107 168.316 128.163 168.352 128.217C167.923 128.346 167.537 128.589 167.235 128.92C166.933 129.251 166.726 129.657 166.637 130.096C166.28 131.385 166.766 132.639 167.717 132.902C168.669 133.165 169.7 132.327 170.072 131.038C170.169 130.703 170.206 130.354 170.181 130.007C170.592 130.266 171.064 130.415 171.549 130.438C172.035 130.462 172.518 130.359 172.952 130.141C173.311 129.918 173.612 129.614 173.832 129.253C174.051 128.892 174.183 128.485 174.216 128.064C174.419 128.17 174.634 128.254 174.856 128.312C176.145 128.664 177.399 128.183 177.657 127.231C177.915 126.279 177.082 125.248 175.793 124.871C175.43 124.76 175.049 124.725 174.672 124.771C174.295 124.816 173.932 124.94 173.607 125.134L173.547 125.03Z" fill="url(#paint14_linear_2052_4808)"/>
<path fill-rule="evenodd" clip-rule="evenodd" d="M106.445 132.818C106.154 133.145 105.789 133.398 105.38 133.555C104.971 133.712 104.531 133.768 104.095 133.72C103.592 133.612 103.127 133.371 102.749 133.022C102.371 132.673 102.093 132.23 101.944 131.737C101.754 131.993 101.527 132.218 101.27 132.406C100.189 133.195 98.8456 133.19 98.2656 132.406C97.6856 131.623 98.0871 130.324 99.1629 129.536C99.5133 129.244 99.9375 129.054 100.389 128.988C100.84 128.921 101.301 128.981 101.721 129.159C102.078 126.909 103.704 125.293 105.364 125.55C107.025 125.808 108.056 127.781 107.759 130.012C108.126 130.07 108.477 130.202 108.79 130.401C109.104 130.6 109.374 130.86 109.583 131.167C110.371 132.243 110.366 133.591 109.583 134.171C108.8 134.751 107.506 134.35 106.718 133.274C106.613 133.13 106.522 132.978 106.445 132.818V132.818Z" fill="url(#paint15_linear_2052_4808)"/>
<path d="M103.53 135.133C102.197 140.477 106.505 151.7 113.202 152.592C125.555 154.238 123.285 139.788 115.913 142.504C107.144 145.736 115.913 159.562 127.945 162.681" stroke="#FF9D4C" stroke-width="1.57" stroke-linecap="round" stroke-linejoin="round" stroke-dasharray="6.26 6.26"/>
<path d="M173.765 133.784C181.107 148.076 161.65 163.34 156.266 166.165" stroke="#FF9A47" stroke-width="1.57" stroke-linecap="round" stroke-linejoin="round" stroke-dasharray="6.26 6.26"/>
<path fill-rule="evenodd" clip-rule="evenodd" d="M261.949 182.601C261.398 178.458 258.533 175.475 255.537 175.945C252.542 176.415 250.551 180.166 251.102 184.31C251.113 184.429 251.13 184.547 251.153 184.664C250.352 184.604 249.546 184.767 248.82 185.137C248.094 185.506 247.476 186.068 247.031 186.762C245.567 188.738 245.529 191.206 246.936 192.28C248.342 193.354 250.623 192.593 252.112 190.627C252.498 190.116 252.795 189.542 252.989 188.93C253.498 189.644 254.182 190.207 254.974 190.565C255.766 190.924 256.64 191.064 257.51 190.975C258.257 190.827 258.964 190.503 259.572 190.028C260.181 189.553 260.675 188.941 261.015 188.241C261.281 188.557 261.582 188.84 261.912 189.085C263.819 190.533 266.231 190.53 267.302 189.067C268.373 187.604 267.683 185.29 265.793 183.8C265.265 183.371 264.652 183.062 263.995 182.893C263.338 182.724 262.651 182.699 261.978 182.819L261.949 182.601Z" fill="url(#paint16_linear_2052_4808)"/>
<path fill-rule="evenodd" clip-rule="evenodd" d="M52.9334 245.277C52.749 246.415 52.2955 247.49 51.6106 248.412C50.9258 249.334 50.0296 250.075 48.9971 250.575C47.7299 251.035 46.3602 251.145 45.0305 250.893C43.7007 250.641 42.4595 250.036 41.4359 249.142C41.3743 249.979 41.1885 250.801 40.8846 251.58C39.6001 254.851 36.616 256.715 34.2272 255.773C31.8385 254.83 30.8987 251.364 32.1722 248.1C32.5372 246.958 33.21 245.941 34.1166 245.162C35.0231 244.384 36.1282 243.873 37.3101 243.687C34.9305 238.155 36.2572 232.27 40.3006 230.529C44.344 228.788 49.4084 231.763 51.8919 237.168C52.7863 236.785 53.7507 236.591 54.7258 236.598C55.7009 236.604 56.666 236.811 57.5618 237.205C60.824 238.512 62.7125 241.535 61.7939 243.925C60.8752 246.316 57.4422 247.223 54.1801 245.917C53.7467 245.741 53.3294 245.527 52.9334 245.277V245.277Z" fill="url(#paint17_linear_2052_4808)"/>
<defs>
<linearGradient id="paint0_linear_2052_4808" x1="144.481" y1="45.3417" x2="146.774" y2="438.04" gradientUnits="userSpaceOnUse">
<stop stop-color="#FFEAD9" stop-opacity="0"/>
<stop offset="1" stop-color="#FFC28F"/>
</linearGradient>
<linearGradient id="paint1_linear_2052_4808" x1="34.3402" y1="274.5" x2="79.2967" y2="336.576" gradientUnits="userSpaceOnUse">
<stop offset="0.00777689" stop-color="#FF8D2F"/>
<stop offset="1" stop-color="#FFD3B0"/>
</linearGradient>
<linearGradient id="paint2_linear_2052_4808" x1="221.251" y1="203.045" x2="179.356" y2="179.369" gradientUnits="userSpaceOnUse">
<stop stop-color="#FF8D2F"/>
<stop offset="1" stop-color="#FFD3B0"/>
</linearGradient>
<linearGradient id="paint3_linear_2052_4808" x1="123.34" y1="281" x2="119.318" y2="232.833" gradientUnits="userSpaceOnUse">
<stop offset="0.00777689" stop-color="#FF8D2F"/>
<stop offset="1" stop-color="#FFD3B0"/>
</linearGradient>
<linearGradient id="paint4_linear_2052_4808" x1="188.84" y1="237.5" x2="121.103" y2="168.506" gradientUnits="userSpaceOnUse">
<stop stop-color="#FF8D2F"/>
<stop offset="1" stop-color="#FFD3B0"/>
</linearGradient>
<linearGradient id="paint5_linear_2052_4808" x1="113.84" y1="249" x2="125.921" y2="262.506" gradientUnits="userSpaceOnUse">
<stop offset="0.00777689" stop-color="white"/>
<stop offset="1" stop-color="#FFD3B0"/>
<stop offset="1" stop-color="#FFD3B0"/>
</linearGradient>
<linearGradient id="paint6_linear_2052_4808" x1="145.764" y1="238.408" x2="116.528" y2="227.805" gradientUnits="userSpaceOnUse">
<stop offset="0.00777689" stop-color="#FF8D2F"/>
<stop offset="1" stop-color="#FFD3B0"/>
</linearGradient>
<linearGradient id="paint7_linear_2052_4808" x1="210.84" y1="184.5" x2="206.742" y2="158.742" gradientUnits="userSpaceOnUse">
<stop stop-color="#FF8D2F"/>
<stop offset="1" stop-color="#FFD3B0"/>
</linearGradient>
<linearGradient id="paint8_linear_2052_4808" x1="166.84" y1="238.5" x2="137.603" y2="227.898" gradientUnits="userSpaceOnUse">
<stop offset="0.00777689" stop-color="#FF8D2F"/>
<stop offset="1" stop-color="#FFD3B0"/>
</linearGradient>
<linearGradient id="paint9_linear_2052_4808" x1="124.684" y1="238.325" x2="95.4362" y2="227.714" gradientUnits="userSpaceOnUse">
<stop offset="0.00777689" stop-color="#FF8D2F"/>
<stop offset="1" stop-color="#FFD3B0"/>
</linearGradient>
<linearGradient id="paint10_linear_2052_4808" x1="103.381" y1="238.325" x2="74.1335" y2="227.715" gradientUnits="userSpaceOnUse">
<stop offset="0.00777689" stop-color="#FF8D2F"/>
<stop offset="1" stop-color="#FFD3B0"/>
</linearGradient>
<linearGradient id="paint11_linear_2052_4808" x1="235.84" y1="164.5" x2="229.093" y2="127.031" gradientUnits="userSpaceOnUse">
<stop stop-color="#FF8D2F"/>
<stop offset="1" stop-color="#FFD3B0"/>
</linearGradient>
<linearGradient id="paint12_linear_2052_4808" x1="164.674" y1="281" x2="160.652" y2="232.833" gradientUnits="userSpaceOnUse">
<stop offset="0.00777689" stop-color="#FF8D2F"/>
<stop offset="1" stop-color="#FFD3B0"/>
</linearGradient>
<linearGradient id="paint13_linear_2052_4808" x1="155.476" y1="249" x2="167.557" y2="262.506" gradientUnits="userSpaceOnUse">
<stop offset="0.00777689" stop-color="white"/>
<stop offset="1" stop-color="#FFD3B0"/>
<stop offset="1" stop-color="#FFD3B0"/>
</linearGradient>
<linearGradient id="paint14_linear_2052_4808" x1="172.918" y1="134.705" x2="167.176" y2="122.063" gradientUnits="userSpaceOnUse">
<stop offset="0.0700108" stop-color="#FF8D2F"/>
<stop offset="1" stop-color="#FFD3B0"/>
</linearGradient>
<linearGradient id="paint15_linear_2052_4808" x1="104.964" y1="135.953" x2="100.756" y2="124.289" gradientUnits="userSpaceOnUse">
<stop offset="0.0700108" stop-color="#FF8D2F"/>
<stop offset="1" stop-color="#FFD3B0"/>
</linearGradient>
<linearGradient id="paint16_linear_2052_4808" x1="254.373" y1="198.777" x2="252.776" y2="173.376" gradientUnits="userSpaceOnUse">
<stop offset="0.0700108" stop-color="#FF8D2F"/>
<stop offset="1" stop-color="#FFD3B0"/>
</linearGradient>
<linearGradient id="paint17_linear_2052_4808" x1="54.0681" y1="254.358" x2="28.1906" y2="234.294" gradientUnits="userSpaceOnUse">
<stop offset="0.0700108" stop-color="#FF8D2F"/>
<stop offset="1" stop-color="#FFD3B0"/>
</linearGradient>
</defs>
</svg>
