<svg width="20" height="20" viewBox="0 0 20 20" fill="none" xmlns="http://www.w3.org/2000/svg">
<path d="M5.58203 7.7168L9.99869 10.2751L14.382 7.73346" stroke="white" stroke-width="1.2" stroke-linecap="round" stroke-linejoin="round"/>
<path d="M9.99805 14.8092V10.2676" stroke="white" stroke-width="1.2" stroke-linecap="round" stroke-linejoin="round"/>
<path d="M8.9659 5.2409L6.29922 6.72423C5.69922 7.05756 5.19922 7.89923 5.19922 8.59089V11.4159C5.19922 12.1076 5.69089 12.9492 6.29922 13.2826L8.9659 14.7659C9.53257 15.0826 10.4659 15.0826 11.0409 14.7659L13.7076 13.2826C14.3076 12.9492 14.8076 12.1076 14.8076 11.4159V8.58257C14.8076 7.8909 14.3159 7.04923 13.7076 6.71589L11.0409 5.23256C10.4659 4.91589 9.53257 4.9159 8.9659 5.2409Z" stroke="white" stroke-width="1.2" stroke-linecap="round" stroke-linejoin="round"/>
<path d="M18.3333 12.5C18.3333 15.725 15.725 18.3333 12.5 18.3333L13.375 16.875" stroke="white" stroke-width="1.2" stroke-linecap="round" stroke-linejoin="round"/>
<path d="M1.66602 7.49935C1.66602 4.27435 4.27435 1.66602 7.49935 1.66602L6.62436 3.12435" stroke="white" stroke-width="1.2" stroke-linecap="round" stroke-linejoin="round"/>
</svg>
