<svg width="37" height="37" viewBox="0 0 37 37" fill="none" xmlns="http://www.w3.org/2000/svg">
<path d="M16.5757 25.9932V29.1228C16.5757 31.7745 14.109 33.9174 11.0719 33.9174C8.03484 33.9174 5.55273 31.7745 5.55273 29.1228V25.9932C5.55273 28.6448 8.01943 30.5257 11.0719 30.5257C14.109 30.5257 16.5757 28.6294 16.5757 25.9932Z" stroke="#FF8D2F" stroke-width="1.5" stroke-linecap="round" stroke-linejoin="round"/>
<path d="M16.5725 21.7528C16.5725 22.5236 16.3566 23.2327 15.9866 23.8494C15.077 25.3448 13.2116 26.2853 11.0533 26.2853C8.89495 26.2853 7.02951 25.3294 6.11993 23.8494C5.74993 23.2327 5.53418 22.5236 5.53418 21.7528C5.53418 20.4269 6.15081 19.2398 7.13748 18.3765C8.13956 17.4978 9.5116 16.9736 11.0378 16.9736C12.5641 16.9736 13.9362 17.5132 14.9383 18.3765C15.9558 19.2244 16.5725 20.4269 16.5725 21.7528Z" stroke="#FF8D2F" stroke-width="1.5" stroke-linecap="round" stroke-linejoin="round"/>
<path d="M16.5757 21.7526V25.9922C16.5757 28.6438 14.109 30.5247 11.0719 30.5247C8.03484 30.5247 5.55273 28.6284 5.55273 25.9922V21.7526C5.55273 19.1009 8.01943 16.958 11.0719 16.958C12.5982 16.958 13.9703 17.4975 14.9724 18.3609C15.9591 19.2242 16.5757 20.4267 16.5757 21.7526Z" stroke="#FF8D2F" stroke-width="1.5" stroke-linecap="round" stroke-linejoin="round"/>
<path d="M33.9172 16.9123V20.0882C33.9172 20.9361 33.2388 21.6298 32.3755 21.6606H29.3538C27.6888 21.6606 26.1626 20.4427 26.0238 18.7777C25.9313 17.8065 26.3013 16.8969 26.9488 16.2648C27.5192 15.679 28.3055 15.3398 29.1688 15.3398H32.3755C33.2388 15.3707 33.9172 16.0644 33.9172 16.9123Z" stroke="#FF8D2F" stroke-width="1.5" stroke-linecap="round" stroke-linejoin="round"/>
<path d="M3.08301 16.1872V13.1038C3.08301 8.91051 5.61134 5.98134 9.54259 5.488C9.94343 5.42634 10.3597 5.39551 10.7913 5.39551H24.6663C25.0672 5.39551 25.4526 5.41091 25.8226 5.47257C29.8001 5.93507 32.3747 8.87967 32.3747 13.1038V15.3393H29.168C28.3046 15.3393 27.5184 15.6784 26.948 16.2642C26.3005 16.8963 25.9305 17.8059 26.023 18.7772C26.1618 20.4422 27.688 21.6601 29.353 21.6601H32.3747V23.8955C32.3747 28.5205 29.2913 31.6038 24.6663 31.6038H20.8122" stroke="#FF8D2F" stroke-width="1.5" stroke-linecap="round" stroke-linejoin="round"/>
</svg>
