<svg width="24" height="24" viewBox="0 0 24 24" fill="none" xmlns="http://www.w3.org/2000/svg">
<path d="M12.5007 22.0003H4.0807C2.9207 22.0003 1.9707 21.0703 1.9707 19.9303V5.09035C1.9707 2.47035 3.9207 1.28035 6.3107 2.45035L10.7507 4.63035C11.7107 5.10035 12.5007 6.35035 12.5007 7.41035V22.0003Z" stroke="#414449" stroke-width="1.5" stroke-linecap="round" stroke-linejoin="round"/>
<path d="M21.97 15.0599V18.8399C21.97 20.9999 20.97 21.9999 18.81 21.9999H12.5V10.4199L12.97 10.5199L17.47 11.5299L19.5 11.9799C20.82 12.2699 21.9 12.9499 21.96 14.8699C21.97 14.9299 21.97 14.9899 21.97 15.0599Z" stroke="#414449" stroke-width="1.5" stroke-linecap="round" stroke-linejoin="round"/>
<path d="M5.5 9H8.97" stroke="#414449" stroke-width="1.5" stroke-linecap="round" stroke-linejoin="round"/>
<path d="M5.5 13H8.97" stroke="#414449" stroke-width="1.5" stroke-linecap="round" stroke-linejoin="round"/>
<path d="M17.4707 11.5295V14.7495C17.4707 15.9895 16.4607 16.9995 15.2207 16.9995C13.9807 16.9995 12.9707 15.9895 12.9707 14.7495V10.5195L17.4707 11.5295Z" stroke="#414449" stroke-width="1.5" stroke-linecap="round" stroke-linejoin="round"/>
<path d="M21.9607 14.8693C21.9007 16.0493 20.9207 16.9993 19.7207 16.9993C18.4807 16.9993 17.4707 15.9893 17.4707 14.7493V11.5293L19.5007 11.9793C20.8207 12.2693 21.9007 12.9493 21.9607 14.8693Z" stroke="#414449" stroke-width="1.5" stroke-linecap="round" stroke-linejoin="round"/>
</svg>
