<svg width="21" height="20" viewBox="0 0 21 20" fill="none" xmlns="http://www.w3.org/2000/svg">
<path d="M2.64258 6.2002L10.0009 10.4585L17.3092 6.22517" stroke="white" stroke-width="1.2" stroke-linecap="round" stroke-linejoin="round"/>
<path d="M10.002 18.0085V10.4502" stroke="white" stroke-width="1.2" stroke-linecap="round" stroke-linejoin="round"/>
<path d="M18.0005 11.4753C18.0088 11.4337 18.0088 11.4004 18.0088 11.3587V7.64199C18.0088 6.49199 17.1838 5.09201 16.1755 4.53368L11.7255 2.06699C10.7755 1.53366 9.2255 1.53366 8.2755 2.06699L3.82551 4.53368C2.81717 5.09201 1.99219 6.49199 1.99219 7.64199V12.3587C1.99219 13.5087 2.81717 14.9087 3.82551 15.467L8.2755 17.9337C9.2255 18.467 10.7755 18.467 11.7255 17.9337L12.7667 17.375C12.6667 17.2583 12.575 17.1333 12.5 17" stroke="white" stroke-width="1.2" stroke-linecap="round" stroke-linejoin="round"/>
<path d="M20 15C20 16.2 19.47 17.27 18.64 18C17.93 18.62 17.01 19 16 19C13.79 19 12 17.21 12 15C12 13.74 12.58 12.61 13.5 11.88C14.19 11.33 15.06 11 16 11C18.21 11 20 12.79 20 15Z" stroke="white" stroke-width="1.2" stroke-miterlimit="10" stroke-linecap="round" stroke-linejoin="round"/>
<path d="M16.5 13V15L15 16.5" stroke="white" stroke-width="1.2" stroke-miterlimit="10" stroke-linecap="round" stroke-linejoin="round"/>
</svg>
