<svg width="21" height="20" viewBox="0 0 21 20" fill="none" xmlns="http://www.w3.org/2000/svg">
<path d="M19.9967 14.9101C20.0167 15.6599 19.8167 16.3697 19.4568 16.9796C19.2569 17.3395 18.987 17.6695 18.6871 17.9394C17.9973 18.5792 17.0876 18.9691 16.0779 18.9991C14.6184 19.0291 13.3288 18.2793 12.619 17.1296C12.2391 16.5397 12.0092 15.8299 11.9992 15.0801C11.9692 13.8204 12.529 12.6806 13.4287 11.9308C14.1085 11.3709 14.9683 11.021 15.908 11.001C18.1173 10.9511 19.9467 12.7006 19.9967 14.9101Z" stroke="white" stroke-width="1.2" stroke-miterlimit="10" stroke-linecap="round" stroke-linejoin="round"/>
<path d="M14.252 15.0494L15.0936 15.8494L17.2168 14.0244" stroke="white" stroke-width="1.2" stroke-linecap="round" stroke-linejoin="round"/>
<path d="M2.64258 6.2002L10.0009 10.4585L17.3092 6.22517" stroke="white" stroke-width="1.2" stroke-linecap="round" stroke-linejoin="round"/>
<path d="M10.002 18.0085V10.4502" stroke="white" stroke-width="1.2" stroke-linecap="round" stroke-linejoin="round"/>
<path d="M18.0005 11.4753C18.0088 11.4337 18.0088 11.4004 18.0088 11.3587V7.64199C18.0088 6.49199 17.1838 5.09201 16.1755 4.53368L11.7255 2.06699C10.7755 1.53366 9.2255 1.53366 8.2755 2.06699L3.82551 4.53368C2.81717 5.09201 1.99219 6.49199 1.99219 7.64199V12.3587C1.99219 13.5087 2.81717 14.9087 3.82551 15.467L8.2755 17.9337C9.2255 18.467 10.7755 18.467 11.7255 17.9337L12.7667 17.375C12.6667 17.2583 12.575 17.1333 12.5 17" stroke="white" stroke-width="1.2" stroke-linecap="round" stroke-linejoin="round"/>
</svg>
