<svg width="43" height="43" viewBox="0 0 43 43" fill="none" xmlns="http://www.w3.org/2000/svg">
<path d="M15.7268 10.8613C14.807 9.36035 13.2063 8.4646 11.4441 8.4646C10.5222 8.4646 9.61706 8.72063 8.82734 9.20414C6.46879 10.6494 5.72544 13.7443 7.17091 16.1038L10.4181 21.382C11.4045 22.9852 11.8977 23.7868 12.7023 23.9793C13.5069 24.1718 14.3095 23.6801 15.9146 22.6968L17.6493 21.6341C19.2599 20.6474 20.0653 20.154 20.2582 19.3472C20.4512 18.5405 19.9564 17.7361 18.9666 16.1273L15.7268 10.8613ZM7.96285 15.6182C6.78539 13.6959 7.3908 11.174 9.31305 9.99626C9.95707 9.60201 10.6938 9.39325 11.4446 9.39325C12.8807 9.39325 14.1858 10.1237 14.9354 11.3472L17.688 15.8215C18.6777 17.4302 19.1725 18.2346 18.9796 19.0413C18.7866 19.8481 17.9813 20.3414 16.3708 21.3282L16.2201 21.4205C14.615 22.4039 13.8124 22.8956 13.0078 22.7032C12.2031 22.5107 11.7099 21.709 10.7235 20.1057L7.96285 15.6182Z" fill="#008893"/>
<path d="M14.3212 11.5327C13.8403 10.7368 13.078 10.176 12.1753 9.95333C11.4241 9.76844 10.6502 9.83575 9.95277 10.1409C9.7178 10.2437 9.64835 10.5325 9.78105 10.7519V10.7519C9.91378 10.9715 10.1985 11.0371 10.4382 10.9458C10.9187 10.7627 11.4428 10.7298 11.9526 10.8553C12.6144 11.0187 13.1735 11.4297 13.526 12.0135L17.0544 17.8512C17.187 18.0707 17.4724 18.1411 17.6919 18.0085V18.0085C17.9114 17.8759 17.9819 17.5904 17.8492 17.3709L14.3212 11.5327Z" fill="#008893"/>
<path d="M36.2234 11.9577C36.2235 11.9577 36.2235 11.9576 36.2235 11.9575C35.3006 10.4795 33.7078 9.59668 31.9633 9.59668C31.0258 9.59668 30.1087 9.86015 29.3094 10.359L24.059 13.6505C22.4641 14.6504 21.6667 15.1503 21.481 15.9565C21.2953 16.7627 21.7937 17.5611 22.7906 19.1579L23.8682 20.884C24.8684 22.4862 25.3685 23.2873 26.1769 23.4735C26.9852 23.6597 27.7854 23.1581 29.3857 22.1549L34.6247 18.8709C36.9712 17.4053 37.6885 14.3047 36.2234 11.9579C36.2233 11.9578 36.2233 11.9577 36.2234 11.9577V11.9577ZM34.1326 18.0826C34.1326 18.0827 34.1325 18.0828 34.1325 18.0828L29.681 20.8732C28.0807 21.8764 27.2805 22.3779 26.4722 22.1918C25.6639 22.0056 25.1637 21.2045 24.1635 19.6024L24.07 19.4526C23.073 17.8557 22.5746 17.0573 22.7603 16.251C22.946 15.4448 23.7435 14.9449 25.3385 13.945L29.803 11.1466C30.4537 10.7403 31.2007 10.5256 31.964 10.5256C33.3858 10.5256 34.6839 11.245 35.4364 12.4493C36.6297 14.3615 36.0457 16.8888 34.1328 18.0824C34.1327 18.0825 34.1327 18.0825 34.1326 18.0826V18.0826Z" fill="#008893"/>
<path d="M34.6851 12.9302C34.4667 13.0646 34.4034 13.35 34.4963 13.589C34.9337 14.7144 34.5195 16.0301 33.4555 16.6861L27.6478 20.2636C27.4295 20.3981 27.3615 20.6842 27.496 20.9026V20.9026C27.6305 21.121 27.9166 21.189 28.135 21.0545L33.9426 17.477C35.4431 16.5521 35.9961 14.6648 35.297 13.0971C35.1926 12.863 34.9033 12.7958 34.6851 12.9302V12.9302Z" fill="#008893"/>
<path d="M19.0984 23.8093C19.0984 24.6424 19.7765 25.3206 20.6097 25.3206C21.4432 25.3206 22.1211 24.6425 22.1211 23.8093C22.1211 22.9757 21.443 22.2979 20.6097 22.2979C19.7766 22.2979 19.0984 22.9757 19.0984 23.8093ZM20.6097 23.2264C20.931 23.2264 21.1918 23.488 21.1918 23.8088C21.1918 24.1299 20.9307 24.3905 20.6097 24.3905C20.2886 24.3905 20.0275 24.1294 20.0275 23.8088C20.0273 23.488 20.2888 23.2264 20.6097 23.2264Z" fill="#008893"/>
<path d="M24.0923 25.6883C23.2587 25.6883 22.5808 26.3664 22.5808 27.1997C22.5808 28.0328 23.2589 28.711 24.0923 28.711C24.9254 28.711 25.6035 28.0329 25.6035 27.1997C25.603 26.3659 24.9254 25.6883 24.0923 25.6883ZM24.0923 27.7819C23.771 27.7819 23.5099 27.5208 23.5099 27.1998C23.5099 26.8787 23.7714 26.6174 24.0923 26.6174C24.4133 26.6174 24.6739 26.8789 24.6739 27.1998C24.6739 27.5208 24.4128 27.7819 24.0923 27.7819Z" fill="#008893"/>
<path d="M20.6097 27.9974C19.7766 27.9974 19.0984 28.6755 19.0984 29.5089C19.0984 30.342 19.7765 31.0202 20.6097 31.0202C21.4432 31.0202 22.1211 30.342 22.1211 29.5089C22.1209 28.6751 21.4432 27.9974 20.6097 27.9974ZM20.6097 30.0908C20.2886 30.0908 20.0275 29.8297 20.0275 29.5087C20.0275 29.1876 20.2891 28.9263 20.6097 28.9263C20.931 28.9263 21.1918 29.1878 21.1918 29.5087C21.1918 29.8295 20.9307 30.0908 20.6097 30.0908Z" fill="#008893"/>
<path d="M23.6119 31.4792C22.7788 31.4792 22.1006 32.1573 22.1006 32.9905C22.1006 33.8236 22.7787 34.5017 23.6119 34.5017C24.445 34.5017 25.1231 33.8236 25.1231 32.9905C25.1231 32.1573 24.445 31.4792 23.6119 31.4792ZM23.6119 33.5728C23.2905 33.5728 23.0295 33.3112 23.0295 32.9904C23.0295 32.6694 23.291 32.4083 23.6119 32.4083C23.9329 32.4083 24.1942 32.6694 24.1942 32.9904C24.1942 33.3112 23.9332 33.5728 23.6119 33.5728Z" fill="#008893"/>
<path d="M16.8914 25.69C16.0583 25.69 15.3801 26.3681 15.3801 27.2015C15.3801 28.0345 16.0582 28.7127 16.8914 28.7127C17.7245 28.7127 18.4027 28.0346 18.4027 27.2015C18.4027 26.3681 17.7245 25.69 16.8914 25.69ZM16.8914 27.7836C16.5701 27.7836 16.3093 27.5221 16.3093 27.2015C16.3093 26.8802 16.5703 26.6193 16.8914 26.6193C17.2125 26.6193 17.4738 26.8804 17.4738 27.2015C17.4738 27.5225 17.2127 27.7836 16.8914 27.7836Z" fill="#008893"/>
</svg>
