<svg width="43" height="43" viewBox="0 0 43 43" fill="none" xmlns="http://www.w3.org/2000/svg">
<path d="M21.505 30.4931C17.88 30.4931 14.6545 28.7504 12.6175 26.0607C12.2252 26.1399 11.7008 26.091 11.0332 25.6987C8.70222 24.3331 5.90308 19.5952 5.90308 17.6491C5.90308 16.3817 6.55931 15.2426 7.65707 14.6087C8.54353 14.0956 9.56949 13.9938 10.5125 14.3069C10.5767 14.2314 10.6633 14.1748 10.7614 14.1448C17.7891 11.8664 25.2203 11.8664 32.2513 14.1448C32.3495 14.1751 32.4361 14.2353 32.5003 14.3069C33.4433 13.9938 34.4692 14.0956 35.3557 14.6087C36.4535 15.2463 37.1097 16.3816 37.1097 17.6491C37.1097 19.5955 34.3145 24.3373 31.9909 25.6987C31.3157 26.0947 30.7876 26.1399 30.3952 26.0534C28.359 28.7504 25.1298 30.4931 21.505 30.4931ZM13.4063 25.2195C15.2245 27.7282 18.1781 29.3614 21.505 29.3614C24.8509 29.3614 27.8159 27.7092 29.634 25.1819C29.6454 25.1479 29.6604 25.1177 29.6756 25.0877C29.7132 25.0235 29.7585 24.9669 29.8151 24.9256C30.8826 23.3337 31.5088 21.4176 31.5088 19.3615V15.1329V15.1102V15.095C24.9528 13.0581 18.0537 13.0581 11.5015 15.095V15.11V15.1326V19.3576C11.5015 21.4058 12.1202 23.3109 13.1763 24.8951C13.2442 24.944 13.3045 25.0083 13.3497 25.0838C13.3763 25.129 13.3952 25.1743 13.4065 25.2195L13.4063 25.2195ZM32.6403 15.4645V19.3574C32.6403 21.349 32.1122 23.2237 31.1918 24.8423C31.271 24.8046 31.3465 24.7667 31.4144 24.7254C33.3382 23.5977 35.9749 19.2445 35.9749 17.6493C35.9749 16.7891 35.5297 16.0197 34.7866 15.5858C34.119 15.2009 33.3344 15.1593 32.6403 15.4648L32.6403 15.4645ZM9.41523 15.2647C9.00397 15.2647 8.59667 15.3742 8.22329 15.5892C7.48025 16.0191 7.035 16.7924 7.035 17.6526C7.035 19.2406 9.67942 23.5937 11.6068 24.7254C11.671 24.7631 11.7389 24.801 11.8104 24.8349C10.8937 23.2167 10.3695 21.3495 10.3695 19.3613V15.4644C10.0641 15.3287 9.73967 15.2647 9.41523 15.2647ZM21.505 25.9508C19.9171 25.9508 18.3252 25.6526 16.8124 25.0567L16.2241 24.823C15.9336 24.7099 15.7902 24.3818 15.9033 24.0873C16.0165 23.7968 16.3446 23.6534 16.6391 23.7666L17.2274 24.0005C19.985 25.0869 23.0251 25.0869 25.7828 24.0005L26.3712 23.7666C26.6617 23.6534 26.9898 23.7968 27.1069 24.0873C27.22 24.3778 27.0766 24.7059 26.7861 24.823L26.1978 25.0569C24.6851 25.6529 23.0931 25.9508 21.5052 25.9508L21.505 25.9508ZM26.5786 21.5486H16.7972C16.4841 21.5486 16.2315 21.2958 16.2315 20.9829C16.2315 20.6698 16.4844 20.4172 16.7972 20.4172H26.5786C26.8917 20.4172 27.1443 20.6701 27.1443 20.9829C27.1443 21.296 26.8917 21.5486 26.5786 21.5486ZM26.5786 18.214C26.5107 18.214 26.4391 18.2027 26.3712 18.1764L25.7829 17.9425C23.0253 16.856 19.9888 16.856 17.2275 17.9425L16.6391 18.1764C16.3486 18.2896 16.0205 18.1501 15.9034 17.8557C15.7903 17.5652 15.9297 17.2371 16.2242 17.12L16.8125 16.886C19.8377 15.6941 23.1723 15.6941 26.1978 16.886L26.7859 17.1239C27.0764 17.237 27.2198 17.5652 27.1066 17.8596C27.0198 18.0783 26.8049 18.214 26.5786 18.214Z" fill="#008893"/>
</svg>
