<svg width="16" height="16" viewBox="0 0 16 16" fill="none" xmlns="http://www.w3.org/2000/svg">
<path d="M5.66699 9.5C5.66699 10.78 6.72033 11.8333 8.00033 11.8333C9.28033 11.8333 10.3337 10.78 10.3337 9.5" stroke="white" stroke-miterlimit="10" stroke-linecap="round" stroke-linejoin="round"/>
<path d="M5.87329 1.33301L3.45996 3.75301" stroke="white" stroke-miterlimit="10" stroke-linecap="round" stroke-linejoin="round"/>
<path d="M10.127 1.33301L12.5403 3.75301" stroke="white" stroke-miterlimit="10" stroke-linecap="round" stroke-linejoin="round"/>
<path d="M1.33301 5.23372C1.33301 4.00039 1.99301 3.90039 2.81301 3.90039H13.1863C14.0063 3.90039 14.6663 4.00039 14.6663 5.23372C14.6663 6.66706 14.0063 6.56706 13.1863 6.56706H2.81301C1.99301 6.56706 1.33301 6.66706 1.33301 5.23372Z" stroke="white"/>
<path d="M2.33301 6.66699L3.27301 12.427C3.48634 13.7203 3.99967 14.667 5.90634 14.667H9.92634C11.9997 14.667 12.3063 13.7603 12.5463 12.507L13.6663 6.66699" stroke="white" stroke-linecap="round"/>
</svg>
